<?xml version="1.0" encoding="utf-8"?>
<!-- Generator: Adobe Illustrator 15.0.0, SVG Export Plug-In . SVG Version: 6.00 Build 0)  -->
<!DOCTYPE svg PUBLIC "-//W3C//DTD SVG 1.1//EN" "http://www.w3.org/Graphics/SVG/1.1/DTD/svg11.dtd">
<svg version="1.1" xmlns="http://www.w3.org/2000/svg" xmlns:xlink="http://www.w3.org/1999/xlink" x="0px" y="0px" width="256px"
	 height="256px" viewBox="0 0 256 256" enable-background="new 0 0 256 256" xml:space="preserve">
<g id="圖層_2">
	<path fill="#999999" d="M256,201c0,30.376-24.624,55-55,55H55c-30.375,0-55-24.624-55-55V55C0,24.625,24.625,0,55,0h146
		c30.376,0,55,24.625,55,55V201z"/>
	<path fill="#E6E6E6" d="M256,192c0,30.376-24.624,55-55,55H55c-30.375,0-55-24.624-55-55V46C0,15.625,24.625-9,55-9h146
		c30.376,0,55,24.625,55,55V192z"/>
</g>
<g id="圖層_3_1_">
	<g>
		<g id="圖層_1_2_">
			<g id="圖層_2_2_">
			</g>
			<g id="圖層_1_1_">
				<g>
					<g>
						
							<linearGradient id="SVGID_1_" gradientUnits="userSpaceOnUse" x1="-1156.2017" y1="1553.8965" x2="-1135.5537" y2="1553.8965" gradientTransform="matrix(-0.9787 -0.2051 -0.2051 0.9787 -591.3445 -1607.6729)">
							<stop  offset="0" style="stop-color:#FFEFCC"/>
							<stop  offset="1" style="stop-color:#FFEFCC"/>
						</linearGradient>
						<path fill="url(#SVGID_1_)" stroke="#000000" stroke-width="5.5204" stroke-miterlimit="10" d="M197.146,165.927
							c0.104,0.024,0.19,0.058,0.294,0.074c10.99,2.309,21.782-4.742,24.084-15.737c2.31-10.998-4.745-21.783-15.735-24.084
							c-0.105-0.022-0.193-0.033-0.289-0.052L197.146,165.927z"/>
						<path fill="#C7B299" d="M202.326,156.041c0.057,0.015,0.095,0.022,0.139,0.036c5.194,1.087,10.284-2.234,11.366-7.427
							c1.094-5.187-2.238-10.279-7.423-11.366c-0.052-0.009-0.091-0.009-0.143-0.021L202.326,156.041z"/>
					</g>
					<g>
						
							<linearGradient id="SVGID_2_" gradientUnits="userSpaceOnUse" x1="810.1875" y1="1920.1475" x2="830.833" y2="1920.1475" gradientTransform="matrix(0.9856 -0.1691 0.1691 0.9856 -1084.1539 -1605.5977)">
							<stop  offset="0" style="stop-color:#FFEFCC"/>
							<stop  offset="1" style="stop-color:#FFEFCC"/>
						</linearGradient>
						<path fill="url(#SVGID_2_)" stroke="#000000" stroke-width="5.5204" stroke-miterlimit="10" d="M62.903,166.438
							c-0.098,0.015-0.193,0.048-0.297,0.063c-11.073,1.9-21.591-5.536-23.49-16.611c-1.9-11.074,5.537-21.59,16.61-23.494
							c0.097-0.017,0.203-0.025,0.298-0.04L62.903,166.438z"/>
						<path fill="#C7B299" d="M58.093,156.373c-0.049,0.008-0.095,0.019-0.142,0.025c-5.229,0.893-10.189-2.609-11.089-7.838
							c-0.896-5.229,2.615-10.189,7.843-11.088c0.049-0.009,0.093-0.009,0.141-0.017L58.093,156.373z"/>
					</g>
					<g>
						<g>
							<g>
								
									<linearGradient id="SVGID_3_" gradientUnits="userSpaceOnUse" x1="775.4551" y1="-951.6016" x2="926.2998" y2="-951.6016" gradientTransform="matrix(1 0 0 -1 -720.9805 -785.8799)">
									<stop  offset="0" style="stop-color:#FFEFCC"/>
									<stop  offset="1" style="stop-color:#FFEFCC"/>
								</linearGradient>
								<path fill="url(#SVGID_3_)" stroke="#000000" stroke-width="5.5204" stroke-miterlimit="10" d="M54.544,105.728
									c-0.037,1.451-0.069,2.901-0.069,4.356c0,63.868,33.767,115.632,75.42,115.632c41.658,0,75.424-51.76,75.424-115.632
									c0-1.455-0.034-2.905-0.062-4.356H54.544z"/>
								<path fill="#1A1A1A" d="M51.367,108.756c0-33.592,35.166-60.825,78.544-60.825c43.372,0,78.538,27.232,78.538,60.825"/>
							</g>
						</g>
					</g>
					<polygon fill="#808080" points="51.704,108.756 51.704,130.068 56.853,154.954 74.54,130.068 74.54,108.756 					"/>
					<rect x="51.704" y="112.1" fill="#666666" width="22.836" height="2.726"/>
					<rect x="51.704" y="117.555" fill="#666666" width="22.836" height="2.727"/>
					<rect x="51.704" y="123.011" fill="#666666" width="22.836" height="2.724"/>
					<rect x="51.704" y="128.467" fill="#666666" width="22.836" height="2.724"/>
					<g>
						<polygon fill="#808080" points="208.183,108.756 208.183,130.068 203.029,154.954 185.343,130.068 185.343,108.756 						"/>
						<rect x="185.343" y="112.1" fill="#666666" width="22.84" height="2.726"/>
						<rect x="185.343" y="117.555" fill="#666666" width="22.84" height="2.727"/>
						<rect x="185.343" y="123.011" fill="#666666" width="22.84" height="2.724"/>
						<rect x="185.343" y="128.467" fill="#666666" width="22.84" height="2.724"/>
					</g>
					
						<line fill="none" stroke="#000000" stroke-width="4.4323" stroke-miterlimit="10" x1="112.219" y1="197.832" x2="145.457" y2="197.832"/>
				</g>
			</g>
		</g>
		<g id="圖層_2_1_">
			<circle fill="#1A1A1A" cx="185.343" cy="81.962" r="24.342"/>
			<circle fill="#1A1A1A" cx="166.43" cy="63.43" r="24.343"/>
			<path fill="#1A1A1A" d="M135.326,24.997c13.44,0,24.34,10.9,24.34,24.344c0,13.443-10.899,24.341-24.34,24.341
				c-13.445,0-24.344-10.898-24.344-24.341C110.982,35.896,121.881,24.997,135.326,24.997z"/>
			<circle fill="#1A1A1A" cx="101.957" cy="47.782" r="24.343"/>
			<circle fill="#1A1A1A" cx="76.052" cy="63.348" r="24.343"/>
			<circle fill="#1A1A1A" cx="59.723" cy="80.157" r="24.342"/>
		</g>
		<g id="圖層_3">
			
				<linearGradient id="SVGID_4_" gradientUnits="userSpaceOnUse" x1="543.6191" y1="805.1416" x2="569.1387" y2="805.1416" gradientTransform="matrix(1 0 0 1 -473.3203 -716.9199)">
				<stop  offset="0" style="stop-color:#333333"/>
				<stop  offset="0.2908" style="stop-color:#454545"/>
				<stop  offset="0.503" style="stop-color:#4C4C4C"/>
				<stop  offset="0.6319" style="stop-color:#474747"/>
				<stop  offset="0.794" style="stop-color:#373737"/>
				<stop  offset="0.9733" style="stop-color:#1D1D1D"/>
				<stop  offset="1" style="stop-color:#191919"/>
			</linearGradient>
			<path fill="url(#SVGID_4_)" d="M70.298,74.637c0,0,20.818,5.188,25.52,27.169"/>
			
				<linearGradient id="SVGID_5_" gradientUnits="userSpaceOnUse" x1="906.9277" y1="-184.5449" x2="932.4482" y2="-184.5449" gradientTransform="matrix(0.3179 0.9481 -0.9481 0.3179 -316.0094 -728.3614)">
				<stop  offset="0" style="stop-color:#333333"/>
				<stop  offset="0.2908" style="stop-color:#454545"/>
				<stop  offset="0.503" style="stop-color:#4C4C4C"/>
				<stop  offset="0.6319" style="stop-color:#474747"/>
				<stop  offset="0.794" style="stop-color:#373737"/>
				<stop  offset="0.9733" style="stop-color:#1D1D1D"/>
				<stop  offset="1" style="stop-color:#191919"/>
			</linearGradient>
			<path fill="url(#SVGID_5_)" d="M160.152,68.51c0,0,1.7,21.391-17.651,32.835"/>
			
				<linearGradient id="SVGID_6_" gradientUnits="userSpaceOnUse" x1="650.4521" y1="713.123" x2="680.9482" y2="713.123" gradientTransform="matrix(0.989 0.1482 -0.1482 0.989 -457.2222 -725.5892)">
				<stop  offset="0" style="stop-color:#333333"/>
				<stop  offset="0.2908" style="stop-color:#454545"/>
				<stop  offset="0.503" style="stop-color:#4C4C4C"/>
				<stop  offset="0.6319" style="stop-color:#474747"/>
				<stop  offset="0.794" style="stop-color:#373737"/>
				<stop  offset="0.9733" style="stop-color:#1D1D1D"/>
				<stop  offset="1" style="stop-color:#191919"/>
			</linearGradient>
			<path fill="url(#SVGID_6_)" d="M83.284,56.771c0,0,29.1,16.17,24.36,43.148"/>
			
				<linearGradient id="SVGID_7_" gradientUnits="userSpaceOnUse" x1="603.3301" y1="789.2393" x2="613.9629" y2="789.2393" gradientTransform="matrix(1 0 0 1 -473.3203 -716.9199)">
				<stop  offset="0" style="stop-color:#333333"/>
				<stop  offset="0.2908" style="stop-color:#454545"/>
				<stop  offset="0.503" style="stop-color:#4C4C4C"/>
				<stop  offset="0.6319" style="stop-color:#474747"/>
				<stop  offset="0.794" style="stop-color:#373737"/>
				<stop  offset="0.9733" style="stop-color:#1D1D1D"/>
				<stop  offset="1" style="stop-color:#191919"/>
			</linearGradient>
			<path fill="url(#SVGID_7_)" d="M130.01,47.67c0,0,20.15,26.501,4.971,49.299"/>
			
				<linearGradient id="SVGID_8_" gradientUnits="userSpaceOnUse" x1="565.2754" y1="787.8613" x2="597.6465" y2="787.8613" gradientTransform="matrix(1 0 0 1 -473.3203 -716.9199)">
				<stop  offset="0" style="stop-color:#333333"/>
				<stop  offset="0.2908" style="stop-color:#454545"/>
				<stop  offset="0.503" style="stop-color:#4C4C4C"/>
				<stop  offset="0.6319" style="stop-color:#474747"/>
				<stop  offset="0.794" style="stop-color:#373737"/>
				<stop  offset="0.9733" style="stop-color:#1D1D1D"/>
				<stop  offset="1" style="stop-color:#191919"/>
			</linearGradient>
			<path fill="url(#SVGID_8_)" d="M91.955,40.286c0,0,37.49,24.218,31.779,61.312"/>
		</g>
	</g>
	<rect x="135.781" y="149.176" width="39.24" height="11.59"/>
	<rect x="135.781" y="160.474" fill="#C7B299" width="39.24" height="3.063"/>
	<rect x="82.653" y="160.474" fill="#C7B299" width="39.24" height="3.063"/>
	<rect x="82.653" y="149.176" width="39.24" height="11.59"/>
</g>
<g id="圖層_4" display="none">
	<path display="inline" fill="#FFFFFF" d="M127.75,238.646c-61.148,0-110.896-49.748-110.896-110.896S66.602,16.854,127.75,16.854
		S238.646,66.602,238.646,127.75S188.898,238.646,127.75,238.646z M127.75,27.146c-55.473,0-100.604,45.131-100.604,100.604
		c0,55.474,45.131,100.604,100.604,100.604c55.474,0,100.604-45.13,100.604-100.604C228.354,72.277,183.224,27.146,127.75,27.146z"
		/>
</g>
</svg>
