<?xml version="1.0" encoding="utf-8"?>
<!-- Generator: Adobe Illustrator 15.0.0, SVG Export Plug-In . SVG Version: 6.00 Build 0)  -->
<!DOCTYPE svg PUBLIC "-//W3C//DTD SVG 1.1//EN" "http://www.w3.org/Graphics/SVG/1.1/DTD/svg11.dtd">
<svg version="1.1" id="圖層_1" xmlns="http://www.w3.org/2000/svg" xmlns:xlink="http://www.w3.org/1999/xlink" x="0px" y="0px"
	 width="50px" height="40px" viewBox="0 0 50 40" enable-background="new 0 0 50 40" xml:space="preserve">
<g id="圖層_1_4_">
	<g id="圖層_3_1_">
		<rect x="18.542" y="10.583" fill="#FFFFFF" width="12.917" height="20.5"/>
	</g>
	<g id="圖層_1_3_">
		<g id="圖層_3" display="none">
			<rect x="-20.75" y="-6.625" display="inline" fill="#88C941" width="72.25" height="49.375"/>
		</g>
		<g id="圖層_2" display="none">
			<rect x="14.438" y="14.938" display="inline" fill="#88C941" width="20.875" height="8.938"/>
		</g>
		<g id="圖層_1_2_">
			<g id="圖層_1_1_">
			</g>
			<g id="_x30_1">
				<g>
					<ellipse fill="#FFFFFF" cx="22.615" cy="73.322" rx="15.71" ry="10.865"/>
					<g>
						<g>
							<circle fill="#88C941" cx="27.619" cy="72.621" r="2.42"/>
							<path fill="#999999" d="M27.619,70.898c1.219,0,2.223,0.898,2.393,2.072c0.021-0.115,0.027-0.23,0.027-0.352
								c0-1.336-1.084-2.419-2.42-2.419s-2.42,1.083-2.42,2.419c0,0.119,0.012,0.232,0.027,0.352
								C25.397,71.799,26.4,70.898,27.619,70.898z"/>
						</g>
					</g>
					<circle fill="#88C941" cx="17.104" cy="72.621" r="2.42"/>
					<path fill="#999999" d="M17.104,70.898c1.218,0,2.222,0.898,2.392,2.072c0.016-0.115,0.028-0.23,0.028-0.352
						c0-1.336-1.083-2.419-2.42-2.419s-2.42,1.083-2.42,2.419c0,0.119,0.012,0.232,0.028,0.352
						C14.882,71.799,15.887,70.898,17.104,70.898z"/>
					<polygon fill="#FFFFFF" points="28.234,82.206 33.563,76.384 35.941,83.908 					"/>
				</g>
			</g>
			<g id="_x30_1_1_">
				<g>
					<ellipse fill="#88C941" cx="67.615" cy="73.322" rx="15.711" ry="10.865"/>
					<g>
						<g>
							<circle fill="#FFFFFF" cx="72.619" cy="72.621" r="2.42"/>
							<path fill="#5C822B" d="M72.619,70.898c1.219,0,2.223,0.898,2.393,2.072c0.021-0.115,0.027-0.23,0.027-0.352
								c0-1.336-1.084-2.419-2.42-2.419s-2.42,1.083-2.42,2.419c0,0.119,0.012,0.232,0.027,0.352
								C70.398,71.799,71.402,70.898,72.619,70.898z"/>
						</g>
					</g>
					<circle fill="#FFFFFF" cx="62.105" cy="72.621" r="2.42"/>
					<path fill="#5C822B" d="M62.105,70.898c1.217,0,2.221,0.898,2.391,2.072c0.018-0.115,0.029-0.23,0.029-0.352
						c0-1.336-1.084-2.419-2.42-2.419c-1.338,0-2.422,1.083-2.422,2.419c0,0.119,0.014,0.232,0.027,0.352
						C59.883,71.799,60.887,70.898,62.105,70.898z"/>
					<polygon fill="#88C941" points="73.236,82.206 78.564,76.384 80.941,83.908 					"/>
				</g>
			</g>
			<g id="_x30_2" display="none">
				<g display="inline">
					<circle fill="#29ABE2" cx="22.818" cy="73.75" r="11.631"/>
					<circle fill="#CCCCCC" cx="22.818" cy="73.75" r="9.266"/>
					<path fill="#B3B3B3" d="M22.818,65.273c4.984,0,9.048,3.937,9.254,8.871c0.006-0.131,0.011-0.265,0.011-0.396
						c0-5.118-4.147-9.268-9.265-9.268s-9.265,4.147-9.265,9.268c0,0.131,0.004,0.266,0.009,0.396
						C13.769,69.21,17.832,65.273,22.818,65.273z"/>
					<g>
						<rect x="22.818" y="73.98" fill="#999999" width="7.885" height="0.918"/>
						<rect x="22.818" y="73.391" fill="#F6F5F1" width="7.885" height="0.916"/>
					</g>
					<g>
						
							<rect x="17.696" y="72.308" transform="matrix(0.7902 0.6128 -0.6128 0.7902 48.9435 2.7082)" fill="#999999" width="5.64" height="1.07"/>
						
							<rect x="17.704" y="71.71" transform="matrix(0.7902 0.6128 -0.6128 0.7902 48.578 2.5777)" fill="#F6F5F1" width="5.64" height="1.069"/>
					</g>
					
						<rect x="21.596" y="70.82" transform="matrix(-0.7072 0.707 -0.707 -0.7072 93.8566 103.2892)" fill="#29ABE2" width="7.885" height="0.522"/>
					<g>
						<circle fill="#999999" cx="22.817" cy="74.342" r="1.577"/>
						<circle fill="#F6F5F1" cx="22.817" cy="73.75" r="1.577"/>
					</g>
				</g>
			</g>
			<g id="_x30_3" display="none">
				<g display="inline">
					<path fill="#78C779" d="M33.741,68.563h0.079c-0.266-0.558-0.571-1.092-0.916-1.599l-0.035,0.063
						c-3.506-5.25-10.528-6.953-16.08-3.76c-1.619,0.931-2.939,2.178-3.931,3.619l0.031,0.063c-0.341,0.5-0.645,1.025-0.909,1.574
						h-0.068c-1.659,3.472-1.641,7.67,0.422,11.258c2.085,3.626,5.763,5.762,9.643,6.035l-6.108-12.689l6.114,12.682
						c0.301,0.021,0.604,0.037,0.91,0.037c0.287,0,0.57-0.016,0.85-0.033l0.001,0.002c1.744-0.133,3.486-0.646,5.105-1.578
						C34.361,81.064,36.432,74.21,33.741,68.563z"/>
					
						<line fill="none" stroke="#78C779" stroke-width="0.1948" stroke-miterlimit="10" x1="23.055" y1="73.463" x2="22.728" y2="74.036"/>
					<path fill="#F56363" d="M32.904,66.964l-0.035,0.063c-3.506-5.25-10.528-6.953-16.08-3.76
						c-1.619,0.931-2.939,2.178-3.931,3.617l0.945,1.645l9.062,15.758l9.115-15.727l1.762,0.004h0.078
						C33.555,68.005,33.249,67.471,32.904,66.964z"/>
					<path fill="#C64444" d="M23.254,83.117l-9.061-15.758l-0.731-1.271c-0.211,0.26-0.415,0.523-0.604,0.797l0.945,1.643
						l9.062,15.76"/>
					<path fill="#FFD403" d="M33.741,68.563l-1.763-0.002l-9.087-0.017v5.492h5.914l-5.938,10.249l-0.882,1.523
						c0.301,0.021,0.604,0.031,0.91,0.031c0.287,0,0.57-0.014,0.85-0.027h0.001c1.744-0.133,3.486-0.646,5.104-1.576
						C34.361,81.064,36.432,74.21,33.741,68.563z"/>
					<g>
						<path fill="#D89000" d="M23.07,69.518l10.87,0.019l0.211,0.001c-0.121-0.328-0.258-0.652-0.407-0.975l-1.763-0.002
							l-9.087-0.017v5.492h0.178L23.07,69.518L23.07,69.518z"/>
					</g>
					<path fill="#78C779" d="M18.334,76.407l-4.531-7.88l-0.911-1.584c-0.342,0.502-0.647,1.029-0.913,1.582h-0.068
						c-1.659,3.47-1.641,7.67,0.422,11.256c2.085,3.626,5.763,5.762,9.643,6.035l0.888-1.531l4.566-7.878H18.334z"/>
					<g>
						<path fill="#4C894C" d="M26.262,76.407l-4.566,7.878l-0.812,1.4c0.362,0.059,0.726,0.104,1.092,0.131l0.888-1.531l4.566-7.878
							H26.262L26.262,76.407z"/>
					</g>
					<rect x="23.055" y="73.165" fill="#FFD403" width="7.712" height="3.242"/>
					<circle fill="#338E33" cx="22.891" cy="74.334" r="5.212"/>
					<circle fill="#F6F6F6" cx="22.891" cy="73.75" r="5.212"/>
					<circle fill="#5CAFE0" cx="22.892" cy="73.75" r="4.432"/>
				</g>
			</g>
			<g id="_x30_4" display="none">
				<g display="inline">
					<path fill="#9E5F3C" d="M25.033,66.786c0,0-1.329-0.71-0.518-2.49s1.063-2.44,1.063-2.44s1.133-1.854,3.262-0.939l2.002,0.818
						c0,0,0.625,0.632,1.098,2.263s0.687,12.831-10.979,22.155c0,0-2.598,2.225-4.621,1.334c-2.022-0.889-2.52-1.334-2.52-1.334
						s-1.182-0.651-0.25-2.106c0.933-1.456,1.579-2.47,1.579-2.47l0,0c0,0,1.197-1.977,3.27-0.727l1.528,0.606
						c0,0,0.963,0.661,1.991-0.853c0.448-0.66,1.51-2.492,2.598-4.443c1.396-2.516,2.837-5.227,3.057-5.881
						c0.347-1.039-0.344-1.787-0.948-2.34C25.852,67.23,25.033,66.786,25.033,66.786z"/>
					<path fill="#E38B55" d="M24.815,66.627c0,0-1.347-1.367-0.535-3.146c0.812-1.777,1.063-2.438,1.063-2.438
						s1.132-1.854,3.263-0.938l2.004,0.817c0,0,0.623,0.63,1.095,2.263c0.471,1.631,0.685,12.832-10.979,22.156
						c0,0-2.598,2.225-4.621,1.333c-2.023-0.889-2.57-0.756-2.57-0.756s-1.132-1.229-0.199-2.688
						c0.932-1.457,1.579-2.474,1.579-2.474l0,0c0,0,1.196-1.974,3.269-0.722l1.528,0.605c0,0,0.964,0.657,1.991-0.854
						c0.449-0.66,1.512-2.493,2.598-4.445c1.399-2.515,2.839-5.227,3.06-5.882c0.346-1.038-0.344-1.787-0.949-2.339
						C25.616,66.415,24.815,66.627,24.815,66.627z"/>
				</g>
			</g>
		</g>
		<g id="圖層_10">
			<path fill="#5C822B" d="M30,7.5H20c-1.657,0-3,1.343-3,3v19c0,1.657,1.343,3,3,3h10c1.657,0,3-1.343,3-3v-19
				C33,8.843,31.657,7.5,30,7.5z M27.412,30.5h-4.824C22.264,30.5,22,30.275,22,30s0.264-0.5,0.588-0.5h4.824
				C27.736,29.5,28,29.725,28,30S27.736,30.5,27.412,30.5z M31,27.5H19v-16h12V27.5z"/>
		</g>
	</g>
</g>
<g id="圖層_2_2_">
</g>
</svg>
