<?xml version="1.0" encoding="utf-8"?>
<!-- Generator: Adobe Illustrator 15.0.0, SVG Export Plug-In . SVG Version: 6.00 Build 0)  -->
<!DOCTYPE svg PUBLIC "-//W3C//DTD SVG 1.1//EN" "http://www.w3.org/Graphics/SVG/1.1/DTD/svg11.dtd">
<svg version="1.1" id="圖層_1" xmlns="http://www.w3.org/2000/svg" xmlns:xlink="http://www.w3.org/1999/xlink" x="0px" y="0px"
	 width="50px" height="40px" viewBox="0 0 50 40" enable-background="new 0 0 50 40" xml:space="preserve">
<g id="圖層_1_3_">
	<g id="_x30_1" display="none">
		<g display="inline">
			<ellipse fill="#88C941" cx="25" cy="19.572" rx="15.71" ry="10.865"/>
			<g>
				<g>
					<circle fill="#FFFFFF" cx="30.004" cy="18.871" r="2.42"/>
					<path fill="#5C822B" d="M30.004,17.149c1.219,0,2.223,0.9,2.393,2.071c0.02-0.114,0.027-0.23,0.027-0.349
						c0-1.336-1.084-2.419-2.42-2.419s-2.42,1.083-2.42,2.419c0,0.119,0.012,0.235,0.027,0.349
						C27.782,18.049,28.786,17.149,30.004,17.149z"/>
				</g>
			</g>
			<circle fill="#FFFFFF" cx="19.489" cy="18.871" r="2.42"/>
			<path fill="#5C822B" d="M19.489,17.149c1.218,0,2.222,0.9,2.392,2.071c0.016-0.114,0.028-0.23,0.028-0.349
				c0-1.336-1.083-2.419-2.42-2.419c-1.337,0-2.42,1.083-2.42,2.419c0,0.119,0.012,0.235,0.028,0.349
				C17.267,18.049,18.272,17.149,19.489,17.149z"/>
			<polygon fill="#88C941" points="30.62,28.456 35.948,22.634 38.326,30.158 			"/>
		</g>
	</g>
	<g id="_x30_2" display="none">
		<g display="inline">
			<g>
				<circle fill="#29ABE2" cx="25.203" cy="20" r="11.631"/>
			</g>
			<circle fill="#CCCCCC" cx="25.203" cy="20" r="9.265"/>
			<path fill="#B3B3B3" d="M25.203,11.523c4.984,0,9.048,3.937,9.254,8.871c0.006-0.13,0.011-0.262,0.011-0.394
				c0-5.118-4.147-9.266-9.265-9.266c-5.118,0-9.265,4.148-9.265,9.266c0,0.131,0.004,0.263,0.009,0.394
				C16.154,15.46,20.217,11.523,25.203,11.523z"/>
			<g>
				<rect x="25.203" y="20.231" fill="#999999" width="7.885" height="0.917"/>
				<rect x="25.203" y="19.64" fill="#F6F5F1" width="7.885" height="0.917"/>
			</g>
			<g>
				
					<rect x="20.086" y="18.553" transform="matrix(-0.7903 -0.6127 0.6127 -0.7903 29.3101 48.2074)" fill="#999999" width="5.638" height="1.071"/>
				
					<rect x="20.087" y="17.963" transform="matrix(-0.7904 -0.6126 0.6126 -0.7904 29.6796 47.1496)" fill="#F6F5F1" width="5.638" height="1.069"/>
			</g>
			
				<rect x="23.982" y="17.069" transform="matrix(0.7071 -0.7071 0.7071 0.7071 -4.0761 24.8205)" fill="#29ABE2" width="7.885" height="0.523"/>
			<g>
				<circle fill="#999999" cx="25.202" cy="20.592" r="1.577"/>
				<circle fill="#F6F5F1" cx="25.202" cy="20" r="1.577"/>
			</g>
		</g>
	</g>
	<g id="_x30_3" display="none">
		<g display="inline">
			<path fill="#78C779" d="M36.126,14.813h0.079c-0.266-0.558-0.571-1.092-0.916-1.599l-0.035,0.063
				c-3.506-5.249-10.528-6.953-16.08-3.76c-1.619,0.931-2.939,2.178-3.931,3.62l0.031,0.063c-0.341,0.5-0.645,1.026-0.909,1.576
				h-0.068c-1.659,3.47-1.641,7.669,0.422,11.256c2.085,3.626,5.763,5.762,9.643,6.036l-6.108-12.69l6.114,12.681
				c0.301,0.021,0.604,0.037,0.91,0.037c0.287,0,0.57-0.015,0.85-0.033l0.001,0.002c1.744-0.133,3.487-0.646,5.105-1.578
				C36.747,27.314,38.816,20.46,36.126,14.813z"/>
			
				<line fill="none" stroke="#78C779" stroke-width="0.1948" stroke-miterlimit="10" x1="25.44" y1="19.713" x2="25.113" y2="20.286"/>
			<path fill="#F56363" d="M35.289,13.214l-0.035,0.063c-3.506-5.249-10.528-6.953-16.08-3.76c-1.619,0.931-2.939,2.178-3.931,3.62
				l0.945,1.643l9.062,15.757l9.115-15.726l1.762,0.003h0.079C35.939,14.255,35.634,13.721,35.289,13.214z"/>
			<path fill="#C64444" d="M25.639,29.367l-9.061-15.758l-0.731-1.271c-0.211,0.259-0.415,0.523-0.604,0.797l0.945,1.643
				l9.062,15.757"/>
			<path fill="#FFD403" d="M36.126,14.813l-1.763-0.003l-9.087-0.016v5.492h5.914L25.25,30.535l-0.882,1.523
				c0.301,0.021,0.604,0.032,0.91,0.032c0.287,0,0.57-0.014,0.85-0.028h0.001c1.744-0.133,3.487-0.646,5.105-1.576
				C36.747,27.314,38.816,20.46,36.126,14.813z"/>
			<g>
				<path fill="#D89000" d="M25.455,15.768l10.869,0.016l0.212,0.001c-0.122-0.328-0.259-0.652-0.409-0.972l-1.762-0.003
					l-9.088-0.016v5.492h0.178V15.768z"/>
			</g>
			<path fill="#78C779" d="M20.719,22.657l-4.531-7.879l-0.911-1.584c-0.342,0.501-0.647,1.029-0.913,1.581h-0.068
				c-1.659,3.47-1.641,7.67,0.422,11.256c2.085,3.626,5.763,5.762,9.643,6.035l0.888-1.531l4.565-7.878H20.719z"/>
			<g>
				<path fill="#4C894C" d="M28.646,22.657l-4.566,7.878l-0.812,1.4c0.362,0.059,0.726,0.104,1.092,0.131l0.888-1.531l4.566-7.878
					H28.646L28.646,22.657z"/>
			</g>
			<rect x="25.44" y="19.415" fill="#FFD403" width="7.712" height="3.242"/>
			<circle fill="#338E33" cx="25.276" cy="20.584" r="5.212"/>
			<circle fill="#F6F6F6" cx="25.276" cy="20" r="5.212"/>
			<circle fill="#5CAFE0" cx="25.277" cy="20" r="4.432"/>
		</g>
	</g>
	<g id="_x30_4" display="none">
		<g display="inline">
			<path fill="#9E5F3C" d="M27.418,13.036c0,0-1.329-0.71-0.518-2.49c0.812-1.78,1.063-2.441,1.063-2.441s1.133-1.854,3.262-0.941
				l2.002,0.82c0,0,0.625,0.63,1.099,2.261c0.471,1.631,0.685,12.831-10.979,22.157c0,0-2.598,2.223-4.621,1.334
				c-2.022-0.889-2.52-1.334-2.52-1.334s-1.182-0.653-0.25-2.108c0.933-1.456,1.579-2.47,1.579-2.47l0,0c0,0,1.197-1.975,3.27-0.725
				l1.528,0.605c0,0,0.963,0.661,1.991-0.854c0.448-0.66,1.51-2.492,2.598-4.442c1.396-2.515,2.837-5.227,3.058-5.881
				c0.346-1.039-0.345-1.787-0.949-2.339C28.236,13.48,27.418,13.036,27.418,13.036z"/>
			<path fill="#E38B55" d="M27.2,12.877c0,0-1.347-1.367-0.535-3.146c0.812-1.78,1.063-2.441,1.063-2.441s1.131-1.853,3.262-0.941
				l2.004,0.82c0,0,0.623,0.63,1.094,2.261c0.471,1.631,0.684,12.832-10.979,22.158c0,0-2.598,2.223-4.621,1.333
				c-2.023-0.889-2.57-0.756-2.57-0.756s-1.132-1.229-0.199-2.687c0.932-1.457,1.579-2.475,1.579-2.475l0,0
				c0,0,1.196-1.975,3.269-0.722l1.528,0.604c0,0,0.964,0.659,1.991-0.852c0.449-0.66,1.512-2.493,2.598-4.445
				c1.399-2.515,2.838-5.227,3.059-5.882c0.346-1.038-0.344-1.787-0.949-2.339C28.001,12.665,27.2,12.877,27.2,12.877z"/>
		</g>
	</g>
	<g id="_x30_5">
	</g>
	<g id="圖層_7" display="none">
		<path display="inline" fill="#CCCCCC" d="M-1005.069,2644h1.509c0,0-80.517-26.666-94.183-254.667
			c-0.025-0.416-0.257-0.821-0.257-1.232V2384h0.117c-5.29-86.63-6.264-61.219-5.541,0h-372.348c0.723-61.219-0.251-86.63-5.541,0
			H-1488v68.206c-23,170.22-87.635,191.794-87.635,191.794h0.435c-3.793,1.733-6.8,5.554-6.8,9.997v0.006
			c0,6.073,5.289,10.997,11.362,10.997h561.007c6.073,0,10.631-4.924,10.631-10.997v-0.006
			C-999,2649.554-1001.276,2645.733-1005.069,2644z M-1097.589,2643h-0.046v-1.644
			C-1097.616,2642.031-1097.601,2642.58-1097.589,2643z"/>
		<path display="inline" fill="#666666" d="M-1009.997,2660h-561.007c-4.068,0-7.612-2.216-9.514-5.5
			c-0.938,1.618-1.482,3.492-1.482,5.497v0.006c0,6.073,4.923,10.997,10.997,10.997h561.007c6.073,0,10.997-4.924,10.997-10.997
			v-0.006c0-2.005-0.545-3.879-1.482-5.497C-1002.384,2657.784-1005.928,2660-1009.997,2660z"/>
		<path display="inline" fill="#13202C" d="M-349,2195V1131c0-16.568-13.682-30-30.25-30h-1820c-16.568,0-29.75,13.432-29.75,30
			v1064H-349z"/>
		<path display="inline" fill="#ECF0F1" d="M-2230,2195v159c0,16.568,13.432,30,30,30h1820c16.568,0,30-13.432,30-30v-159H-2230z"/>
		<rect x="-2156" y="1172" display="inline" fill="#B3B3B3" width="1733" height="953"/>
		<path display="inline" fill="#13202C" d="M-1250,2298c0,16.568-13.432,30-30,30h-16c-16.568,0-30-13.432-30-30v-16
			c0-16.568,13.432-30,30-30h16c16.568,0,30,13.432,30,30V2298z"/>
		<g display="inline">
			<path fill="#CCCCCC" d="M2866.931,132h1.511c0,0-80.519-26.666-94.185-254.667c-0.022-0.416-0.257-0.821-0.257-1.233v-4.1h0.115
				c-5.289-86.63-6.266-61.219-5.541,0h-372.35c0.725-61.219-0.252-86.63-5.541,0H2384v68.206
				C2361,110.426,2296.365,132,2296.365,132h0.435c-3.794,1.734-6.8,5.555-6.8,9.997v0.006c0,6.073,5.289,10.997,11.361,10.997
				h561.008c6.072,0,10.631-4.924,10.631-10.997v-0.006C2873,137.555,2870.727,133.734,2866.931,132z M2774.411,131h-0.046v-1.643
				C2774.384,130.031,2774.398,130.58,2774.411,131z"/>
			<path fill="#666666" d="M2862.004,148h-561.008c-4.068,0-7.611-2.216-9.518-5.5c-0.938,1.618-1.479,3.492-1.479,5.497v0.006
				c0,6.073,4.924,10.997,10.996,10.997h561.008c6.072,0,10.996-4.924,10.996-10.997v-0.006c0-2.005-0.545-3.879-1.48-5.497
				C2869.615,145.784,2866.072,148,2862.004,148z"/>
			<path fill="#13202C" d="M3523-317v-1064c0-16.568-13.682-30-30.25-30h-1820c-16.568,0-29.75,13.432-29.75,30v1064H3523z"/>
			<path fill="#ECF0F1" d="M1642-317v159c0,16.568,13.432,30,30,30h1820c16.568,0,30-13.432,30-30v-159H1642z"/>
			<rect x="1716" y="-1340" fill="#B3B3B3" width="1733" height="953"/>
			<path fill="#13202C" d="M2622-214c0,16.568-13.432,30-30,30h-16c-16.568,0-30-13.432-30-30v-16c0-16.568,13.432-30,30-30h16
				c16.568,0,30,13.432,30,30V-214z"/>
		</g>
		<g display="inline">
			<path fill="#CCCCCC" d="M2866.931,2406h1.511c0,0-80.519-26.666-94.185-254.667c-0.022-0.416-0.257-0.821-0.257-1.232V2146h0.115
				c-5.289-86.63-6.266-61.219-5.541,0h-372.35c0.725-61.219-0.252-86.63-5.541,0H2384v68.206
				c-23,170.22-87.635,191.794-87.635,191.794h0.435c-3.794,1.733-6.8,5.554-6.8,9.997v0.006c0,6.073,5.289,10.997,11.361,10.997
				h561.008c6.072,0,10.631-4.924,10.631-10.997v-0.006C2873,2411.554,2870.727,2407.733,2866.931,2406z M2774.411,2405h-0.046
				v-1.644C2774.384,2404.031,2774.398,2404.58,2774.411,2405z"/>
			<path fill="#666666" d="M2862.004,2422h-561.008c-4.068,0-7.611-2.216-9.518-5.5c-0.938,1.618-1.479,3.492-1.479,5.497v0.006
				c0,6.073,4.924,10.997,10.996,10.997h561.008c6.072,0,10.996-4.924,10.996-10.997v-0.006c0-2.005-0.545-3.879-1.48-5.497
				C2869.615,2419.784,2866.072,2422,2862.004,2422z"/>
			<path fill="#13202C" d="M3523,1957V893c0-16.568-13.682-30-30.25-30h-1820c-16.568,0-29.75,13.432-29.75,30v1064H3523z"/>
			<path fill="#ECF0F1" d="M1642,1957v159c0,16.568,13.432,30,30,30h1820c16.568,0,30-13.432,30-30v-159H1642z"/>
			<rect x="1716" y="934" fill="#B3B3B3" width="1733" height="953"/>
			<path fill="#13202C" d="M2622,2060c0,16.568-13.432,30-30,30h-16c-16.568,0-30-13.432-30-30v-16c0-16.568,13.432-30,30-30h16
				c16.568,0,30,13.432,30,30V2060z"/>
		</g>
		<g display="inline">
			<path fill="#CCCCCC" d="M2866.931,4214h1.511c0,0-80.519-26.666-94.185-254.667c-0.022-0.416-0.257-0.821-0.257-1.232V3954h0.115
				c-5.289-86.63-6.266-61.219-5.541,0h-372.35c0.725-61.219-0.252-86.63-5.541,0H2384v68.206
				c-23,170.221-87.635,191.794-87.635,191.794h0.435c-3.794,1.733-6.8,5.556-6.8,9.997v0.006c0,6.073,5.289,10.997,11.361,10.997
				h561.008c6.072,0,10.631-4.924,10.631-10.997v-0.006C2873,4219.556,2870.727,4215.733,2866.931,4214z M2774.411,4213h-0.046
				v-1.644C2774.384,4212.03,2774.398,4212.58,2774.411,4213z"/>
			<path fill="#666666" d="M2862.004,4230h-561.008c-4.068,0-7.611-2.216-9.518-5.5c-0.938,1.618-1.479,3.492-1.479,5.497v0.006
				c0,6.073,4.924,10.997,10.996,10.997h561.008c6.072,0,10.996-4.924,10.996-10.997v-0.006c0-2.005-0.545-3.879-1.48-5.497
				C2869.615,4227.784,2866.072,4230,2862.004,4230z"/>
			<path fill="#13202C" d="M3523,3765V2701c0-16.568-13.682-30-30.25-30h-1820c-16.568,0-29.75,13.432-29.75,30v1064H3523z"/>
			<path fill="#ECF0F1" d="M1642,3765v159c0,16.568,13.432,30,30,30h1820c16.568,0,30-13.432,30-30v-159H1642z"/>
			<rect x="1716" y="2742" fill="#B3B3B3" width="1733" height="953"/>
			<path fill="#13202C" d="M2622,3868c0,16.568-13.432,30-30,30h-16c-16.568,0-30-13.432-30-30v-16c0-16.568,13.432-30,30-30h16
				c16.568,0,30,13.432,30,30V3868z"/>
		</g>
		<rect x="24" y="25" display="inline" fill="#4D4D4D" width="3" height="9"/>
		<rect x="23" y="31" display="inline" fill="#4D4D4D" width="5" height="3"/>
		<rect x="10" y="8" display="inline" fill="#13202C" width="31" height="17"/>
		<path display="inline" fill="#B3B3B3" d="M25.941,25h-0.884H10v2.604C10,27.872,10.233,28,10.369,28h14.868
			c0.048,0,0.151-0.021,0.264-0.059C25.611,27.979,25.716,28,25.764,28h14.868C40.768,28,41,27.872,41,27.604V25H25.941z"/>
		<path display="inline" fill="#13202C" d="M26.012,26.739c0,0.268-0.217,0.483-0.484,0.483H25.27c-0.269,0-0.485-0.22-0.485-0.483
			v-0.261c0-0.271,0.217-0.483,0.485-0.483h0.257c0.27,0,0.484,0.217,0.484,0.483V26.739L26.012,26.739z"/>
		<rect x="-853" y="565" display="inline" fill="#CCCCCC" width="390" height="270"/>
		<path display="inline" fill="#CCCCCC" d="M-941,825c0,0,80.334-26.666,94-254.667S-847,825-847,825H-941z"/>
		<path display="inline" fill="#CCCCCC" d="M-368.926,825c0,0-80.334-26.666-94-254.667s0,254.667,0,254.667H-368.926z"/>
		<path display="inline" fill="#CCCCCC" d="M-364,835.003c0,6.073-4.923,10.997-10.997,10.997h-561.007
			c-6.073,0-10.997-4.924-10.997-10.997v-0.006c0-6.073,4.923-10.997,10.997-10.997h561.007c6.073,0,10.997,4.924,10.997,10.997
			V835.003z"/>
		<path display="inline" fill="#4D4D4D" d="M31,33.439C31,33.749,30.882,34,30.736,34H20.264C20.118,34,20,33.749,20,33.439v-0.879
			C20,32.251,20.118,32,20.264,32h10.472C30.882,32,31,32.251,31,32.561V33.439z"/>
	</g>
	<g id="圖層_8" display="none">
		<g display="inline">
			<polygon fill="#10A7BC" points="11.925,10.092 25,29.908 30.923,23.557 			"/>
			<polygon fill="#10A7BC" points="11.925,10.092 38.075,16.608 33.885,20.921 			"/>
			<polygon fill="#34495E" points="33.885,20.921 33.579,28.016 30.82,23.557 11.925,10.092 			"/>
			<polygon fill="#8A7A7A" points="33.579,28.016 28.828,25.752 30.82,23.557 			"/>
		</g>
	</g>
	<g id="圖層_9" display="none">
		<path display="inline" fill="#4D4D4D" d="M33,12.517C33,10.022,30.979,8,28.484,8h-6.969C19.021,8,17,10.022,17,12.517v15.967
			C17,30.979,19.021,33,21.516,33h6.968C30.979,33,33,30.979,33,28.482V12.517z M25.727,8.992c0.5,0,0.906,0.417,0.906,0.932
			c0,0.515-0.406,0.933-0.906,0.933c-0.5,0-0.91-0.417-0.91-0.933C24.817,9.41,25.224,8.992,25.727,8.992z M27.117,31h-2.709
			c-0.375,0-0.678-0.125-0.678-0.5s0.303-0.5,0.678-0.5h2.709c0.374,0,0.677,0.125,0.677,0.5S27.491,31,27.117,31z M31,28H20V12h11
			V28z"/>
	</g>
	<g id="圖層_10">
		<rect x="18" y="-30" fill="#FFFFFF" width="14" height="22"/>
		<path fill="#E92E7D" d="M30-32H20c-1.657,0-3,1.343-3,3v19c0,1.657,1.343,3,3,3h10c1.657,0,3-1.343,3-3v-19
			C33-30.657,31.657-32,30-32z M27.412-9h-4.824C22.264-9,22-9.225,22-9.5s0.264-0.5,0.588-0.5h4.824C27.736-10,28-9.775,28-9.5
			S27.736-9,27.412-9z M31-12H19v-16h12V-12z"/>
		<rect x="-39" y="-31" fill="#E92E7D" width="14" height="22"/>
		<path fill="#ECD1CF" d="M-27-33h-10c-1.657,0-3,1.343-3,3v19c0,1.657,1.343,3,3,3h10c1.657,0,3-1.343,3-3v-19
			C-24-31.657-25.343-33-27-33z M-29.588-10h-4.824C-34.736-10-35-10.225-35-10.5s0.264-0.5,0.588-0.5h4.824
			C-29.264-11-29-10.775-29-10.5S-29.264-10-29.588-10z M-26-13h-12v-16h12V-13z"/>
	</g>
	<g id="圖層_1_2_">
		<g id="圖層_1_1_">
		</g>
		<g id="_x30_1_2_">
			<g>
				<ellipse fill="#FFFFFF" cx="-19.25" cy="18.322" rx="15.71" ry="10.865"/>
				<g>
					<g>
						<circle fill="#88C941" cx="-14.247" cy="17.621" r="2.42"/>
						<path fill="#999999" d="M-14.247,15.898c1.219,0,2.223,0.9,2.393,2.072c0.019-0.115,0.027-0.23,0.027-0.35
							c0-1.336-1.084-2.419-2.42-2.419s-2.42,1.083-2.42,2.419c0,0.119,0.012,0.234,0.027,0.35
							C-16.468,16.799-15.464,15.898-14.247,15.898z"/>
					</g>
				</g>
				<circle fill="#88C941" cx="-24.762" cy="17.621" r="2.42"/>
				<path fill="#999999" d="M-24.762,15.898c1.219,0,2.223,0.9,2.393,2.072c0.016-0.115,0.028-0.23,0.028-0.35
					c0-1.336-1.083-2.419-2.421-2.419c-1.336,0-2.42,1.083-2.42,2.419c0,0.119,0.013,0.234,0.029,0.35
					C-26.983,16.799-25.979,15.898-24.762,15.898z"/>
				<polygon fill="#FFFFFF" points="-13.63,27.206 -8.302,21.384 -5.924,28.908 				"/>
			</g>
		</g>
		<g id="_x30_1_1_">
			<g>
				<ellipse fill="#E5176B" cx="25.75" cy="18.322" rx="15.711" ry="10.865"/>
				<g>
					<g>
						<circle fill="#FFFFFF" cx="30.754" cy="17.621" r="2.42"/>
					</g>
				</g>
				<circle fill="#FFFFFF" cx="20.24" cy="17.621" r="2.42"/>
				<polygon fill="#E5176B" points="31.371,27.206 36.699,21.384 39.076,28.908 				"/>
			</g>
		</g>
		<g id="_x30_2_1_" display="none">
			<g display="inline">
				<circle fill="#29ABE2" cx="-19.047" cy="18.75" r="11.631"/>
				<circle fill="#CCCCCC" cx="-19.047" cy="18.75" r="9.266"/>
				<path fill="#B3B3B3" d="M-19.047,10.273c4.984,0,9.048,3.937,9.254,8.871c0.006-0.131,0.011-0.263,0.011-0.395
					c0-5.118-4.147-9.266-9.265-9.266c-5.118,0-9.266,4.147-9.266,9.266c0,0.131,0.004,0.264,0.01,0.395
					C-28.096,14.21-24.034,10.273-19.047,10.273z"/>
				<g>
					<rect x="-19.047" y="18.98" fill="#999999" width="7.885" height="0.918"/>
					<rect x="-19.047" y="18.391" fill="#F6F5F1" width="7.885" height="0.916"/>
				</g>
				<g>
					
						<rect x="-24.164" y="17.302" transform="matrix(0.7904 0.6126 -0.6126 0.7904 6.4528 16.8165)" fill="#999999" width="5.638" height="1.07"/>
					
						<rect x="-24.163" y="16.712" transform="matrix(0.7904 0.6126 -0.6126 0.7904 6.0913 16.6903)" fill="#F6F5F1" width="5.638" height="1.069"/>
				</g>
				
					<rect x="-20.267" y="15.82" transform="matrix(-0.7072 0.707 -0.707 -0.7072 -16.4996 38.9952)" fill="#29ABE2" width="7.885" height="0.523"/>
				<g>
					<circle fill="#999999" cx="-19.048" cy="19.342" r="1.577"/>
					<circle fill="#F6F5F1" cx="-19.048" cy="18.75" r="1.577"/>
				</g>
			</g>
		</g>
		<g id="_x30_3_1_" display="none">
			<g display="inline">
				<path fill="#78C779" d="M-8.125,13.563h0.079c-0.266-0.558-0.571-1.092-0.916-1.599l-0.035,0.063
					c-3.506-5.25-10.527-6.953-16.08-3.76c-1.619,0.931-2.939,2.178-3.931,3.619l0.03,0.063c-0.34,0.5-0.645,1.026-0.908,1.575
					h-0.068c-1.658,3.471-1.641,7.669,0.422,11.257c2.086,3.626,5.764,5.762,9.643,6.035l-6.107-12.689l6.114,12.682
					c0.301,0.021,0.604,0.037,0.909,0.037c0.287,0,0.57-0.016,0.851-0.033l0.001,0.002c1.744-0.133,3.487-0.646,5.105-1.578
					C-7.503,26.064-5.434,19.21-8.125,13.563z"/>
				
					<line fill="none" stroke="#78C779" stroke-width="0.1948" stroke-miterlimit="10" x1="-18.811" y1="18.463" x2="-19.137" y2="19.036"/>
				<path fill="#F56363" d="M-8.961,11.964l-0.035,0.063c-3.506-5.25-10.527-6.953-16.08-3.76c-1.619,0.931-2.939,2.178-3.931,3.619
					l0.944,1.643L-19,29.287l9.115-15.727l1.762,0.004h0.079C-8.311,13.005-8.617,12.471-8.961,11.964z"/>
				<path fill="#C64444" d="M-18.612,28.117l-9.061-15.758l-0.73-1.271c-0.211,0.26-0.416,0.523-0.604,0.797l0.944,1.643L-19,29.285
					"/>
				<path fill="#FFD403" d="M-8.125,13.563l-1.763-0.002l-9.088-0.017v5.492h5.914L-19,29.285l-0.882,1.523
					c0.301,0.021,0.604,0.031,0.909,0.031c0.287,0,0.57-0.014,0.851-0.027h0.001c1.744-0.133,3.487-0.646,5.105-1.576
					C-7.503,26.064-5.434,19.21-8.125,13.563z"/>
				<g>
					<path fill="#D89000" d="M-18.795,14.518l10.869,0.017l0.212,0.001c-0.122-0.328-0.259-0.652-0.409-0.973l-1.762-0.002
						l-9.088-0.017v5.492h0.178V14.518z"/>
				</g>
				<path fill="#78C779" d="M-23.532,21.407l-4.531-7.88l-0.91-1.584c-0.342,0.502-0.647,1.029-0.914,1.582h-0.067
					c-1.659,3.47-1.642,7.67,0.422,11.256c2.085,3.626,5.763,5.762,9.644,6.035L-19,29.285l4.565-7.878H-23.532L-23.532,21.407z"/>
				<g>
					<path fill="#4C894C" d="M-15.604,21.407l-4.566,7.878l-0.813,1.4c0.362,0.059,0.727,0.104,1.092,0.131l0.889-1.531l4.566-7.878
						H-15.604L-15.604,21.407z"/>
				</g>
				<rect x="-18.811" y="18.165" fill="#FFD403" width="7.713" height="3.242"/>
				<circle fill="#338E33" cx="-18.975" cy="19.334" r="5.212"/>
				<circle fill="#F6F6F6" cx="-18.975" cy="18.75" r="5.212"/>
				<circle fill="#5CAFE0" cx="-18.973" cy="18.75" r="4.432"/>
			</g>
		</g>
		<g id="_x30_4_1_" display="none">
			<g display="inline">
				<path fill="#9E5F3C" d="M-16.833,11.786c0,0-1.329-0.71-0.518-2.49c0.811-1.78,1.063-2.44,1.063-2.44s1.133-1.854,3.262-0.941
					l2.002,0.82c0,0,0.625,0.63,1.098,2.261c0.471,1.631,0.685,12.831-10.979,22.156c0,0-2.599,2.224-4.621,1.334
					c-2.022-0.889-2.521-1.334-2.521-1.334s-1.183-0.652-0.25-2.107c0.933-1.456,1.579-2.47,1.579-2.47l0,0
					c0,0,1.197-1.976,3.27-0.726l1.528,0.605c0,0,0.963,0.661,1.991-0.854c0.447-0.66,1.51-2.492,2.598-4.442
					c1.396-2.516,2.837-5.227,3.057-5.881c0.346-1.039-0.344-1.787-0.949-2.34C-16.014,12.23-16.833,11.786-16.833,11.786z"/>
				<path fill="#E38B55" d="M-17.05,11.627c0,0-1.347-1.367-0.535-3.146s1.063-2.44,1.063-2.44s1.131-1.853,3.262-0.94l2.004,0.819
					c0,0,0.623,0.63,1.094,2.261c0.471,1.631,0.684,12.833-10.979,22.158c0,0-2.598,2.224-4.621,1.333
					c-2.023-0.889-2.57-0.756-2.57-0.756s-1.132-1.229-0.199-2.688c0.932-1.457,1.579-2.475,1.579-2.475l0,0
					c0,0,1.196-1.975,3.269-0.722l1.529,0.604c0,0,0.963,0.658,1.99-0.853c0.449-0.66,1.512-2.493,2.598-4.445
					c1.399-2.515,2.838-5.227,3.058-5.882c0.346-1.038-0.343-1.787-0.949-2.339C-16.25,11.415-17.05,11.627-17.05,11.627z"/>
			</g>
		</g>
	</g>
</g>
</svg>
