<?xml version="1.0" encoding="utf-8"?>
<!-- Generator: Adobe Illustrator 15.0.0, SVG Export Plug-In . SVG Version: 6.00 Build 0)  -->
<!DOCTYPE svg PUBLIC "-//W3C//DTD SVG 1.1//EN" "http://www.w3.org/Graphics/SVG/1.1/DTD/svg11.dtd">
<svg version="1.1" id="圖層_1" xmlns="http://www.w3.org/2000/svg" xmlns:xlink="http://www.w3.org/1999/xlink" x="0px" y="0px"
	 width="50px" height="40px" viewBox="0 0 50 40" enable-background="new 0 0 50 40" xml:space="preserve">
<g id="圖層_2_1_" display="none">
	
		<rect x="-155.698" y="-127.695" display="inline" fill="#8A9723" stroke="#000000" stroke-miterlimit="10" width="384.038" height="375.037"/>
</g>
<g id="圖層_1_2_">
	<g id="圖層_2" display="none">
		<rect x="-4.5" y="-5.625" display="inline" fill="#AAAAAA" width="61" height="53.5"/>
	</g>
	<g id="圖層_1_1_">
		<g id="_x30_1" display="none">
			<g display="inline">
				<ellipse fill="#88C941" cx="25.5" cy="19.447" rx="15.71" ry="10.865"/>
				<g>
					<g>
						<circle fill="#FFFFFF" cx="30.504" cy="18.746" r="2.42"/>
						<path fill="#5C822B" d="M30.504,17.024c1.219,0,2.223,0.9,2.393,2.071c0.019-0.114,0.027-0.229,0.027-0.349
							c0-1.336-1.084-2.419-2.42-2.419s-2.42,1.083-2.42,2.419c0,0.119,0.012,0.235,0.027,0.349
							C28.282,17.924,29.286,17.024,30.504,17.024z"/>
					</g>
				</g>
				<circle fill="#FFFFFF" cx="19.989" cy="18.746" r="2.42"/>
				<path fill="#5C822B" d="M19.989,17.024c1.218,0,2.222,0.9,2.392,2.071c0.016-0.114,0.028-0.229,0.028-0.349
					c0-1.336-1.083-2.419-2.42-2.419c-1.337,0-2.42,1.083-2.42,2.419c0,0.119,0.012,0.235,0.028,0.349
					C17.767,17.924,18.772,17.024,19.989,17.024z"/>
				<polygon fill="#88C941" points="31.12,28.331 36.448,22.509 38.826,30.033 				"/>
			</g>
		</g>
		<g id="_x30_2" display="none">
			<g display="inline">
				<g>
					<circle fill="#29ABE2" cx="25.703" cy="19.875" r="11.631"/>
				</g>
				<circle fill="#CCCCCC" cx="25.703" cy="19.875" r="9.265"/>
				<path fill="#B3B3B3" d="M25.703,11.398c4.984,0,9.048,3.937,9.254,8.871c0.006-0.13,0.011-0.262,0.011-0.394
					c0-5.118-4.147-9.266-9.265-9.266c-5.118,0-9.265,4.148-9.265,9.266c0,0.131,0.004,0.263,0.009,0.394
					C16.654,15.335,20.717,11.398,25.703,11.398z"/>
				<g>
					<rect x="25.703" y="20.106" fill="#999999" width="7.885" height="0.917"/>
					<rect x="25.703" y="19.515" fill="#F6F5F1" width="7.885" height="0.917"/>
				</g>
				<g>
					
						<rect x="20.586" y="18.428" transform="matrix(0.7903 0.6127 -0.6127 0.7903 16.5263 -10.364)" fill="#999999" width="5.638" height="1.07"/>
					
						<rect x="20.587" y="17.838" transform="matrix(0.7904 0.6126 -0.6126 0.7904 16.1609 -10.4878)" fill="#F6F5F1" width="5.638" height="1.069"/>
				</g>
				
					<rect x="24.481" y="16.945" transform="matrix(-0.7071 0.7071 -0.7071 -0.7071 60.6896 9.2741)" fill="#29ABE2" width="7.885" height="0.523"/>
				<g>
					<circle fill="#999999" cx="25.702" cy="20.467" r="1.577"/>
					<circle fill="#F6F5F1" cx="25.702" cy="19.875" r="1.577"/>
				</g>
			</g>
		</g>
		<g id="_x30_3" display="none">
			<g display="inline">
				<path fill="#78C779" d="M36.626,14.688h0.079c-0.266-0.558-0.571-1.092-0.916-1.599l-0.035,0.063
					c-3.506-5.249-10.528-6.953-16.08-3.76c-1.619,0.931-2.939,2.178-3.931,3.62l0.031,0.063c-0.341,0.5-0.645,1.026-0.909,1.576
					h-0.068c-1.659,3.47-1.641,7.669,0.422,11.256c2.085,3.626,5.763,5.762,9.643,6.036l-6.108-12.69l6.114,12.681
					c0.301,0.021,0.604,0.037,0.909,0.037c0.287,0,0.57-0.015,0.851-0.033l0.001,0.002c1.744-0.133,3.487-0.646,5.105-1.578
					C37.247,27.189,39.316,20.335,36.626,14.688z"/>
				
					<line fill="none" stroke="#78C779" stroke-width="0.1948" stroke-miterlimit="10" x1="25.939" y1="19.588" x2="25.613" y2="20.161"/>
				<path fill="#F56363" d="M35.789,13.089l-0.035,0.063c-3.506-5.249-10.528-6.953-16.08-3.76c-1.619,0.931-2.939,2.178-3.931,3.62
					l0.945,1.643l9.062,15.757l9.115-15.726l1.762,0.003h0.079C36.439,14.13,36.134,13.596,35.789,13.089z"/>
				<path fill="#C64444" d="M26.139,29.242l-9.061-15.758l-0.731-1.271c-0.211,0.259-0.415,0.523-0.604,0.797l0.945,1.643
					L25.75,30.41"/>
				<path fill="#FFD403" d="M36.626,14.688l-1.763-0.003l-9.088-0.016v5.492h5.914L25.75,30.41l-0.882,1.523
					c0.301,0.021,0.604,0.033,0.909,0.033c0.287,0,0.57-0.014,0.851-0.029h0.001c1.744-0.133,3.487-0.646,5.105-1.576
					C37.247,27.189,39.316,20.335,36.626,14.688z"/>
				<g>
					<path fill="#D89000" d="M25.955,15.643l10.869,0.016l0.212,0.001c-0.122-0.328-0.259-0.652-0.409-0.972l-1.762-0.003
						l-9.088-0.016v5.492h0.178V15.643z"/>
				</g>
				<path fill="#78C779" d="M21.219,22.532l-4.531-7.879l-0.911-1.584c-0.342,0.501-0.647,1.029-0.913,1.581h-0.068
					c-1.659,3.47-1.641,7.67,0.422,11.256c2.085,3.626,5.763,5.762,9.643,6.035l0.888-1.531l4.565-7.878H21.219z"/>
				<g>
					<path fill="#4C894C" d="M29.146,22.532L24.58,30.41l-0.812,1.4c0.362,0.059,0.726,0.104,1.092,0.131l0.888-1.531l4.566-7.878
						H29.146L29.146,22.532z"/>
				</g>
				<rect x="25.939" y="19.29" fill="#FFD403" width="7.713" height="3.242"/>
				<circle fill="#338E33" cx="25.775" cy="20.459" r="5.212"/>
				<circle fill="#F6F6F6" cx="25.775" cy="19.875" r="5.212"/>
				<circle fill="#5CAFE0" cx="25.777" cy="19.875" r="4.432"/>
			</g>
		</g>
		<g id="_x30_4" display="none">
			<g display="inline">
				<path fill="#9E5F3C" d="M27.918,12.911c0,0-1.329-0.71-0.518-2.49c0.812-1.78,1.063-2.441,1.063-2.441s1.133-1.854,3.262-0.941
					l2.002,0.82c0,0,0.625,0.63,1.098,2.261c0.471,1.631,0.685,12.831-10.979,22.157c0,0-2.598,2.223-4.621,1.334
					c-2.022-0.889-2.52-1.334-2.52-1.334s-1.182-0.653-0.25-2.108c0.933-1.456,1.579-2.47,1.579-2.47l0,0
					c0,0,1.197-1.975,3.27-0.725l1.528,0.606c0,0,0.963,0.661,1.991-0.853c0.448-0.66,1.51-2.492,2.598-4.443
					c1.396-2.515,2.837-5.227,3.057-5.881c0.346-1.039-0.344-1.787-0.949-2.339C28.736,13.355,27.918,12.911,27.918,12.911z"/>
				<path fill="#E38B55" d="M27.7,12.752c0,0-1.347-1.367-0.535-3.146c0.812-1.78,1.063-2.441,1.063-2.441s1.131-1.853,3.262-0.941
					l2.004,0.82c0,0,0.623,0.63,1.094,2.261c0.471,1.631,0.684,12.832-10.979,22.158c0,0-2.598,2.223-4.621,1.333
					c-2.023-0.889-2.57-0.756-2.57-0.756s-1.132-1.229-0.199-2.687c0.932-1.457,1.579-2.474,1.579-2.474l0,0
					c0,0,1.196-1.974,3.269-0.722l1.528,0.605c0,0,0.964,0.659,1.991-0.852c0.449-0.66,1.512-2.493,2.598-4.445
					c1.399-2.515,2.838-5.227,3.058-5.882c0.346-1.038-0.343-1.787-0.949-2.339C28.501,12.54,27.7,12.752,27.7,12.752z"/>
			</g>
		</g>
		<g id="_x30_5">
		</g>
		<g id="圖層_7">
			<rect x="24.5" y="23.875" fill="#4D4D4D" width="3" height="9"/>
			<rect x="23.5" y="29.875" fill="#4D4D4D" width="5" height="3"/>
			<rect x="10.5" y="7.875" fill="#666666" width="31" height="17"/>
			<path fill="#F2F2F2" d="M26.441,24.875h-0.885H10.5v2.604c0,0.269,0.233,0.396,0.369,0.396h14.867
				c0.049,0,0.152-0.021,0.265-0.059c0.11,0.037,0.215,0.059,0.263,0.059h14.868c0.136,0,0.368-0.128,0.368-0.396v-2.604H26.441z"/>
			<path fill="#333333" d="M26.512,26.614c0,0.268-0.217,0.483-0.484,0.483H25.77c-0.269,0-0.484-0.219-0.484-0.483v-0.261
				c0-0.27,0.217-0.483,0.484-0.483h0.258c0.27,0,0.484,0.217,0.484,0.483V26.614L26.512,26.614z"/>
			<path fill="#4D4D4D" d="M31.5,32.314c0,0.31-0.118,0.561-0.264,0.561H20.764c-0.146,0-0.264-0.251-0.264-0.561v-0.879
				c0-0.31,0.118-0.561,0.264-0.561h10.472c0.146,0,0.264,0.251,0.264,0.561V32.314z"/>
		</g>
		<g id="圖層_7_1_">
			<rect x="75" y="23.875" fill="#4D4D4D" width="3" height="9"/>
			<rect x="74" y="29.875" fill="#4D4D4D" width="5" height="3"/>
			<rect x="61" y="7.875" fill="#13202C" width="31" height="17"/>
			<path fill="#B3B3B3" d="M76.941,24.875h-0.885H61v2.604c0,0.271,0.232,0.396,0.369,0.396h14.867c0.049,0,0.152-0.021,0.265-0.059
				c0.11,0.037,0.215,0.059,0.263,0.059h14.868c0.136,0,0.368-0.128,0.368-0.396v-2.604H76.941z"/>
			<path fill="#13202C" d="M77.012,26.614c0,0.268-0.217,0.483-0.484,0.483H76.27c-0.27,0-0.483-0.219-0.483-0.483v-0.261
				c0-0.27,0.217-0.483,0.483-0.483h0.258c0.271,0,0.484,0.217,0.484,0.483V26.614z"/>
			<path fill="#4D4D4D" d="M82,32.314c0,0.31-0.118,0.561-0.264,0.561H71.264c-0.146,0-0.264-0.251-0.264-0.561v-0.879
				c0-0.312,0.118-0.563,0.264-0.563h10.473c0.146,0,0.266,0.251,0.266,0.563L82,32.314L82,32.314z"/>
		</g>
		<g id="圖層_8" display="none">
			<g display="inline">
				<polygon fill="#10A7BC" points="12.425,9.967 25.5,29.783 31.423,23.432 				"/>
				<polygon fill="#10A7BC" points="12.425,9.967 38.575,16.483 34.385,20.796 				"/>
				<polygon fill="#34495E" points="34.385,20.796 34.079,27.891 31.32,23.432 12.425,9.967 				"/>
				<polygon fill="#8A7A7A" points="34.079,27.891 29.328,25.627 31.32,23.432 				"/>
			</g>
		</g>
		<g id="圖層_9" display="none">
			<path display="inline" fill="#4D4D4D" d="M33.5,12.392c0-2.495-2.021-4.517-4.516-4.517h-6.969c-2.494,0-4.515,2.022-4.515,4.517
				v15.967c0,2.494,2.021,4.516,4.516,4.516h6.968c2.494,0,4.516-2.021,4.516-4.518V12.392z M26.227,8.867
				c0.5,0,0.906,0.417,0.906,0.932c0,0.515-0.406,0.933-0.906,0.933s-0.91-0.417-0.91-0.933C25.317,9.285,25.725,8.867,26.227,8.867
				z M27.617,30.875h-2.709c-0.375,0-0.678-0.125-0.678-0.5s0.303-0.5,0.678-0.5h2.709c0.374,0,0.677,0.125,0.677,0.5
				S27.991,30.875,27.617,30.875z M31.5,27.875h-11v-16h11V27.875z"/>
		</g>
		<g id="圖層_10" display="none">
			<rect x="18.5" y="9.875" display="inline" fill="#ECD1CF" width="14" height="22"/>
			<path display="inline" fill="#E92E7D" d="M30.5,7.875h-10c-1.657,0-3,1.343-3,3v19c0,1.657,1.343,3,3,3h10c1.657,0,3-1.343,3-3
				v-19C33.5,9.218,32.157,7.875,30.5,7.875z M27.912,30.875h-4.824c-0.324,0-0.588-0.225-0.588-0.5s0.264-0.5,0.588-0.5h4.824
				c0.324,0,0.588,0.225,0.588,0.5S28.236,30.875,27.912,30.875z M31.5,27.875h-12v-16h12V27.875z"/>
			<rect x="-38.5" y="8.875" display="inline" fill="#E92E7D" width="14" height="22"/>
			<path display="inline" fill="#ECD1CF" d="M-26.5,6.875h-10c-1.657,0-3,1.343-3,3v19c0,1.657,1.343,3,3,3h10c1.657,0,3-1.343,3-3
				v-19C-23.5,8.218-24.843,6.875-26.5,6.875z M-29.088,29.875h-4.824c-0.324,0-0.588-0.225-0.588-0.5s0.264-0.5,0.588-0.5h4.824
				c0.324,0,0.588,0.225,0.588,0.5S-28.764,29.875-29.088,29.875z M-25.5,26.875h-12v-16h12V26.875z"/>
		</g>
	</g>
	<g id="圖層_3">
		<g>
			<path fill="#CCCCCC" d="M2867.431,131.875h1.511c0,0-80.519-26.666-94.185-254.667c-0.022-0.416-0.257-0.821-0.257-1.233v-4.1
				h0.115c-5.289-86.63-6.265-61.219-5.541,0h-372.349c0.724-61.219-0.252-86.63-5.541,0h-6.685v68.206
				c-23,170.22-87.635,191.794-87.635,191.794h0.435c-3.794,1.734-6.8,5.555-6.8,9.997v0.006c0,6.073,5.289,10.997,11.361,10.997
				h561.008c6.072,0,10.631-4.924,10.631-10.997v-0.006C2873.5,137.43,2871.227,133.609,2867.431,131.875z M2774.911,130.875h-0.046
				v-1.643C2774.884,129.906,2774.898,130.455,2774.911,130.875z"/>
			<path fill="#666666" d="M2862.504,147.875h-561.008c-4.068,0-7.611-2.216-9.516-5.5c-0.938,1.618-1.48,3.492-1.48,5.497v0.006
				c0,6.073,4.924,10.997,10.996,10.997h561.008c6.072,0,10.996-4.924,10.996-10.997v-0.006c0-2.005-0.545-3.879-1.479-5.497
				C2870.115,145.659,2866.572,147.875,2862.504,147.875z"/>
			<path fill="#13202C" d="M3523.5-317.125v-1064c0-16.568-13.682-30-30.25-30h-1820c-16.568,0-29.75,13.432-29.75,30v1064H3523.5z"
				/>
			<path fill="#ECF0F1" d="M1642.5-317.125v159c0,16.568,13.432,30,30,30h1820c16.568,0,30-13.432,30-30v-159H1642.5z"/>
			<rect x="1716.5" y="-1340.125" fill="#B3B3B3" width="1733" height="953"/>
			<path fill="#13202C" d="M2622.5-214.125c0,16.568-13.432,30-30,30h-16c-16.568,0-30-13.432-30-30v-16c0-16.568,13.432-30,30-30
				h16c16.568,0,30,13.432,30,30V-214.125z"/>
		</g>
	</g>
</g>
<path fill="#8C6239" d="M37.22,85.027c0,0.666-0.539,1.207-1.205,1.207H11.876c-0.667,0-1.207-0.541-1.207-1.207V68.666
	c0-0.667,0.539-1.207,1.207-1.207h24.138c0.666,0,1.205,0.54,1.205,1.207V85.027z"/>
<path fill="#E6E6E6" d="M33.565,79.727c0,0.486-0.393,0.875-0.875,0.875H15.2c-0.482,0-0.875-0.389-0.875-0.875V67.875
	c0-0.484,0.392-0.875,0.875-0.875h17.49c0.482,0,0.875,0.391,0.875,0.875V79.727z"/>
<path fill="#E6E6E6" d="M28.98,64.775c-0.601,0-1.088-0.486-1.088-1.087v-2.755c0-0.6,0.487-1.086,1.088-1.086l0,0
	c0.601,0,1.087,0.486,1.087,1.086v2.755C30.067,64.289,29.581,64.775,28.98,64.775L28.98,64.775z"/>
<path fill="#E6E6E6" d="M18.548,64.775c-0.601,0-1.087-0.486-1.087-1.087v-2.755c0-0.6,0.486-1.086,1.087-1.086l0,0
	c0.601,0,1.088,0.486,1.088,1.086v2.755C19.636,64.289,19.149,64.775,18.548,64.775L18.548,64.775z"/>
<path fill="#603813" d="M38.299,70.686c0,0.72-0.585,1.305-1.305,1.305H10.897c-0.72,0-1.305-0.585-1.305-1.305v-5.511
	c0-0.722,0.584-1.305,1.305-1.305h26.097c0.72,0,1.305,0.583,1.305,1.305V70.686z"/>
<path fill="#999999" d="M25.468,72.713c0,0.723-0.585,1.307-1.305,1.307h-0.435c-0.72,0-1.305-0.584-1.305-1.307V69.67
	c0-0.721,0.584-1.304,1.305-1.304h0.435c0.72,0,1.305,0.583,1.305,1.304V72.713z"/>
<path fill="#E6E6E6" d="M31.151,60.537c0,0.6-0.486,1.086-1.087,1.086H16.826c-0.601,0-1.087-0.486-1.087-1.086l0,0
	c0-0.602,0.487-1.088,1.087-1.088h13.238C30.665,59.449,31.151,59.936,31.151,60.537L31.151,60.537z"/>
</svg>
