<?xml version="1.0" encoding="utf-8"?>
<!-- Generator: Adobe Illustrator 15.0.0, SVG Export Plug-In . SVG Version: 6.00 Build 0)  -->
<!DOCTYPE svg PUBLIC "-//W3C//DTD SVG 1.1//EN" "http://www.w3.org/Graphics/SVG/1.1/DTD/svg11.dtd">
<svg version="1.1" xmlns="http://www.w3.org/2000/svg" xmlns:xlink="http://www.w3.org/1999/xlink" x="0px" y="0px" width="50px"
	 height="40px" viewBox="0 0 50 40" enable-background="new 0 0 50 40" xml:space="preserve">
<g id="圖層_2_1_" display="none">
	<rect x="-61.167" y="-30.833" display="inline" fill="#79582F" width="169.333" height="112"/>
</g>
<g id="圖層_1">
	<g id="圖層_3" display="none">
		<rect x="-13.833" y="-6.833" display="inline" fill="#10A7BC" width="65.333" height="50.5"/>
	</g>
	<g id="圖層_1_2_">
		<g id="_x30_1" display="none">
			<g display="inline">
				<ellipse fill="#88C941" cx="25" cy="19.572" rx="15.71" ry="10.865"/>
				<g>
					<g>
						<circle fill="#FFFFFF" cx="30.004" cy="18.871" r="2.42"/>
						<path fill="#5C822B" d="M30.004,17.149c1.219,0,2.223,0.9,2.393,2.071c0.018-0.114,0.027-0.23,0.027-0.349
							c0-1.336-1.084-2.419-2.42-2.419s-2.42,1.083-2.42,2.419c0,0.119,0.012,0.235,0.027,0.349
							C27.782,18.049,28.786,17.149,30.004,17.149z"/>
					</g>
				</g>
				<circle fill="#FFFFFF" cx="19.489" cy="18.871" r="2.42"/>
				<path fill="#5C822B" d="M19.489,17.149c1.218,0,2.222,0.9,2.392,2.071c0.016-0.114,0.028-0.23,0.028-0.349
					c0-1.336-1.083-2.419-2.42-2.419c-1.337,0-2.42,1.083-2.42,2.419c0,0.119,0.012,0.235,0.028,0.349
					C17.267,18.049,18.272,17.149,19.489,17.149z"/>
				<polygon fill="#88C941" points="30.62,28.456 35.948,22.634 38.326,30.158 				"/>
			</g>
		</g>
		<g id="_x30_2" display="none">
			<g display="inline">
				<g>
					<circle fill="#29ABE2" cx="25.203" cy="20" r="11.631"/>
				</g>
				<circle fill="#CCCCCC" cx="25.203" cy="20" r="9.265"/>
				<path fill="#B3B3B3" d="M25.203,11.523c4.984,0,9.048,3.937,9.254,8.871c0.006-0.13,0.011-0.262,0.011-0.394
					c0-5.118-4.147-9.266-9.265-9.266c-5.118,0-9.265,4.148-9.265,9.266c0,0.131,0.004,0.263,0.009,0.394
					C16.154,15.46,20.217,11.523,25.203,11.523z"/>
				<g>
					<rect x="25.203" y="20.231" fill="#999999" width="7.885" height="0.917"/>
					<rect x="25.203" y="19.64" fill="#F6F5F1" width="7.885" height="0.917"/>
				</g>
				<g>
					
						<rect x="20.085" y="18.554" transform="matrix(-0.7903 -0.6127 0.6127 -0.7903 29.3101 48.2073)" fill="#999999" width="5.638" height="1.07"/>
					
						<rect x="20.087" y="17.963" transform="matrix(-0.7904 -0.6126 0.6126 -0.7904 29.6796 47.1496)" fill="#F6F5F1" width="5.638" height="1.069"/>
				</g>
				
					<rect x="23.982" y="17.068" transform="matrix(0.7071 -0.7071 0.7071 0.7071 -4.0746 24.8229)" fill="#29ABE2" width="7.885" height="0.523"/>
				<g>
					<circle fill="#999999" cx="25.202" cy="20.592" r="1.577"/>
					<circle fill="#F6F5F1" cx="25.202" cy="20" r="1.577"/>
				</g>
			</g>
		</g>
		<g id="_x30_3" display="none">
			<g display="inline">
				<path fill="#78C779" d="M36.126,14.813h0.079c-0.266-0.558-0.571-1.092-0.916-1.599l-0.035,0.063
					c-3.506-5.249-10.528-6.953-16.08-3.76c-1.619,0.931-2.939,2.178-3.931,3.62l0.031,0.063c-0.341,0.5-0.645,1.026-0.909,1.576
					h-0.068c-1.659,3.47-1.641,7.669,0.422,11.256c2.085,3.626,5.763,5.762,9.643,6.036l-6.108-12.69l6.114,12.681
					c0.301,0.021,0.604,0.037,0.91,0.037c0.287,0,0.57-0.015,0.85-0.033l0.001,0.002c1.744-0.133,3.487-0.646,5.105-1.578
					C36.747,27.314,38.816,20.46,36.126,14.813z"/>
				
					<line fill="none" stroke="#78C779" stroke-width="0.1948" stroke-miterlimit="10" x1="25.44" y1="19.713" x2="25.113" y2="20.286"/>
				<path fill="#F56363" d="M35.289,13.214l-0.035,0.063c-3.506-5.249-10.528-6.953-16.08-3.76c-1.619,0.931-2.939,2.178-3.931,3.62
					l0.945,1.643l9.062,15.757l9.115-15.726l1.762,0.003h0.079C35.939,14.255,35.634,13.721,35.289,13.214z"/>
				<path fill="#C64444" d="M25.639,29.367l-9.061-15.758l-0.731-1.271c-0.211,0.259-0.415,0.523-0.604,0.797l0.945,1.643
					l9.062,15.757"/>
				<path fill="#FFD403" d="M36.126,14.813l-1.762-0.003l-9.088-0.016v5.492h5.914L25.25,30.535l-0.882,1.523
					c0.301,0.021,0.604,0.034,0.91,0.034c0.287,0,0.57-0.014,0.85-0.03h0.001c1.744-0.133,3.487-0.646,5.105-1.576
					C36.747,27.314,38.816,20.46,36.126,14.813z"/>
				<g>
					<path fill="#D89000" d="M25.455,15.768l10.869,0.016l0.212,0.001c-0.122-0.328-0.259-0.652-0.409-0.972l-1.762-0.003
						l-9.088-0.016v5.492h0.178V15.768z"/>
				</g>
				<path fill="#78C779" d="M20.719,22.657l-4.531-7.879l-0.911-1.584c-0.342,0.501-0.647,1.029-0.913,1.581h-0.068
					c-1.659,3.47-1.641,7.67,0.422,11.256c2.085,3.626,5.763,5.762,9.643,6.035l0.888-1.531l4.565-7.878H20.719z"/>
				<g>
					<path fill="#4C894C" d="M28.646,22.657l-4.566,7.878l-0.812,1.4c0.362,0.059,0.726,0.104,1.092,0.131l0.888-1.531l4.566-7.878
						H28.646L28.646,22.657z"/>
				</g>
				<rect x="25.44" y="19.415" fill="#FFD403" width="7.712" height="3.242"/>
				<circle fill="#338E33" cx="25.276" cy="20.584" r="5.212"/>
				<circle fill="#F6F6F6" cx="25.276" cy="20" r="5.212"/>
				<circle fill="#5CAFE0" cx="25.277" cy="20" r="4.432"/>
			</g>
		</g>
		<g id="_x30_4" display="none">
			<g display="inline">
				<path fill="#9E5F3C" d="M27.418,13.036c0,0-1.329-0.71-0.518-2.49c0.812-1.78,1.063-2.441,1.063-2.441s1.133-1.854,3.262-0.941
					l2.002,0.82c0,0,0.625,0.63,1.097,2.261c0.471,1.631,0.685,12.831-10.979,22.157c0,0-2.598,2.223-4.621,1.334
					c-2.022-0.889-2.52-1.334-2.52-1.334s-1.182-0.653-0.25-2.108c0.933-1.456,1.579-2.47,1.579-2.47l0,0
					c0,0,1.197-1.975,3.27-0.725l1.528,0.607c0,0,0.963,0.661,1.991-0.852c0.448-0.66,1.51-2.492,2.598-4.444
					c1.397-2.515,2.837-5.227,3.056-5.881c0.346-1.039-0.343-1.787-0.949-2.339C28.236,13.48,27.418,13.036,27.418,13.036z"/>
				<path fill="#E38B55" d="M27.2,12.877c0,0-1.347-1.367-0.535-3.146c0.812-1.78,1.063-2.441,1.063-2.441s1.131-1.853,3.262-0.941
					l2.004,0.82c0,0,0.623,0.63,1.094,2.261c0.471,1.631,0.684,12.832-10.979,22.158c0,0-2.598,2.223-4.621,1.333
					c-2.023-0.889-2.57-0.756-2.57-0.756s-1.132-1.229-0.199-2.687c0.932-1.457,1.579-2.473,1.579-2.473l0,0
					c0,0,1.196-1.974,3.269-0.722l1.528,0.606c0,0,0.964,0.659,1.991-0.852c0.449-0.66,1.512-2.493,2.598-4.445
					c1.399-2.515,2.838-5.227,3.057-5.882c0.346-1.038-0.342-1.787-0.949-2.339C28.001,12.665,27.2,12.877,27.2,12.877z"/>
			</g>
		</g>
		<g id="_x30_5" display="none">
			<path display="inline" fill="#CCCCCC" d="M-1005.069,2644h1.509c0,0-80.517-26.666-94.183-254.667
				c-0.025-0.416-0.257-0.821-0.257-1.233v-4.1h0.117c-5.29-86.63-6.264-61.219-5.541,0h-372.348c0.723-61.219-0.251-86.63-5.541,0
				H-1488v68.206c-23,170.22-87.635,191.794-87.635,191.794h0.435c-3.793,1.734-6.8,5.554-6.8,9.997v0.006
				c0,6.073,5.289,10.997,11.362,10.997h561.007c6.073,0,10.631-4.924,10.631-10.997v-0.006
				C-999,2649.554-1001.276,2645.734-1005.069,2644z M-1097.589,2643h-0.046v-1.643
				C-1097.616,2642.031-1097.601,2642.58-1097.589,2643z"/>
			<path display="inline" fill="#666666" d="M-1009.997,2660h-561.007c-4.068,0-7.612-2.216-9.514-5.5
				c-0.938,1.618-1.482,3.492-1.482,5.497v0.006c0,6.073,4.923,10.997,10.997,10.997h561.007c6.073,0,10.997-4.924,10.997-10.997
				v-0.006c0-2.005-0.545-3.879-1.482-5.497C-1002.384,2657.784-1005.928,2660-1009.997,2660z"/>
			<path display="inline" fill="#13202C" d="M-349,2195V1131c0-16.568-13.682-30-30.25-30h-1820c-16.568,0-29.75,13.432-29.75,30
				v1064H-349z"/>
			<path display="inline" fill="#ECF0F1" d="M-2230,2195v159c0,16.568,13.432,30,30,30h1820c16.568,0,30-13.432,30-30v-159H-2230z"
				/>
			<rect x="-2156" y="1172" display="inline" fill="#B3B3B3" width="1733" height="953"/>
			<path display="inline" fill="#13202C" d="M-1250,2298c0,16.568-13.432,30-30,30h-16c-16.568,0-30-13.432-30-30v-16
				c0-16.568,13.432-30,30-30h16c16.568,0,30,13.432,30,30V2298z"/>
			<g display="inline">
				<path fill="#CCCCCC" d="M2866.931,132h1.51c0,0-80.518-26.666-94.184-254.667c-0.023-0.416-0.257-0.821-0.257-1.233v-4.1h0.116
					c-5.289-86.63-6.265-61.219-5.541,0h-372.349c0.724-61.219-0.252-86.63-5.541,0H2384v68.206
					C2361,110.426,2296.365,132,2296.365,132h0.435c-3.794,1.734-6.8,5.555-6.8,9.997v0.006c0,6.073,5.289,10.997,11.361,10.997
					h561.008c6.072,0,10.631-4.924,10.631-10.997v-0.006C2873,137.555,2870.726,133.734,2866.931,132z M2774.411,131h-0.046v-1.643
					C2774.384,130.031,2774.399,130.58,2774.411,131z"/>
				<path fill="#666666" d="M2862.004,148h-561.008c-4.068,0-7.611-2.216-9.515-5.5c-0.938,1.618-1.481,3.492-1.481,5.497v0.006
					c0,6.073,4.924,10.997,10.996,10.997h561.008c6.072,0,10.996-4.924,10.996-10.997v-0.006c0-2.005-0.545-3.879-1.48-5.497
					C2869.615,145.784,2866.072,148,2862.004,148z"/>
				<path fill="#13202C" d="M3523-317v-1064c0-16.568-13.682-30-30.25-30h-1820c-16.568,0-29.75,13.432-29.75,30v1064H3523z"/>
				<path fill="#ECF0F1" d="M1642-317v159c0,16.568,13.432,30,30,30h1820c16.568,0,30-13.432,30-30v-159H1642z"/>
				<rect x="1716" y="-1340" fill="#B3B3B3" width="1733" height="953"/>
				<path fill="#13202C" d="M2622-214c0,16.568-13.432,30-30,30h-16c-16.568,0-30-13.432-30-30v-16c0-16.568,13.432-30,30-30h16
					c16.568,0,30,13.432,30,30V-214z"/>
			</g>
			<g display="inline">
				<path fill="#CCCCCC" d="M2866.931,2406h1.51c0,0-80.518-26.666-94.184-254.667c-0.023-0.416-0.257-0.821-0.257-1.233v-4.1h0.116
					c-5.289-86.63-6.265-61.219-5.541,0h-372.349c0.724-61.219-0.252-86.63-5.541,0H2384v68.206
					c-23,170.22-87.635,191.794-87.635,191.794h0.435c-3.794,1.734-6.8,5.554-6.8,9.997v0.006c0,6.073,5.289,10.997,11.361,10.997
					h561.008c6.072,0,10.631-4.924,10.631-10.997v-0.006C2873,2411.554,2870.726,2407.734,2866.931,2406z M2774.411,2405h-0.046
					v-1.643C2774.384,2404.031,2774.399,2404.58,2774.411,2405z"/>
				<path fill="#666666" d="M2862.004,2422h-561.008c-4.068,0-7.611-2.216-9.515-5.5c-0.938,1.618-1.481,3.492-1.481,5.497v0.006
					c0,6.073,4.924,10.997,10.996,10.997h561.008c6.072,0,10.996-4.924,10.996-10.997v-0.006c0-2.005-0.545-3.879-1.48-5.497
					C2869.615,2419.784,2866.072,2422,2862.004,2422z"/>
				<path fill="#13202C" d="M3523,1957V893c0-16.568-13.682-30-30.25-30h-1820c-16.568,0-29.75,13.432-29.75,30v1064H3523z"/>
				<path fill="#ECF0F1" d="M1642,1957v159c0,16.568,13.432,30,30,30h1820c16.568,0,30-13.432,30-30v-159H1642z"/>
				<rect x="1716" y="934" fill="#B3B3B3" width="1733" height="953"/>
				<path fill="#13202C" d="M2622,2060c0,16.568-13.432,30-30,30h-16c-16.568,0-30-13.432-30-30v-16c0-16.568,13.432-30,30-30h16
					c16.568,0,30,13.432,30,30V2060z"/>
			</g>
			<g display="inline">
				<path fill="#CCCCCC" d="M2866.931,4214h1.51c0,0-80.518-26.666-94.184-254.667c-0.023-0.416-0.257-0.821-0.257-1.233v-4.1h0.116
					c-5.289-86.63-6.265-61.219-5.541,0h-372.349c0.724-61.219-0.252-86.63-5.541,0H2384v68.206
					c-23,170.22-87.635,191.794-87.635,191.794h0.435c-3.794,1.734-6.8,5.555-6.8,9.997v0.006c0,6.073,5.289,10.997,11.361,10.997
					h561.008c6.072,0,10.631-4.924,10.631-10.997v-0.006C2873,4219.555,2870.726,4215.734,2866.931,4214z M2774.411,4213h-0.046
					v-1.643C2774.384,4212.031,2774.399,4212.58,2774.411,4213z"/>
				<path fill="#666666" d="M2862.004,4230h-561.008c-4.068,0-7.611-2.216-9.515-5.5c-0.938,1.618-1.481,3.492-1.481,5.497v0.006
					c0,6.073,4.924,10.997,10.996,10.997h561.008c6.072,0,10.996-4.924,10.996-10.997v-0.006c0-2.005-0.545-3.879-1.48-5.497
					C2869.615,4227.784,2866.072,4230,2862.004,4230z"/>
				<path fill="#13202C" d="M3523,3765V2701c0-16.568-13.682-30-30.25-30h-1820c-16.568,0-29.75,13.432-29.75,30v1064H3523z"/>
				<path fill="#ECF0F1" d="M1642,3765v159c0,16.568,13.432,30,30,30h1820c16.568,0,30-13.432,30-30v-159H1642z"/>
				<rect x="1716" y="2742" fill="#B3B3B3" width="1733" height="953"/>
				<path fill="#13202C" d="M2622,3868c0,16.568-13.432,30-30,30h-16c-16.568,0-30-13.432-30-30v-16c0-16.568,13.432-30,30-30h16
					c16.568,0,30,13.432,30,30V3868z"/>
			</g>
			<g display="inline">
				<rect x="11" y="8" fill="#13202C" width="31" height="17"/>
				<path fill="#B3B3B3" d="M26.941,25h-0.885H11v2.604C11,27.872,11.233,28,11.369,28h14.867c0.049,0,0.152-0.021,0.265-0.059
					C26.611,27.979,26.716,28,26.764,28h14.868C41.768,28,42,27.872,42,27.604V25H26.941z"/>
				<rect x="13" y="9" fill="#FFFFFF" width="27" height="15"/>
				<path fill="#13202C" d="M27.012,26.739c0,0.268-0.217,0.483-0.484,0.483H26.27c-0.27,0-0.484-0.218-0.484-0.483v-0.261
					c0-0.269,0.217-0.483,0.484-0.483h0.258c0.27,0,0.484,0.217,0.484,0.483V26.739z"/>
			</g>
			<rect x="-853" y="565" display="inline" fill="#CCCCCC" width="390" height="270"/>
			<path display="inline" fill="#CCCCCC" d="M-941,825c0,0,80.334-26.666,94-254.667S-847,825-847,825H-941z"/>
			<path display="inline" fill="#CCCCCC" d="M-368.926,825c0,0-80.334-26.666-94-254.667s0,254.667,0,254.667H-368.926z"/>
			<path display="inline" fill="#CCCCCC" d="M-364,835.003c0,6.073-4.923,10.997-10.997,10.997h-561.007
				c-6.073,0-10.997-4.924-10.997-10.997v-0.006c0-6.073,4.923-10.997,10.997-10.997h561.007c6.073,0,10.997,4.924,10.997,10.997
				V835.003z"/>
		</g>
		<g id="圖層_7" display="none">
			<path display="inline" fill="#CCCCCC" d="M22.249,31.824C22.047,32.068,22.514,32,21.628,32l0,0h1.908h5.927h1.908l0,0
				C30.484,32,30,31.027,30,29.32V28h-7v1.32C23,30.494,22.69,31.285,22.249,31.824"/>
			<path display="inline" fill="#CCCCCC" d="M33,32.771C33,32.898,32.875,33,32.721,33H21.28C21.125,33,21,32.898,21,32.771v-0.545
				C21,32.102,21.125,32,21.28,32h11.441C32.875,32,33,32.102,33,32.229V32.771z"/>
		</g>
		<g id="圖層_8">
			<g>
				<polygon fill="#FFFFFF" points="11.925,10.092 25,29.908 30.923,23.557 				"/>
				<polygon fill="#FFFFFF" points="11.925,10.092 38.075,16.608 33.885,20.921 				"/>
				<polygon fill="#34495E" points="33.885,20.921 33.579,28.016 30.82,23.557 11.925,10.092 				"/>
				<polygon fill="#CCCCCC" points="33.579,28.016 28.828,25.752 30.82,23.557 				"/>
			</g>
		</g>
	</g>
	<g id="圖層_2">
		<g id="圖層_8_1_">
			<g>
				<polygon fill="#10A7BC" points="56.591,10.092 69.666,29.908 75.589,23.557 				"/>
				<polygon fill="#10A7BC" points="56.591,10.092 82.741,16.608 78.551,20.921 				"/>
				<polygon fill="#34495E" points="78.551,20.921 78.245,28.016 75.486,23.557 56.591,10.092 				"/>
				<polygon fill="#CCCCCC" points="78.245,28.016 73.494,25.752 75.486,23.557 				"/>
			</g>
		</g>
	</g>
</g>
</svg>
