<?xml version="1.0" encoding="utf-8"?>
<!-- Generator: Adobe Illustrator 16.0.0, SVG Export Plug-In . SVG Version: 6.00 Build 0)  -->
<!DOCTYPE svg PUBLIC "-//W3C//DTD SVG 1.1//EN" "http://www.w3.org/Graphics/SVG/1.1/DTD/svg11.dtd">
<svg version="1.1" xmlns="http://www.w3.org/2000/svg" xmlns:xlink="http://www.w3.org/1999/xlink" x="0px" y="0px" width="100px"
	 height="100px" viewBox="0 0 100 100" enable-background="new 0 0 100 100" xml:space="preserve">
<g id="圖層_1">
	<g id="圖層_1_2_" display="none">
		<g id="圖層_1_1_" display="inline">
			<path fill="#E92E7D" d="M55,38H45c-1.657,0-3,1.343-3,3v19c0,1.657,1.343,3,3,3h10c1.657,0,3-1.343,3-3V41
				C58,39.343,56.657,38,55,38z M52.412,61h-4.824C47.264,61,47,60.775,47,60.5s0.264-0.5,0.588-0.5h4.824
				C52.736,60,53,60.225,53,60.5S52.736,61,52.412,61z M56,58H44V42h12V58z"/>
		</g>
		<g id="圖層_2" display="inline">
			<g>
				<path fill="#CCCCCC" d="M78.5,75.5c0,1.657-1.343,3-3,3h-51c-1.657,0-3-1.343-3-3v-50c0-1.657,1.343-3,3-3h51
					c1.657,0,3,1.343,3,3V75.5z"/>
				<path fill="#F2F2F2" d="M78.5,73.5c0,1.657-1.343,3-3,3h-51c-1.657,0-3-1.343-3-3v-50c0-1.657,1.343-3,3-3h51
					c1.657,0,3,1.343,3,3V73.5z"/>
				<polygon fill="#F2F2F2" points="33.71,20.5 21.5,32.71 21.5,36.952 37.952,20.5 				"/>
				<polygon fill="#F2F2F2" points="78.5,43.591 45.591,76.5 49.835,76.5 78.5,47.835 				"/>
				<polygon fill="#F2F2F2" points="78.5,52.077 54.077,76.5 58.32,76.5 78.5,56.32 				"/>
				<polygon fill="#F2F2F2" points="25.224,20.5 21.5,24.224 21.5,28.467 29.467,20.5 				"/>
				<polygon fill="#F2F2F2" points="50.682,20.5 21.5,49.681 21.5,53.923 54.923,20.5 				"/>
				<polygon fill="#F2F2F2" points="78.5,26.622 28.622,76.5 32.864,76.5 78.5,30.864 				"/>
				<polygon fill="#F2F2F2" points="42.195,20.5 21.5,41.195 21.5,45.437 46.437,20.5 				"/>
				<polygon fill="#F2F2F2" points="78.5,60.562 62.562,76.5 66.807,76.5 78.5,64.807 				"/>
				<polygon fill="#F2F2F2" points="78.5,35.106 37.106,76.5 41.349,76.5 78.5,39.349 				"/>
				<polygon fill="#F2F2F2" points="59.166,20.5 21.5,58.166 21.5,62.408 63.408,20.5 				"/>
				<path fill="#F2F2F2" d="M76.077,20.558l-54.26,54.26c0.474,0.961,1.439,1.629,2.572,1.671L78.33,22.547
					C77.991,21.538,77.141,20.766,76.077,20.558z"/>
				<polygon fill="#F2F2F2" points="67.65,20.5 21.5,66.65 21.5,70.895 71.895,20.5 				"/>
				<polygon fill="#F2F2F2" points="78.5,69.048 71.048,76.5 75.29,76.5 78.5,73.29 				"/>
				<path opacity="0.3" fill="#C1272D" enable-background="new    " d="M24.5,20.5c-1.657,0-3,1.343-3,3v0.724l3.724-3.724H24.5z"/>
				<polygon opacity="0.3" fill="#C1272D" enable-background="new    " points="29.467,20.5 21.5,28.467 21.5,32.71 33.71,20.5 				
					"/>
				<polygon opacity="0.3" fill="#C1272D" enable-background="new    " points="37.952,20.5 21.5,36.952 21.5,41.195 42.195,20.5 
									"/>
				<polygon opacity="0.3" fill="#C1272D" enable-background="new    " points="46.437,20.5 21.5,45.437 21.5,49.681 50.682,20.5 
									"/>
				<polygon opacity="0.3" fill="#C1272D" enable-background="new    " points="54.923,20.5 21.5,53.923 21.5,58.166 59.166,20.5 
									"/>
				<polygon opacity="0.3" fill="#C1272D" enable-background="new    " points="63.408,20.5 21.5,62.408 21.5,66.65 67.65,20.5 				
					"/>
				<path opacity="0.3" fill="#C1272D" enable-background="new    " d="M75.5,20.5h-3.605L21.5,70.895V73.5
					c0,0.477,0.121,0.919,0.317,1.318l54.26-54.26C75.891,20.521,75.698,20.5,75.5,20.5z"/>
				<path opacity="0.3" fill="#C1272D" enable-background="new    " d="M78.5,23.5c0-0.335-0.066-0.652-0.169-0.953L24.39,76.489
					c0.037,0.001,0.072,0.011,0.11,0.011h4.122L78.5,26.622V23.5z"/>
				<polygon opacity="0.3" fill="#C1272D" enable-background="new    " points="78.5,30.864 32.864,76.5 37.106,76.5 78.5,35.106 
									"/>
				<polygon opacity="0.3" fill="#C1272D" enable-background="new    " points="78.5,39.349 41.349,76.5 45.591,76.5 78.5,43.591 
									"/>
				<polygon opacity="0.3" fill="#C1272D" enable-background="new    " points="78.5,47.835 49.835,76.5 54.077,76.5 78.5,52.077 
									"/>
				<polygon opacity="0.3" fill="#C1272D" enable-background="new    " points="78.5,56.32 58.32,76.5 62.562,76.5 78.5,60.562 				
					"/>
				<polygon opacity="0.3" fill="#C1272D" enable-background="new    " points="78.5,64.807 66.807,76.5 71.048,76.5 78.5,69.048 
									"/>
				<path opacity="0.3" fill="#C1272D" enable-background="new    " d="M78.5,73.5v-0.21l-3.21,3.21h0.21
					C77.157,76.5,78.5,75.157,78.5,73.5z"/>
				<rect x="21.5" y="43.5" fill="#C25D66" width="57" height="10"/>
				<rect x="45.5" y="20.5" fill="#C25D66" width="10" height="56"/>
				<rect x="21.5" y="42.5" fill="#F0A7AD" width="57" height="10"/>
				<rect x="44.5" y="20.5" fill="#F0A7AD" width="10" height="56"/>
				<polygon fill="#C25D66" points="56.5,78.5 45.5,78.5 45.5,76.5 55.5,76.5 				"/>
				<polygon fill="#F0A7AD" points="55.5,78.5 45.5,78.5 44.5,76.5 54.5,76.5 				"/>
				<path fill="#C25D66" d="M37.622,50.701c-3.331,0-5.797-0.489-7.54-1.493c-3.393-1.955-5.838-7.178-4.938-10.544
					c0.56-2.094,2.281-3.345,4.603-3.345c2.044,0,4.601,0.931,7.816,2.844c4.646,2.765,7.987,4.812,9.93,6.082
					c1.942,1.269,3.114,2.035,2.665,3.669l-0.433,1.574l-1.482,0.01C47.074,49.745,42.232,50.7,37.622,50.701z M29.747,39.605
					c-0.323,0-0.436,0.063-0.437,0.064c-0.027,0.048-0.169,0.489,0.029,1.404c0.376,1.739,1.67,3.722,2.883,4.421
					c0.729,0.419,2.257,0.92,5.4,0.92c1.614,0,3.287-0.135,4.79-0.313c-1.63-1.009-3.896-2.385-7.041-4.257
					C32.095,39.896,30.441,39.605,29.747,39.605z"/>
				<path fill="#C25D66" d="M60.473,53.426c-4.449-1.176-8.881-3.332-9.957-3.873L49.1,49.179l-0.037-1.649
					c-0.017-1.694,1.313-2.136,3.515-2.867c2.203-0.731,5.956-1.857,11.154-3.344c3.597-1.029,6.307-1.276,8.283-0.754
					c2.243,0.593,3.588,2.241,3.596,4.409c0.011,3.485-3.688,7.911-7.469,8.934C66.202,54.434,63.691,54.275,60.473,53.426z
					 M57.016,47.756c1.407,0.556,2.991,1.113,4.551,1.525c3.041,0.803,4.646,0.709,5.457,0.489c1.353-0.366,3.107-1.953,3.916-3.538
					c0.42-0.822,0.401-1.283,0.373-1.372h-0.002c-0.051-0.014-1.256-0.894-6.398,0.578C61.391,46.445,58.85,47.197,57.016,47.756z"
					/>
				<path fill="#F18B7A" d="M37.622,49.701c-3.331,0-5.797-0.489-7.54-1.493c-3.393-1.955-5.838-7.178-4.938-10.544
					c0.56-2.094,2.281-3.345,4.603-3.345c2.044,0,4.601,0.931,7.816,2.844c4.646,2.765,7.987,4.812,9.93,6.082
					c1.942,1.269,3.114,2.035,2.665,3.669l-0.433,1.574l-1.482,0.01C47.074,48.745,42.232,49.7,37.622,49.701z M29.747,38.605
					c-0.323,0-0.436,0.063-0.437,0.064c-0.027,0.048-0.169,0.489,0.029,1.404c0.376,1.739,1.67,3.722,2.883,4.421
					c0.729,0.419,2.257,0.92,5.4,0.92c1.614,0,3.287-0.135,4.79-0.313c-1.63-1.009-3.896-2.385-7.041-4.257
					C32.095,38.896,30.441,38.605,29.747,38.605z"/>
				<path fill="#F18B7A" d="M60.729,52.459c-4.451-1.176-8.881-3.333-9.957-3.873l-1.416-0.374l-0.037-1.649
					c-0.018-1.694,1.313-2.136,3.515-2.867c2.203-0.732,5.955-1.857,11.154-3.344c3.597-1.029,6.307-1.276,8.281-0.754
					c2.246,0.593,3.59,2.241,3.597,4.409c0.011,3.485-3.688,7.911-7.468,8.935C66.457,53.467,63.948,53.309,60.729,52.459z
					 M57.271,46.789c1.408,0.556,2.992,1.113,4.552,1.525c3.038,0.803,4.645,0.709,5.454,0.489c1.354-0.366,3.109-1.953,3.918-3.538
					c0.418-0.822,0.402-1.283,0.373-1.372h-0.002c-0.051-0.014-1.256-0.895-6.4,0.578C61.646,45.478,59.105,46.23,57.271,46.789z"/>
			</g>
		</g>
	</g>
	<g id="圖層_2_1_">
		<g id="圖層_2_13_">
			<g id="圖層_8_1_">
				<g>
					<polygon fill="#10A7BC" points="-118.556,37.54 -89.815,81.098 -76.795,67.137 					"/>
					<polygon fill="#10A7BC" points="-118.556,37.54 -61.072,51.861 -70.283,61.344 					"/>
					<polygon fill="#34495E" points="-70.283,61.344 -70.955,76.938 -77.021,67.137 -118.556,37.54 					"/>
					<polygon fill="#CCCCCC" points="-70.955,76.938 -81.4,71.963 -77.021,67.137 					"/>
				</g>
			</g>
		</g>
	</g>
	<g id="圖層_2_3_">
		<path opacity="0.8" fill="#B3B3B3" enable-background="new    " d="M39.699,24.135l10.426,24.761L60.3,24.135
			C60.3,24.135,50.313,29.034,39.699,24.135z"/>
		<path opacity="0.8" fill="#B3B3B3" enable-background="new    " d="M60.3,78.864L49.874,54.104L39.699,78.864
			C39.699,78.864,49.687,73.965,60.3,78.864z"/>
		<path opacity="0.8" fill="#B3B3B3" enable-background="new    " d="M77.279,40.699L54.104,51.125L78.863,61.3
			C78.863,61.3,72.38,51.312,77.279,40.699z"/>
		<path opacity="0.8" fill="#B3B3B3" enable-background="new    " d="M21.136,61.3l24.761-10.426L23.402,41.63
			C23.402,41.63,26.034,50.688,21.136,61.3z"/>
		<path opacity="0.5" fill="#B3B3B3" enable-background="new    " d="M63.713,23.72L53.576,48.6l24.703-10.313
			C78.279,38.287,67.754,34.689,63.713,23.72z"/>
		<path opacity="0.5" fill="#B3B3B3" enable-background="new    " d="M36.287,78.279l10.137-24.881L22.721,63.713
			C22.721,63.713,32.245,67.311,36.287,78.279z"/>
		<path opacity="0.5" fill="#B3B3B3" enable-background="new    " d="M21.721,38.287l24.88,10.137L36.287,23.72
			C36.287,23.72,32.689,34.245,21.721,38.287z"/>
		<path opacity="0.5" fill="#B3B3B3" enable-background="new    " d="M77.279,63.713L53.398,53.575l10.313,24.704
			C63.713,78.279,66.311,67.754,77.279,63.713z"/>
	</g>
	<g id="圖層_3">
		<path fill="#D9E021" d="M39.699,22.135l10.426,24.761L60.3,22.135C60.3,22.135,50.313,27.034,39.699,22.135z"/>
		<path fill="#664285" d="M60.3,77.864L49.874,53.104L39.699,77.864C39.699,77.864,49.687,72.965,60.3,77.864z"/>
		<path fill="#AE422E" d="M78.863,39.699l-24.76,10.426L78.863,60.3C75.004,52.434,76.664,44.466,78.863,39.699z"/>
		<path fill="#2E6E9B" d="M21.136,60.3l24.761-10.426L21.136,39.699C21.136,39.699,26.034,49.687,21.136,60.3z"/>
		<path fill="#AE712E" d="M63.713,22.72L53.576,47.6l24.703-10.313C78.279,37.287,67.754,33.689,63.713,22.72z"/>
		<path fill="#3F3C80" d="M37.287,77.279l10.137-24.881L22.721,62.713C22.721,62.713,33.245,66.311,37.287,77.279z"/>
		<path fill="#2E7A46" d="M21.721,37.287l24.88,10.137L36.287,22.72C36.287,22.72,32.689,33.245,21.721,37.287z"/>
		<path fill="#AE2E73" d="M77.279,62.713L52.398,52.575l10.313,24.704C62.713,77.279,66.311,66.754,77.279,62.713z"/>
	</g>
</g>
<g id="圖層_2_2_">
</g>
</svg>
