<?xml version="1.0" encoding="utf-8"?>
<!-- Generator: Adobe Illustrator 15.0.0, SVG Export Plug-In . SVG Version: 6.00 Build 0)  -->
<!DOCTYPE svg PUBLIC "-//W3C//DTD SVG 1.1//EN" "http://www.w3.org/Graphics/SVG/1.1/DTD/svg11.dtd">
<svg version="1.1" xmlns="http://www.w3.org/2000/svg" xmlns:xlink="http://www.w3.org/1999/xlink" x="0px" y="0px" width="100px"
	 height="100px" viewBox="0 0 100 100" enable-background="new 0 0 100 100" xml:space="preserve">
<g id="圖層_2">
	<path opacity="0.8" fill="#666666" d="M39.699,24.135l10.426,24.761L60.3,24.135C60.3,24.135,50.313,29.034,39.699,24.135z"/>
	<path opacity="0.8" fill="#666666" d="M60.3,78.864L49.874,54.104L39.699,78.864C39.699,78.864,49.687,73.965,60.3,78.864z"/>
	<path opacity="0.8" fill="#666666" d="M77.279,40.699L54.104,51.125L78.864,61.3C78.864,61.3,72.38,51.313,77.279,40.699z"/>
	<path opacity="0.8" fill="#666666" d="M21.136,61.3l24.761-10.426L23.402,41.63C23.402,41.63,26.034,50.687,21.136,61.3z"/>
	<path opacity="0.5" fill="#42210B" d="M63.713,23.72l-10.137,24.88l24.703-10.313C78.279,38.287,67.754,34.689,63.713,23.72z"/>
	<path opacity="0.5" fill="#42210B" d="M36.287,78.279l10.137-24.881L22.721,63.713C22.721,63.713,32.245,67.31,36.287,78.279z"/>
	<path opacity="0.5" fill="#42210B" d="M21.721,38.287l24.88,10.137L36.287,23.72C36.287,23.72,32.689,34.245,21.721,38.287z"/>
	<path opacity="0.5" fill="#42210B" d="M77.279,63.713L53.398,53.575l10.314,24.704C63.713,78.279,66.31,67.754,77.279,63.713z"/>
</g>
<g id="圖層_3">
	<path fill="#DCDCDA" d="M39.699,22.135l10.426,24.761L60.3,22.135C60.3,22.135,50.313,27.034,39.699,22.135z"/>
	<path fill="#DCDCDA" d="M60.3,77.864L49.874,53.104L39.699,77.864C39.699,77.864,49.687,72.965,60.3,77.864z"/>
	<path fill="#DCDCDA" d="M78.864,39.699L54.104,50.125L78.864,60.3C75.004,52.433,76.664,44.466,78.864,39.699z"/>
	<path fill="#DCDCDA" d="M21.136,60.3l24.761-10.426L21.136,39.699C21.136,39.699,26.034,49.687,21.136,60.3z"/>
	<path fill="#830E0A" d="M63.713,22.72l-10.137,24.88l24.703-10.313C78.279,37.287,67.754,33.689,63.713,22.72z"/>
	<path fill="#830E0A" d="M37.287,77.279l10.137-24.881L22.721,62.713C22.721,62.713,33.245,66.31,37.287,77.279z"/>
	<path fill="#830E0A" d="M21.721,37.287l24.88,10.137L36.287,22.72C36.287,22.72,32.689,33.245,21.721,37.287z"/>
	<path fill="#830E0A" d="M77.279,62.713L52.398,52.575l10.314,24.704C62.713,77.279,66.31,66.754,77.279,62.713z"/>
</g>
</svg>
