<?xml version="1.0" encoding="utf-8"?>
<!-- Generator: Adobe Illustrator 16.0.0, SVG Export Plug-In . SVG Version: 6.00 Build 0)  -->
<!DOCTYPE svg PUBLIC "-//W3C//DTD SVG 1.1//EN" "http://www.w3.org/Graphics/SVG/1.1/DTD/svg11.dtd">
<svg version="1.1" xmlns="http://www.w3.org/2000/svg" xmlns:xlink="http://www.w3.org/1999/xlink" x="0px" y="0px" width="100px"
	 height="100px" viewBox="0 0 100 100" enable-background="new 0 0 100 100" xml:space="preserve">
<g id="圖層_2_1_" display="none">
	<g id="圖層_2" display="inline">
		<path opacity="0.8" fill="#B3B3B3" enable-background="new    " d="M39.699,24.135l10.426,24.761L60.3,24.135
			C60.3,24.135,50.313,29.034,39.699,24.135z"/>
		<path opacity="0.8" fill="#B3B3B3" enable-background="new    " d="M60.3,78.864L49.874,54.104L39.699,78.864
			C39.699,78.864,49.687,73.965,60.3,78.864z"/>
		<path opacity="0.8" fill="#B3B3B3" enable-background="new    " d="M77.279,40.699L54.104,51.125L78.863,61.3
			C78.863,61.3,72.38,51.312,77.279,40.699z"/>
		<path opacity="0.8" fill="#B3B3B3" enable-background="new    " d="M21.136,61.3l24.761-10.426L23.402,41.63
			C23.402,41.63,26.034,50.688,21.136,61.3z"/>
		<path opacity="0.5" fill="#B3B3B3" enable-background="new    " d="M63.713,23.72L53.576,48.6l24.703-10.313
			C78.279,38.287,67.754,34.689,63.713,23.72z"/>
		<path opacity="0.5" fill="#B3B3B3" enable-background="new    " d="M36.287,78.279l10.137-24.881L22.721,63.713
			C22.721,63.713,32.245,67.311,36.287,78.279z"/>
		<path opacity="0.5" fill="#B3B3B3" enable-background="new    " d="M21.721,38.287l24.88,10.137L36.287,23.72
			C36.287,23.72,32.689,34.245,21.721,38.287z"/>
		<path opacity="0.5" fill="#B3B3B3" enable-background="new    " d="M77.279,63.713L53.398,53.575l10.313,24.704
			C63.713,78.279,66.311,67.754,77.279,63.713z"/>
	</g>
</g>
<g id="圖層_1">
	<g id="圖層_3">
		<path fill="#D9E021" d="M-16.443,160.135l10.426,24.762l10.175-24.762C4.158,160.135-5.829,165.034-16.443,160.135z"/>
		<path fill="#664285" d="M4.158,215.864l-10.426-24.761l-10.175,24.761C-16.443,215.864-6.455,210.965,4.158,215.864z"/>
		<path fill="#AE422E" d="M22.721,177.699l-24.76,10.426l24.76,10.175C18.862,190.434,20.522,182.466,22.721,177.699z"/>
		<path fill="#2E6E9B" d="M-35.006,198.3l24.761-10.426l-24.761-10.175C-35.006,177.699-30.108,187.688-35.006,198.3z"/>
		<path fill="#AE712E" d="M7.571,160.72L-2.566,185.6l24.703-10.312C22.137,175.287,11.612,171.689,7.571,160.72z"/>
		<path fill="#3F3C80" d="M-18.855,215.279l10.137-24.881l-24.703,10.314C-33.421,200.713-22.897,204.311-18.855,215.279z"/>
		<path fill="#2E7A46" d="M-34.421,175.287l24.88,10.137l-10.314-24.704C-19.855,160.72-23.453,171.245-34.421,175.287z"/>
		<path fill="#AE2E73" d="M21.137,200.713l-24.881-10.138L6.57,215.279C6.571,215.279,10.168,204.754,21.137,200.713z"/>
	</g>
</g>
<g id="圖層_4">
	<rect x="-36.138" y="7.956" opacity="0.2" fill="#808080" width="34.833" height="73.799"/>
	<path opacity="0.2" fill="#808080" d="M-45.585,2.122h-21.122c-1.104,0-2,0.896-2,2v6.167v0.833V73.12l12.561,24.757l12.561-24.757
		V11.122v-0.833V4.122C-43.585,3.018-44.481,2.122-45.585,2.122z"/>
	<rect x="48.432" y="30.314" opacity="0.2" fill="#808080" width="20.168" height="42.729"/>
	<path opacity="0.2" fill="#808080" d="M42.962,23.937H30.733c-0.64,0-1.158,0.519-1.158,1.158v3.571v0.482v35.895l7.272,14.334
		l7.273-14.334V29.148v-0.482v-3.571C44.121,24.456,43.602,23.937,42.962,23.937z"/>
</g>
<g id="圖層_3_1_">
	<g>
		<rect x="-63.746" y="3.849" fill="#EC9C00" width="14.667" height="70"/>
		<path fill="#F08776" d="M-51.084-7.818H-61.84c-1.08,0-1.956,0.875-1.956,1.956v1.378v3.837v4.497h14.667v-4.497v-3.837v-1.378
			C-49.129-6.943-50.004-7.818-51.084-7.818z"/>
		<rect x="-63.746" y="3.849" fill="#CCCCCC" width="14.667" height="8.167"/>
		<path fill="#F0D9C3" d="M-49.08,73.849c0-2.045-1.646-3.701-3.678-3.701c-1.94,0-3.513,1.518-3.65,3.436
			c-0.138-1.918-1.712-3.436-3.657-3.436c-2.034,0-3.682,1.656-3.682,3.701l7.338,13.637l7.337-13.637H-49.08z"/>
		<polygon fill="#4D4D4D" points="-58.067,84.411 -56.413,87.485 -54.758,84.411 		"/>
	</g>
	<rect x="-31.703" y="1.849" fill="#0071BC" width="25" height="64.583"/>
	<rect x="-15.079" y="1.849" fill="#FFFFFF" width="8.376" height="64.583"/>
	<rect x="-31.703" y="66.432" fill="#CCCCCC" width="25" height="9.399"/>
	<path fill="#CCCCCC" d="M-6.703,76.681c0,1.105-0.896,2-2,2h-21c-1.105,0-2-0.895-2-2v-5.398c0-1.105,0.895-2,2-2h21
		c1.104,0,2,0.895,2,2V76.681z"/>
	<g opacity="0.7">
		<path fill="#999999" d="M-63.695,12.016v61.546c0.129-1.926,1.708-3.453,3.657-3.453c1.942,0,3.515,1.516,3.656,3.43V-7.818
			h-5.407c-1.08,0-1.956,0.875-1.956,1.956v1.378v3.837v4.497h0.049V12.016z"/>
	</g>
	<g>
		<rect x="32.448" y="24.937" fill="#EC9C00" width="8.492" height="40.528"/>
		<path fill="#F08776" d="M39.779,18.182h-6.228c-0.625,0-1.132,0.507-1.132,1.132v0.798v2.221v2.604h8.491v-2.604v-2.221v-0.798
			C40.911,18.688,40.404,18.182,39.779,18.182z"/>
		<rect x="32.448" y="24.937" fill="#CCCCCC" width="8.492" height="4.729"/>
		<path fill="#F0D9C3" d="M40.939,65.465c0-1.184-0.953-2.143-2.129-2.143c-1.124,0-2.034,0.879-2.113,1.989
			c-0.08-1.11-0.991-1.989-2.117-1.989c-1.177,0-2.132,0.959-2.132,2.143l4.249,7.896l4.248-7.896H40.939z"/>
		<polygon fill="#4D4D4D" points="35.736,71.58 36.694,73.36 37.651,71.58 		"/>
	</g>
	<rect x="51" y="23.779" fill="#0071BC" width="14.475" height="37.392"/>
	<rect x="60.625" y="23.779" fill="#FFFFFF" width="4.85" height="37.392"/>
	<rect x="51" y="61.171" fill="#CCCCCC" width="14.475" height="5.442"/>
	<path fill="#CCCCCC" d="M65.475,67.104c0,0.641-0.52,1.158-1.158,1.158H52.158c-0.641,0-1.158-0.518-1.158-1.158v-3.125
		c0-0.641,0.518-1.158,1.158-1.158h12.158c0.639,0,1.158,0.518,1.158,1.158V67.104z"/>
	<g opacity="0.2">
		<path fill="#999999" d="M32.477,29.665v35.634c0.075-1.115,0.989-1.999,2.118-1.999c1.125,0,2.035,0.877,2.117,1.985V18.182h-3.13
			c-0.625,0-1.132,0.507-1.132,1.132v0.798v2.221v2.604h0.028V29.665z"/>
	</g>
</g>
</svg>
