<?xml version="1.0" encoding="utf-8"?>
<!-- Generator: Adobe Illustrator 15.0.0, SVG Export Plug-In . SVG Version: 6.00 Build 0)  -->
<!DOCTYPE svg PUBLIC "-//W3C//DTD SVG 1.1//EN" "http://www.w3.org/Graphics/SVG/1.1/DTD/svg11.dtd">
<svg version="1.1" xmlns="http://www.w3.org/2000/svg" xmlns:xlink="http://www.w3.org/1999/xlink" x="0px" y="0px" width="100px"
	 height="100px" viewBox="0 0 100 100" enable-background="new 0 0 100 100" xml:space="preserve">
<g id="圖層_2_1_">
</g>
<g id="圖層_1">
	<g id="圖層_2">
		<g>
			<path fill="#CCCCCC" d="M76.5,92.4c0,2.265-1.834,4.1-4.098,4.1H26.597c-2.263,0-4.097-1.835-4.097-4.1V9.599
				c0-2.264,1.834-4.099,4.097-4.099h45.807c2.263,0,4.097,1.835,4.097,4.099L76.5,92.4L76.5,92.4z"/>
			<path fill="#333333" d="M76.5,90.4c0,2.265-1.834,4.1-4.098,4.1H26.597c-2.263,0-4.097-1.835-4.097-4.1V7.599
				c0-2.264,1.834-4.099,4.097-4.099h45.807c2.263,0,4.097,1.835,4.097,4.099L76.5,90.4L76.5,90.4z"/>
			<rect x="25.5" y="15.5" fill="#999999" width="48" height="70"/>
			<circle fill="#E6E6E6" cx="51.117" cy="89.643" r="2.175"/>
			<path fill="#B3B3B3" d="M55.5,10c0,0.276-0.225,0.5-0.5,0.5H43c-0.276,0-0.5-0.224-0.5-0.5l0,0c0-0.276,0.224-0.5,0.5-0.5h12
				C55.275,9.5,55.5,9.724,55.5,10L55.5,10z"/>
		</g>
	</g>
	<g id="圖層_3">
		<g>
			<rect x="25.5" y="49.5" fill="#E6E6E6" width="15" height="8"/>
			<rect x="25.5" y="15.5" fill="#29ABE2" width="48" height="33"/>
			<rect x="41.5" y="49.5" fill="#E6E6E6" width="16" height="8"/>
			<rect x="58.5" y="49.5" fill="#E6E6E6" width="15" height="8"/>
			<rect x="25.5" y="58.5" fill="#E6E6E6" width="15" height="9"/>
			<rect x="41.5" y="58.5" fill="#E6E6E6" width="16" height="9"/>
			<rect x="58.5" y="58.5" fill="#E6E6E6" width="15" height="9"/>
			<rect x="25.5" y="68.5" fill="#E6E6E6" width="15" height="8"/>
			<rect x="41.5" y="68.5" fill="#E6E6E6" width="16" height="8"/>
			<rect x="58.5" y="68.5" fill="#E6E6E6" width="15" height="8"/>
			<rect x="25.5" y="77.5" fill="#E6E6E6" width="15" height="8"/>
			<rect x="41.5" y="77.5" fill="#E6E6E6" width="16" height="8"/>
			<rect x="58.5" y="77.5" fill="#E6E6E6" width="15" height="8"/>
			<g>
				<path fill="#FFFFFF" d="M39.891,24.63c0,2.945-1.193,4.992-3.622,4.992c-2.475,0-3.563-2.224-3.578-4.933
					c0-2.783,1.163-4.963,3.637-4.963C38.874,19.727,39.891,22.009,39.891,24.63z M34.928,24.689c0,2.193,0.53,3.239,1.385,3.239
					c0.868,0,1.34-1.09,1.34-3.269c0-2.121-0.457-3.24-1.354-3.24C35.487,21.42,34.928,22.451,34.928,24.689z"/>
				<path fill="#FFFFFF" d="M41.686,27.854c0.295,0.03,0.53,0.016,0.972,0c0.692-0.044,1.384-0.235,1.885-0.589
					c0.633-0.427,1.046-1.06,1.208-1.781l-0.03-0.015c-0.427,0.441-1.06,0.692-1.929,0.692c-1.619,0-2.975-1.119-2.975-2.989
					s1.502-3.446,3.607-3.446c2.46,0,3.623,1.885,3.623,4.123c0,2.003-0.634,3.446-1.679,4.418c-0.913,0.824-2.18,1.266-3.667,1.325
					c-0.368,0.029-0.766,0.015-1.016,0L41.686,27.854L41.686,27.854z M43.04,23.04c0,0.824,0.457,1.531,1.354,1.531
					c0.619,0,1.046-0.279,1.252-0.618c0.073-0.147,0.104-0.295,0.104-0.574c0.015-1.017-0.368-2.018-1.414-2.018
					C43.585,21.361,43.04,22.039,43.04,23.04z"/>
				<path fill="#FFFFFF" d="M50.727,24.527c-0.929-0.486-1.386-1.267-1.386-2.105c0-1.62,1.458-2.695,3.372-2.695
					c2.238,0,3.166,1.296,3.166,2.459c0,0.825-0.441,1.635-1.398,2.106v0.044c0.941,0.354,1.769,1.148,1.769,2.37
					c0,1.738-1.458,2.916-3.683,2.916c-2.429,0-3.547-1.369-3.547-2.665c0-1.148,0.662-1.944,1.708-2.4V24.527L50.727,24.527z
					 M53.965,26.883c0-0.839-0.634-1.34-1.502-1.575c-0.736,0.206-1.163,0.736-1.163,1.429c-0.015,0.691,0.515,1.34,1.354,1.34
					C53.436,28.076,53.965,27.561,53.965,26.883z M51.461,22.348c0,0.648,0.575,1.061,1.341,1.296
					c0.515-0.147,0.972-0.618,0.972-1.207c0-0.604-0.338-1.193-1.162-1.193C51.844,21.243,51.461,21.759,51.461,22.348z"/>
				<path fill="#FFFFFF" d="M57.35,29.46v-1.354l1.225-1.104c2.104-1.885,3.119-2.96,3.136-4.079c0-0.78-0.456-1.398-1.562-1.398
					c-0.823,0-1.547,0.412-2.047,0.78l-0.634-1.59c0.707-0.545,1.841-0.987,3.122-0.987c2.18,0,3.355,1.267,3.355,2.989
					c0,1.62-1.147,2.901-2.547,4.138l-0.883,0.736v0.029h3.621v1.841L57.35,29.46L57.35,29.46z"/>
				<path fill="#FFFFFF" d="M28.429,37.062H28.4l-1.825,0.868l-0.368-1.679l2.547-1.178h1.841v9.571H28.43L28.429,37.062
					L28.429,37.062z"/>
				<path fill="#FFFFFF" d="M34.937,39.712c-0.928-0.486-1.385-1.267-1.385-2.105c0-1.62,1.458-2.695,3.372-2.695
					c2.238,0,3.166,1.296,3.166,2.459c0,0.825-0.441,1.635-1.399,2.106v0.044c0.942,0.354,1.768,1.148,1.768,2.37
					c0,1.738-1.458,2.916-3.682,2.916c-2.43,0-3.548-1.369-3.548-2.665c0-1.148,0.662-1.944,1.708-2.4V39.712L34.937,39.712z
					 M38.176,42.067c0-0.839-0.634-1.34-1.502-1.575c-0.736,0.206-1.163,0.736-1.163,1.429c-0.015,0.691,0.515,1.34,1.354,1.34
					C37.646,43.261,38.176,42.745,38.176,42.067z M35.672,37.532c0,0.648,0.575,1.061,1.341,1.296
					c0.515-0.147,0.972-0.618,0.972-1.207c0-0.604-0.339-1.193-1.163-1.193C36.055,36.428,35.672,36.943,35.672,37.532z"/>
				<path fill="#FFFFFF" d="M41.575,42.45c0.397,0.222,1.311,0.589,2.224,0.589c1.163,0,1.752-0.559,1.752-1.266
					c0-0.957-0.942-1.385-1.929-1.385h-0.913v-1.604h0.884c0.751,0,1.693-0.295,1.693-1.104c0-0.574-0.456-1.001-1.413-1.001
					c-0.781,0-1.605,0.339-1.988,0.574l-0.456-1.62c0.574-0.368,1.708-0.722,2.959-0.722c2.032,0,3.166,1.075,3.166,2.386
					c0,1.016-0.574,1.826-1.752,2.224v0.029c1.148,0.206,2.076,1.075,2.076,2.341c0,1.679-1.487,2.916-3.917,2.916
					c-1.237,0-2.282-0.324-2.842-0.663L41.575,42.45z"/>
				<path fill="#FFFFFF" d="M51.837,37.062h-0.028l-1.826,0.868l-0.368-1.679l2.547-1.178h1.841v9.571h-2.165L51.837,37.062
					L51.837,37.062z"/>
				<path fill="#FFFFFF" d="M56.798,44.645V43.29l1.224-1.104c2.104-1.885,3.121-2.96,3.137-4.079c0-0.78-0.456-1.398-1.563-1.398
					c-0.824,0-1.546,0.412-2.047,0.78l-0.633-1.59c0.707-0.545,1.841-0.987,3.122-0.987c2.179,0,3.356,1.267,3.356,2.989
					c0,1.62-1.148,2.901-2.547,4.138l-0.886,0.736v0.029h3.622v1.841H56.798z"/>
				<path fill="#FFFFFF" d="M66.146,39.712c-0.929-0.486-1.385-1.267-1.385-2.105c0-1.62,1.459-2.695,3.371-2.695
					c2.238,0,3.166,1.296,3.166,2.459c0,0.825-0.439,1.635-1.398,2.106v0.044c0.941,0.354,1.769,1.148,1.769,2.37
					c0,1.738-1.458,2.916-3.683,2.916c-2.43,0-3.547-1.369-3.547-2.665c0-1.148,0.662-1.944,1.707-2.4V39.712z M69.387,42.067
					c0-0.839-0.634-1.34-1.502-1.575c-0.736,0.206-1.162,0.736-1.162,1.429c-0.016,0.691,0.514,1.34,1.354,1.34
					C68.855,43.261,69.387,42.745,69.387,42.067z M66.883,37.532c0,0.648,0.575,1.061,1.342,1.296
					c0.516-0.147,0.971-0.618,0.971-1.207c0-0.604-0.338-1.193-1.161-1.193C67.266,36.428,66.883,36.943,66.883,37.532z"/>
			</g>
		</g>
	</g>
</g>
</svg>
