<?xml version="1.0" encoding="utf-8"?>
<!-- Generator: Adobe Illustrator 15.0.0, SVG Export Plug-In . SVG Version: 6.00 Build 0)  -->
<!DOCTYPE svg PUBLIC "-//W3C//DTD SVG 1.1//EN" "http://www.w3.org/Graphics/SVG/1.1/DTD/svg11.dtd">
<svg version="1.1" id="圖層_1" xmlns="http://www.w3.org/2000/svg" xmlns:xlink="http://www.w3.org/1999/xlink" x="0px" y="0px"
	 width="100px" height="100px" viewBox="0 0 100 100" enable-background="new 0 0 100 100" xml:space="preserve">
<g id="圖層_2">
	<g id="圖層_2_1_">
		<g>
			<path fill="#CCCCCC" d="M88.5,90.9c0,2.265-1.834,4.1-4.098,4.1H15.597c-2.263,0-4.097-1.835-4.097-4.1V9.1
				c0-2.265,1.834-4.1,4.097-4.1h68.807C86.666,5,88.5,6.835,88.5,9.1V90.9z"/>
			<path fill="#333333" d="M88.5,88.9c0,2.265-1.834,4.1-4.098,4.1H15.597c-2.263,0-4.097-1.835-4.097-4.1V7.1
				c0-2.265,1.834-4.1,4.097-4.1h68.807C86.666,3,88.5,4.835,88.5,7.1V88.9z"/>
			<rect x="14.5" y="7" fill="#F2F2F2" width="71" height="76"/>
			<circle fill="#FFFFFF" cx="50.385" cy="87.643" r="2.174"/>
		</g>
	</g>
</g>
<g id="圖層_3">
	<rect x="14" y="6.5" fill="#3B5999" width="72" height="8"/>
	<rect x="51" y="30.5" fill="#8B4C0F" width="26" height="5"/>
	<rect x="51" y="23.5" fill="#B6A582" width="26" height="5"/>
	<rect x="51" y="37.5" fill="#BB7A9A" width="26" height="5"/>
	<g>
		<path fill="#0071BC" d="M20.891,47.904h1.394v2.568h0.019c0.146-0.202,0.33-0.357,0.55-0.469c0.211-0.109,0.468-0.174,0.725-0.174
			c0.89,0,1.568,0.615,1.568,1.972v2.613h-1.394v-2.466c0-0.589-0.202-0.991-0.725-0.991c-0.367,0-0.597,0.238-0.697,0.495
			c-0.036,0.083-0.046,0.202-0.046,0.303v2.659h-1.394V47.904L20.891,47.904z"/>
		<path fill="#0071BC" d="M27.312,48.721v1.211h1v1.026h-1v1.623c0,0.541,0.138,0.789,0.551,0.789c0.192,0,0.284-0.011,0.412-0.037
			l0.01,1.056c-0.175,0.063-0.514,0.118-0.899,0.118c-0.449,0-0.825-0.155-1.055-0.385c-0.256-0.267-0.385-0.697-0.385-1.33v-1.834
			H25.35v-1.026h0.596v-0.835L27.312,48.721z"/>
		<path fill="#0071BC" d="M30.219,48.721v1.211h1v1.026h-1v1.623c0,0.541,0.138,0.789,0.551,0.789c0.192,0,0.284-0.011,0.412-0.037
			l0.01,1.056c-0.175,0.063-0.514,0.118-0.899,0.118c-0.449,0-0.825-0.155-1.055-0.385c-0.257-0.267-0.385-0.697-0.385-1.33v-1.834
			h-0.596v-1.026h0.596v-0.835L30.219,48.721z"/>
		<path fill="#0071BC" d="M31.568,51.436c0-0.588-0.019-1.082-0.037-1.503h1.211l0.064,0.623h0.018
			c0.33-0.468,0.844-0.725,1.495-0.725c0.981,0,1.861,0.854,1.861,2.283c0,1.633-1.036,2.402-2.035,2.402
			c-0.541,0-0.963-0.221-1.165-0.514h-0.019v2.229h-1.394L31.568,51.436L31.568,51.436z M32.962,52.49
			c0,0.109,0.01,0.201,0.027,0.293c0.092,0.376,0.413,0.66,0.816,0.66c0.605,0,0.963-0.506,0.963-1.267
			c0-0.715-0.321-1.256-0.944-1.256c-0.395,0-0.743,0.293-0.835,0.705c-0.018,0.074-0.027,0.166-0.027,0.248V52.49z"/>
		<path fill="#0071BC" d="M36.585,53.205c0.257,0.154,0.789,0.33,1.202,0.33c0.422,0,0.596-0.139,0.596-0.367
			c0-0.238-0.138-0.35-0.651-0.521c-0.936-0.313-1.293-0.815-1.283-1.35c0-0.844,0.715-1.476,1.824-1.476
			c0.523,0,0.981,0.128,1.257,0.266l-0.238,0.963c-0.202-0.11-0.597-0.257-0.973-0.257c-0.339,0-0.531,0.139-0.531,0.357
			c0,0.221,0.174,0.33,0.724,0.522c0.854,0.293,1.202,0.733,1.211,1.384c0,0.844-0.651,1.459-1.935,1.459
			c-0.587,0-1.11-0.138-1.449-0.32L36.585,53.205z"/>
		<path fill="#0071BC" d="M40.025,50.721c0-0.496,0.339-0.845,0.816-0.845c0.485,0,0.807,0.339,0.815,0.845
			c0,0.478-0.32,0.834-0.825,0.834C40.355,51.555,40.025,51.197,40.025,50.721z M40.025,53.682c0-0.494,0.339-0.844,0.816-0.844
			c0.485,0,0.807,0.34,0.815,0.844c0,0.478-0.32,0.836-0.825,0.836C40.355,54.518,40.025,54.158,40.025,53.682z"/>
		<path fill="#0071BC" d="M41.631,54.771l1.963-6.647h0.926l-1.962,6.647H41.631z"/>
		<path fill="#0071BC" d="M44.209,54.771l1.963-6.647h0.926l-1.962,6.647H44.209z"/>
		<path fill="#0071BC" d="M48.162,49.932l0.366,1.843c0.083,0.457,0.175,0.953,0.248,1.467h0.027
			c0.083-0.514,0.221-1.018,0.321-1.458l0.477-1.852h1.101l0.448,1.787c0.129,0.514,0.248,1.01,0.33,1.522h0.02
			c0.064-0.505,0.156-1.019,0.266-1.53l0.377-1.779h1.366l-1.376,4.483h-1.302l-0.422-1.567c-0.12-0.439-0.202-0.844-0.294-1.402
			h-0.019c-0.082,0.56-0.174,0.98-0.284,1.394l-0.449,1.577h-1.312l-1.312-4.483L48.162,49.932L48.162,49.932z"/>
		<path fill="#0071BC" d="M54.84,49.932l0.366,1.843c0.083,0.457,0.175,0.953,0.248,1.467h0.026
			c0.084-0.514,0.222-1.018,0.321-1.458l0.478-1.852h1.101l0.449,1.787c0.129,0.514,0.248,1.01,0.33,1.522h0.019
			c0.064-0.505,0.156-1.019,0.266-1.53l0.377-1.779h1.367l-1.377,4.483h-1.302l-0.422-1.567c-0.12-0.439-0.202-0.844-0.294-1.402
			h-0.02c-0.082,0.56-0.174,0.98-0.283,1.394l-0.449,1.577h-1.313l-1.312-4.483L54.84,49.932L54.84,49.932z"/>
		<path fill="#0071BC" d="M61.52,49.932l0.365,1.843c0.083,0.457,0.176,0.953,0.248,1.467h0.027c0.083-0.514,0.221-1.018,0.32-1.458
			l0.478-1.852h1.101l0.449,1.787c0.129,0.514,0.248,1.01,0.33,1.522h0.02c0.063-0.505,0.156-1.019,0.266-1.53l0.376-1.779h1.367
			l-1.376,4.483h-1.303l-0.422-1.567c-0.119-0.439-0.201-0.844-0.293-1.402h-0.02c-0.082,0.56-0.174,0.98-0.284,1.394l-0.448,1.577
			h-1.313l-1.313-4.483L61.52,49.932L61.52,49.932z"/>
		<path fill="#0071BC" d="M66.52,53.673c0-0.505,0.338-0.854,0.824-0.854c0.477,0,0.807,0.341,0.815,0.854
			c0,0.485-0.33,0.845-0.834,0.845C66.857,54.518,66.52,54.158,66.52,53.673z"/>
		<path fill="#0071BC" d="M21.056,64.928v-3.457h-0.597v-1.027h0.597V60.27c0-0.541,0.165-1.138,0.56-1.504
			c0.357-0.33,0.834-0.449,1.247-0.449c0.303,0,0.541,0.047,0.733,0.093l-0.055,1.071c-0.119-0.035-0.267-0.063-0.449-0.063
			c-0.459,0-0.651,0.358-0.651,0.798v0.229h0.898v1.027h-0.89v3.457H21.056L21.056,64.928z"/>
		<path fill="#0071BC" d="M27.292,63.846c0,0.422,0.019,0.836,0.073,1.082h-1.257l-0.082-0.449h-0.027
			c-0.294,0.357-0.752,0.551-1.284,0.551c-0.908,0-1.449-0.66-1.449-1.375c0-1.165,1.046-1.715,2.632-1.715v-0.056
			c0-0.247-0.128-0.587-0.815-0.587c-0.459,0-0.945,0.155-1.238,0.34l-0.257-0.898c0.312-0.176,0.926-0.403,1.742-0.403
			c1.495,0,1.963,0.88,1.963,1.942L27.292,63.846L27.292,63.846z M25.943,62.811c-0.733,0-1.302,0.174-1.302,0.705
			c0,0.357,0.238,0.532,0.55,0.532c0.34,0,0.633-0.229,0.725-0.514c0.019-0.073,0.027-0.156,0.027-0.238V62.811z"/>
		<path fill="#0071BC" d="M31.311,64.809c-0.247,0.119-0.715,0.211-1.247,0.211c-1.449,0-2.375-0.89-2.375-2.293
			c0-1.311,0.898-2.384,2.567-2.384c0.367,0,0.771,0.064,1.064,0.175l-0.22,1.035c-0.165-0.072-0.412-0.137-0.779-0.137
			c-0.733,0-1.211,0.521-1.201,1.256c0,0.816,0.55,1.258,1.229,1.258c0.33,0,0.587-0.057,0.798-0.147L31.311,64.809z"/>
		<path fill="#0071BC" d="M32.596,63.131c0.036,0.577,0.614,0.854,1.265,0.854c0.478,0,0.862-0.064,1.238-0.192l0.184,0.944
			c-0.459,0.191-1.018,0.283-1.623,0.283c-1.522,0-2.394-0.879-2.394-2.283c0-1.137,0.706-2.394,2.265-2.394
			c1.449,0,2,1.128,2,2.237c0,0.238-0.028,0.449-0.046,0.551H32.596L32.596,63.131z M34.236,62.177c0-0.339-0.146-0.907-0.788-0.907
			c-0.587,0-0.825,0.541-0.862,0.907H34.236z"/>
		<path fill="#0071BC" d="M35.907,58.417h1.394v2.56h0.019c0.266-0.387,0.733-0.634,1.357-0.634c1.073,0,1.853,0.89,1.843,2.265
			c0,1.615-1.018,2.422-2.045,2.422c-0.522,0-1.036-0.192-1.348-0.725h-0.019l-0.055,0.623H35.87
			c0.019-0.293,0.037-0.834,0.037-1.339V58.417z M37.301,63.021c0,0.092,0.01,0.174,0.027,0.248c0.092,0.365,0.413,0.66,0.816,0.66
			c0.597,0,0.963-0.459,0.963-1.267c0-0.697-0.312-1.247-0.963-1.247c-0.376,0-0.725,0.284-0.816,0.688
			c-0.018,0.082-0.027,0.166-0.027,0.258V63.021z"/>
		<path fill="#0071BC" d="M45.391,62.636c0,1.642-1.164,2.394-2.365,2.394c-1.312,0-2.32-0.861-2.32-2.312
			c0-1.458,0.954-2.384,2.402-2.384C44.474,60.334,45.391,61.277,45.391,62.636z M42.145,62.682c0,0.771,0.321,1.348,0.917,1.348
			c0.551,0,0.89-0.54,0.89-1.356c0-0.659-0.257-1.339-0.89-1.339C42.401,61.333,42.145,62.021,42.145,62.682z"/>
		<path fill="#0071BC" d="M50.252,62.636c0,1.642-1.164,2.394-2.365,2.394c-1.312,0-2.32-0.861-2.32-2.312
			c0-1.458,0.954-2.384,2.402-2.384C49.335,60.334,50.252,61.277,50.252,62.636z M47.006,62.682c0,0.771,0.321,1.348,0.917,1.348
			c0.551,0,0.89-0.54,0.89-1.356c0-0.659-0.257-1.339-0.89-1.339C47.263,61.333,47.006,62.021,47.006,62.682z"/>
		<path fill="#0071BC" d="M52.052,62.333h0.019c0.102-0.192,0.212-0.376,0.322-0.541l0.906-1.349h1.68l-1.605,1.815l1.835,2.668
			h-1.715L52.4,63.085l-0.35,0.438v1.403h-1.394v-6.511h1.394L52.052,62.333L52.052,62.333z"/>
		<path fill="#0071BC" d="M55.107,64.186c0-0.504,0.338-0.854,0.824-0.854c0.478,0,0.807,0.34,0.815,0.854
			c0,0.485-0.33,0.844-0.834,0.844C55.445,65.029,55.107,64.671,55.107,64.186z"/>
		<path fill="#0071BC" d="M60.499,64.809c-0.247,0.119-0.715,0.211-1.247,0.211c-1.449,0-2.375-0.89-2.375-2.293
			c0-1.311,0.898-2.384,2.566-2.384c0.367,0,0.771,0.064,1.064,0.175l-0.221,1.035c-0.165-0.072-0.412-0.137-0.779-0.137
			c-0.732,0-1.211,0.521-1.201,1.256c0,0.816,0.551,1.258,1.229,1.258c0.33,0,0.587-0.057,0.798-0.147L60.499,64.809z"/>
		<path fill="#0071BC" d="M65.141,62.636c0,1.642-1.164,2.394-2.365,2.394c-1.312,0-2.319-0.861-2.319-2.312
			c0-1.458,0.954-2.384,2.401-2.384C64.225,60.334,65.141,61.277,65.141,62.636z M61.895,62.682c0,0.771,0.321,1.348,0.918,1.348
			c0.551,0,0.89-0.54,0.89-1.356c0-0.659-0.257-1.339-0.89-1.339C62.15,61.333,61.895,62.021,61.895,62.682z"/>
		<path fill="#0071BC" d="M65.546,61.874c0-0.56-0.019-1.026-0.037-1.431h1.185l0.055,0.604h0.027
			c0.191-0.293,0.597-0.715,1.356-0.715c0.587,0,1.036,0.302,1.229,0.771h0.019c0.175-0.238,0.367-0.422,0.587-0.551
			c0.248-0.138,0.521-0.22,0.854-0.22c0.861,0,1.514,0.604,1.514,1.953v2.641h-1.357v-2.438c0-0.65-0.211-1.026-0.66-1.026
			c-0.33,0-0.549,0.22-0.65,0.485c-0.027,0.102-0.046,0.238-0.046,0.357v2.622h-1.36v-2.521c0-0.561-0.201-0.944-0.65-0.944
			c-0.357,0-0.567,0.274-0.65,0.495c-0.046,0.109-0.055,0.238-0.055,0.357v2.612h-1.357L65.546,61.874L65.546,61.874z"/>
		<path fill="#0071BC" d="M72.563,65.285l1.963-6.648h0.927l-1.962,6.648H72.563z"/>
		<path fill="#0071BC" d="M20.881,74.229c0.257,0.156,0.789,0.332,1.202,0.332c0.422,0,0.596-0.139,0.596-0.367
			c0-0.238-0.138-0.35-0.651-0.522c-0.936-0.313-1.293-0.815-1.283-1.349c0-0.844,0.715-1.477,1.824-1.477
			c0.523,0,0.981,0.129,1.257,0.266l-0.238,0.964c-0.202-0.11-0.597-0.257-0.973-0.257c-0.339,0-0.531,0.138-0.531,0.356
			c0,0.22,0.174,0.33,0.724,0.522c0.854,0.294,1.202,0.732,1.211,1.385c0,0.844-0.651,1.458-1.935,1.458
			c-0.587,0-1.11-0.138-1.449-0.319L20.881,74.229z"/>
		<path fill="#0071BC" d="M24.413,68.93h1.394v2.567h0.019c0.146-0.202,0.33-0.356,0.55-0.468c0.211-0.11,0.468-0.174,0.725-0.174
			c0.89,0,1.568,0.613,1.568,1.972v2.612h-1.394v-2.467c0-0.587-0.202-0.99-0.725-0.99c-0.367,0-0.597,0.238-0.697,0.496
			c-0.036,0.082-0.046,0.201-0.046,0.303v2.658h-1.394V68.93z"/>
		<path fill="#0071BC" d="M30.77,69.709c0,0.385-0.284,0.697-0.752,0.697c-0.44,0-0.725-0.313-0.725-0.697
			c0-0.395,0.294-0.697,0.743-0.697C30.485,69.012,30.761,69.314,30.77,69.709z M29.33,75.439v-4.483h1.394v4.483H29.33z"/>
		<path fill="#0071BC" d="M31.385,72.387c0-0.56-0.019-1.027-0.037-1.431h1.211l0.064,0.624h0.027
			c0.184-0.294,0.633-0.725,1.385-0.725c0.917,0,1.604,0.613,1.604,1.935v2.649h-1.394v-2.484c0-0.577-0.202-0.973-0.706-0.973
			c-0.386,0-0.615,0.267-0.716,0.522c-0.036,0.093-0.046,0.22-0.046,0.349v2.586h-1.394v-3.053H31.385z"/>
		<path fill="#0071BC" d="M36.302,72.387c0-0.56-0.019-1.027-0.037-1.431h1.184l0.055,0.604h0.027
			c0.192-0.293,0.597-0.715,1.357-0.715c0.587,0,1.036,0.303,1.229,0.771h0.019c0.175-0.238,0.367-0.423,0.587-0.55
			c0.248-0.139,0.522-0.221,0.853-0.221c0.862,0,1.514,0.604,1.514,1.952v2.642h-1.36v-2.438c0-0.651-0.211-1.026-0.66-1.026
			c-0.33,0-0.55,0.221-0.651,0.485c-0.027,0.101-0.046,0.238-0.046,0.356v2.623h-1.357v-2.521c0-0.56-0.201-0.944-0.65-0.944
			c-0.358,0-0.568,0.274-0.651,0.494c-0.046,0.11-0.055,0.239-0.055,0.358v2.612h-1.357v-3.053H36.302z"/>
		<path fill="#0071BC" d="M45.171,69.709c0,0.385-0.284,0.697-0.752,0.697c-0.44,0-0.725-0.313-0.725-0.697
			c0-0.395,0.294-0.697,0.743-0.697S45.162,69.314,45.171,69.709z M43.731,75.439v-4.483h1.394v4.483H43.731z"/>
		<path fill="#0071BC" d="M45.787,72.387c0-0.56-0.019-1.027-0.037-1.431h1.211l0.064,0.624h0.027
			c0.184-0.294,0.633-0.725,1.385-0.725c0.917,0,1.604,0.613,1.604,1.935v2.649h-1.394v-2.484c0-0.577-0.202-0.973-0.706-0.973
			c-0.386,0-0.615,0.267-0.716,0.522c-0.036,0.093-0.046,0.22-0.046,0.349v2.586h-1.394v-3.053H45.787z"/>
		<path fill="#0071BC" d="M54.949,74.789c0,0.861-0.176,1.568-0.688,2.018c-0.486,0.422-1.156,0.551-1.816,0.551
			c-0.596,0-1.211-0.118-1.613-0.34l0.275-1.063c0.283,0.165,0.771,0.339,1.302,0.339c0.661,0,1.165-0.349,1.165-1.183v-0.284h-0.02
			c-0.266,0.366-0.695,0.577-1.209,0.577c-1.111,0-1.899-0.898-1.899-2.184c0-1.447,0.926-2.365,2.036-2.365
			c0.615,0,1,0.267,1.229,0.643h0.019l0.047-0.541h1.209c-0.019,0.293-0.035,0.669-0.035,1.339v2.493H54.949z M53.555,72.781
			c0-0.083-0.009-0.176-0.027-0.258c-0.101-0.366-0.365-0.613-0.752-0.613c-0.514,0-0.916,0.458-0.916,1.273
			c0,0.67,0.33,1.192,0.908,1.192c0.365,0,0.649-0.237,0.741-0.56c0.037-0.11,0.046-0.258,0.046-0.377V72.781L53.555,72.781z"/>
		<path fill="#0071BC" d="M55.354,74.697c0-0.504,0.34-0.854,0.826-0.854c0.477,0,0.807,0.34,0.814,0.854
			c0,0.486-0.33,0.844-0.834,0.844C55.693,75.541,55.354,75.184,55.354,74.697z"/>
		<path fill="#0071BC" d="M60.747,75.32c-0.247,0.119-0.715,0.212-1.247,0.212c-1.449,0-2.375-0.89-2.375-2.293
			c0-1.313,0.898-2.384,2.566-2.384c0.367,0,0.771,0.063,1.064,0.174l-0.221,1.035c-0.165-0.072-0.412-0.138-0.779-0.138
			c-0.732,0-1.211,0.523-1.201,1.257c0,0.816,0.551,1.256,1.229,1.256c0.329,0,0.587-0.055,0.798-0.146L60.747,75.32z"/>
		<path fill="#0071BC" d="M61.061,68.93h1.394v2.567h0.019c0.146-0.202,0.33-0.356,0.551-0.468c0.211-0.11,0.468-0.174,0.725-0.174
			c0.891,0,1.568,0.613,1.568,1.972v2.612h-1.395v-2.467c0-0.587-0.201-0.99-0.725-0.99c-0.367,0-0.598,0.238-0.697,0.496
			c-0.036,0.082-0.046,0.201-0.046,0.303v2.658h-1.394V68.93z"/>
		<path fill="#0071BC" d="M67.05,73.643c0.036,0.578,0.614,0.854,1.265,0.854c0.479,0,0.862-0.063,1.238-0.192l0.184,0.944
			c-0.459,0.192-1.018,0.284-1.623,0.284c-1.521,0-2.393-0.881-2.393-2.283c0-1.139,0.705-2.395,2.264-2.395
			c1.449,0,2,1.129,2,2.237c0,0.238-0.027,0.449-0.045,0.55H67.05z M68.689,72.689c0-0.34-0.146-0.908-0.787-0.908
			c-0.588,0-0.825,0.541-0.862,0.908H68.689z"/>
		<path fill="#0071BC" d="M70.361,72.387c0-0.56-0.019-1.027-0.036-1.431h1.211L71.6,71.58h0.027
			c0.184-0.294,0.633-0.725,1.385-0.725c0.918,0,1.604,0.613,1.604,1.935v2.649h-1.394v-2.484c0-0.577-0.203-0.973-0.707-0.973
			c-0.386,0-0.615,0.267-0.716,0.522c-0.036,0.093-0.046,0.22-0.046,0.349v2.586h-1.395v-3.053H70.361z"/>
		<path fill="#0071BC" d="M79.523,74.789c0,0.861-0.174,1.568-0.688,2.018c-0.484,0.422-1.154,0.551-1.814,0.551
			c-0.597,0-1.211-0.118-1.614-0.34l0.274-1.063c0.284,0.165,0.771,0.339,1.303,0.339c0.66,0,1.164-0.349,1.164-1.183v-0.284H78.13
			c-0.267,0.366-0.696,0.577-1.21,0.577c-1.109,0-1.898-0.898-1.898-2.184c0-1.447,0.927-2.365,2.037-2.365
			c0.613,0,0.998,0.267,1.229,0.643h0.02l0.045-0.541h1.211c-0.02,0.293-0.037,0.669-0.037,1.339v2.493H79.523z M78.13,72.781
			c0-0.083-0.009-0.176-0.026-0.258c-0.102-0.366-0.367-0.613-0.752-0.613c-0.515,0-0.918,0.458-0.918,1.273
			c0,0.67,0.33,1.192,0.908,1.192c0.366,0,0.65-0.237,0.742-0.56c0.037-0.11,0.046-0.258,0.046-0.377V72.781L78.13,72.781z"/>
	</g>
	<g>
		<rect x="21" y="21.5" fill="#3B5999" width="24" height="23"/>
		<circle fill="#8CA6CD" cx="32.754" cy="27.867" r="8.742"/>
		<path fill="#8CA6CD" d="M40,44.5v-7.312c0-0.933-0.672-1.688-1.604-1.688H27.774C26.841,35.5,26,36.256,26,37.188V44.5H40z"/>
	</g>
</g>
</svg>
