<?xml version="1.0" encoding="utf-8"?>
<!-- Generator: Adobe Illustrator 15.0.0, SVG Export Plug-In . SVG Version: 6.00 Build 0)  -->
<!DOCTYPE svg PUBLIC "-//W3C//DTD SVG 1.1//EN" "http://www.w3.org/Graphics/SVG/1.1/DTD/svg11.dtd">
<svg version="1.1" id="圖層_1" xmlns="http://www.w3.org/2000/svg" xmlns:xlink="http://www.w3.org/1999/xlink" x="0px" y="0px"
	 width="100px" height="100px" viewBox="0 0 100 100" enable-background="new 0 0 100 100" xml:space="preserve">
<g>
	<path fill="#333333" d="M90,75.297C90,77.342,88.343,79,86.299,79H13.701C11.657,79,10,77.342,10,75.297V19.703
		C10,17.658,11.657,16,13.701,16h72.598C88.343,16,90,17.658,90,19.703V75.297z"/>
	<rect x="13" y="20" fill="#00FFFF" width="75" height="53"/>
	<polygon fill="#E6E6E6" points="97.138,80 2.83,80 11.999,77 89.278,77 	"/>
	<polygon fill="#666666" points="1.52,82 2.83,84 97.138,84 98.446,82 	"/>
	<path fill="#B3B3B3" d="M99,81.689C99,82.413,98.414,83,97.69,83H2.31C1.586,83,1,82.413,1,81.689v-0.379
		C1,80.587,1.586,80,2.31,80H97.69c0.724,0,1.31,0.587,1.31,1.311V81.689z"/>
</g>
</svg>
