<?xml version="1.0" encoding="utf-8"?>
<!-- Generator: Adobe Illustrator 15.0.0, SVG Export Plug-In . SVG Version: 6.00 Build 0)  -->
<!DOCTYPE svg PUBLIC "-//W3C//DTD SVG 1.1//EN" "http://www.w3.org/Graphics/SVG/1.1/DTD/svg11.dtd">
<svg version="1.1" xmlns="http://www.w3.org/2000/svg" xmlns:xlink="http://www.w3.org/1999/xlink" x="0px" y="0px" width="100px"
	 height="100px" viewBox="0 0 100 100" enable-background="new 0 0 100 100" xml:space="preserve">
<g id="圖層_1">
	<g id="圖層_1_1_" display="none">
		<g display="inline">
			<path fill="#333333" d="M90,75.297C90,77.342,88.343,79,86.299,79H13.701C11.657,79,10,77.342,10,75.297V19.703
				C10,17.658,11.657,16,13.701,16h72.598C88.343,16,90,17.658,90,19.703V75.297z"/>
			<rect x="13" y="20" fill="#00FFFF" width="75" height="53"/>
			<polygon fill="#E6E6E6" points="97.139,80 2.83,80 11.999,77 89.277,77 			"/>
			<polygon fill="#666666" points="1.52,82 2.83,84 97.139,84 98.445,82 			"/>
			<path fill="#B3B3B3" d="M99,81.689C99,82.413,98.414,83,97.689,83H2.31C1.586,83,1,82.413,1,81.689v-0.379
				C1,80.587,1.586,80,2.31,80h95.379C98.414,80,99,80.587,99,81.311V81.689z"/>
		</g>
	</g>
	<g id="圖層_2">
		<g>
			<path fill="#333333" d="M95,74.65c0,2.401-1.947,4.35-4.35,4.35H8.349C5.947,79,4,77.053,4,74.65v-63.3C4,8.947,5.947,7,8.349,7
				H90.65C93.053,7,95,8.947,95,11.35V74.65z"/>
			<rect x="6" y="11" fill="#FFFFFF" width="86" height="58"/>
			<polygon fill="#666666" points="65.852,94 32.507,94 31.057,91 67.301,91 			"/>
			<path fill="#B3B3B3" d="M65.852,89h-1.865l-2.483-8H36.856l-2.485,8h-1.864c-0.8,0-1.45,0.699-1.45,1.5s0.649,1.5,1.45,1.5
				h33.345c0.801,0,1.449-0.699,1.449-1.5S66.65,89,65.852,89z"/>
			<path fill="#666666" d="M4,75v2.42C4,79.823,5.46,82,7.862,82h82.634c2.4,0,4.504-2.177,4.504-4.58V75H4z"/>
			<path fill="#E6E6E6" d="M4,74v2.42C4,78.823,5.46,81,7.862,81h82.634c2.4,0,4.504-2.177,4.504-4.58V74H4z"/>
			<circle fill="#333333" cx="49.179" cy="77.146" r="2.175"/>
		</g>
	</g>
	<rect x="5.966" y="11" fill="#D6D6D6" width="86" height="5"/>
</g>
<g id="圖層_2_1_">
	<rect x="8.5" y="54.5" fill="#D6D6D6" width="16" height="2"/>
	<rect x="26.5" y="49.5" fill="#D6D6D6" width="61" height="1"/>
	<rect x="26.5" y="51.5" fill="#D6D6D6" width="61" height="1"/>
	<rect x="26.5" y="53.5" fill="#D6D6D6" width="61" height="1"/>
	<rect x="26.5" y="55.5" fill="#D6D6D6" width="61" height="1"/>
	<rect x="26.5" y="57.5" fill="#D6D6D6" width="61" height="1"/>
	<rect x="26.5" y="59.5" fill="#D6D6D6" width="61" height="1"/>
	<rect x="26.5" y="61.5" fill="#D6D6D6" width="61" height="1"/>
	<rect x="26.5" y="63.5" fill="#D6D6D6" width="61" height="1"/>
	<rect x="26.5" y="65.5" fill="#D6D6D6" width="61" height="1"/>
	<rect x="8.5" y="57.5" fill="#D6D6D6" width="16" height="2"/>
	<rect x="8.5" y="60.5" fill="#D6D6D6" width="16" height="2"/>
	<rect x="8.5" y="63.5" fill="#D6D6D6" width="16" height="2"/>
	<rect x="8.5" y="49.5" fill="#DA4A39" width="16" height="4"/>
	<g>
		<path fill="#3B93D9" d="M28.333,29.512c0.294,0.179,0.903,0.378,1.375,0.378c0.482,0,0.682-0.157,0.682-0.42
			c0-0.273-0.158-0.398-0.746-0.599c-1.07-0.356-1.48-0.935-1.47-1.543c0-0.966,0.819-1.69,2.089-1.69
			c0.598,0,1.124,0.147,1.438,0.305l-0.272,1.103c-0.231-0.126-0.683-0.294-1.113-0.294c-0.388,0-0.608,0.157-0.608,0.409
			s0.199,0.378,0.829,0.599c0.977,0.336,1.375,0.84,1.386,1.585c0,0.966-0.745,1.669-2.215,1.669c-0.672,0-1.271-0.157-1.659-0.367
			L28.333,29.512z"/>
		<path fill="#3B93D9" d="M32.372,23.444h1.596v2.939h0.021c0.168-0.231,0.378-0.41,0.63-0.536c0.241-0.126,0.535-0.199,0.829-0.199
			c1.019,0,1.795,0.703,1.795,2.257v2.992h-1.596v-2.824c0-0.672-0.23-1.134-0.829-1.134c-0.42,0-0.683,0.273-0.798,0.567
			c-0.042,0.094-0.053,0.23-0.053,0.346v3.045h-1.596V23.444z"/>
		<path fill="#3B93D9" d="M39.644,24.336c0,0.441-0.326,0.798-0.861,0.798c-0.504,0-0.829-0.356-0.829-0.798
			c0-0.451,0.336-0.798,0.85-0.798S39.634,23.885,39.644,24.336z M37.996,30.897v-5.134h1.596v5.134H37.996z"/>
		<path fill="#3B93D9" d="M40.346,27.401c0-0.641-0.021-1.176-0.042-1.638h1.386l0.073,0.714h0.031
			c0.21-0.336,0.725-0.829,1.585-0.829c1.05,0,1.837,0.703,1.837,2.215v3.034h-1.596v-2.845c0-0.661-0.231-1.113-0.809-1.113
			c-0.441,0-0.703,0.305-0.819,0.599c-0.042,0.105-0.052,0.252-0.052,0.398v2.961h-1.596V27.401z"/>
		<path fill="#3B93D9" d="M48.394,27.611v1.061h-2.75v-1.061H48.394z"/>
		<path fill="#3B93D9" d="M48.822,27.401c0-0.641-0.021-1.176-0.042-1.638h1.354l0.063,0.693h0.031
			c0.221-0.336,0.682-0.819,1.553-0.819c0.672,0,1.188,0.347,1.408,0.882h0.02c0.201-0.272,0.42-0.482,0.672-0.63
			c0.285-0.157,0.6-0.252,0.977-0.252c0.988,0,1.732,0.693,1.732,2.236v3.023h-1.553v-2.793c0-0.745-0.242-1.176-0.756-1.176
			c-0.379,0-0.631,0.252-0.746,0.557c-0.031,0.115-0.053,0.273-0.053,0.41v3.002H51.93v-2.887c0-0.641-0.232-1.082-0.746-1.082
			c-0.409,0-0.65,0.315-0.745,0.567c-0.052,0.126-0.063,0.272-0.063,0.409v2.992h-1.554V27.401z"/>
		<path fill="#3B93D9" d="M58.969,24.336c0,0.441-0.326,0.798-0.861,0.798c-0.504,0-0.83-0.356-0.83-0.798
			c0-0.451,0.336-0.798,0.852-0.798C58.643,23.538,58.957,23.885,58.969,24.336z M57.32,30.897v-5.134h1.596v5.134H57.32z"/>
		<path fill="#3B93D9" d="M59.67,27.401c0-0.641-0.021-1.176-0.043-1.638h1.387l0.072,0.714h0.031
			c0.211-0.336,0.725-0.829,1.586-0.829c1.051,0,1.838,0.703,1.838,2.215v3.034h-1.596v-2.845c0-0.661-0.232-1.113-0.809-1.113
			c-0.441,0-0.703,0.305-0.818,0.599c-0.043,0.105-0.053,0.252-0.053,0.398v2.961H59.67V27.401z"/>
		<path fill="#3B93D9" d="M70.152,30.152c0,0.986-0.199,1.795-0.787,2.31c-0.557,0.482-1.322,0.63-2.078,0.63
			c-0.682,0-1.387-0.137-1.848-0.389l0.314-1.218c0.326,0.189,0.883,0.389,1.49,0.389c0.756,0,1.334-0.399,1.334-1.354v-0.325
			h-0.021c-0.305,0.42-0.797,0.661-1.385,0.661c-1.271,0-2.174-1.028-2.174-2.499c0-1.658,1.061-2.708,2.33-2.708
			c0.705,0,1.145,0.305,1.408,0.735h0.02l0.053-0.62h1.387c-0.021,0.336-0.043,0.767-0.043,1.533V30.152z M68.557,27.853
			c0-0.094-0.01-0.199-0.031-0.293c-0.115-0.42-0.42-0.704-0.861-0.704c-0.588,0-1.049,0.525-1.049,1.46
			c0,0.766,0.377,1.364,1.039,1.364c0.42,0,0.746-0.272,0.85-0.641c0.043-0.126,0.053-0.294,0.053-0.431V27.853z"/>
		<path fill="#3B93D9" d="M75.262,25.386h-2.645l-0.148,1.05c0.148-0.021,0.273-0.021,0.441-0.021c0.65,0,1.322,0.146,1.795,0.493
			c0.516,0.347,0.83,0.913,0.83,1.711c0,1.271-1.092,2.394-2.93,2.394c-0.828,0-1.521-0.188-1.9-0.389L71,29.428
			c0.293,0.147,0.912,0.336,1.533,0.336c0.66,0,1.363-0.315,1.363-1.039c0-0.704-0.557-1.134-1.92-1.134
			c-0.379,0-0.641,0.021-0.914,0.063l0.441-3.58h3.758V25.386z"/>
		<path fill="#3B93D9" d="M76.014,30.897v-0.966l0.871-0.787c1.502-1.344,2.227-2.11,2.236-2.908c0-0.557-0.324-0.997-1.113-0.997
			c-0.588,0-1.102,0.294-1.459,0.557l-0.451-1.135c0.504-0.388,1.313-0.703,2.227-0.703c1.553,0,2.393,0.903,2.393,2.131
			c0,1.155-0.818,2.068-1.816,2.95l-0.629,0.525v0.021h2.582v1.313H76.014z"/>
		<path fill="#3B93D9" d="M81.313,30.897v-0.966l0.871-0.787c1.502-1.344,2.227-2.11,2.236-2.908c0-0.557-0.326-0.997-1.113-0.997
			c-0.588,0-1.102,0.294-1.459,0.557l-0.451-1.135c0.504-0.388,1.313-0.703,2.225-0.703c1.555,0,2.395,0.903,2.395,2.131
			c0,1.155-0.818,2.068-1.816,2.95l-0.629,0.525v0.021h2.582v1.313H81.313z"/>
		<path fill="#3B93D9" d="M32.423,43.611c-0.63,0.283-1.176,0.378-1.932,0.378c-1.743,0-3.275-1.249-3.275-3.307
			c0-2.142,1.564-4,3.926-4c1.858,0,3.181,1.271,3.181,3.034c0,1.543-0.861,2.509-1.995,2.509c-0.493,0-0.85-0.263-0.902-0.809
			h-0.021c-0.336,0.525-0.798,0.809-1.364,0.809c-0.672,0-1.176-0.515-1.176-1.375c0-1.291,0.955-2.446,2.467-2.446
			c0.462,0,0.987,0.115,1.249,0.252l-0.314,1.952c-0.105,0.62-0.032,0.903,0.262,0.914c0.452,0.021,1.018-0.557,1.018-1.774
			c0-1.375-0.882-2.425-2.509-2.425c-1.617,0-3.013,1.249-3.013,3.265c0,1.764,1.112,2.751,2.677,2.751
			c0.535,0,1.113-0.116,1.533-0.326L32.423,43.611z M31.488,39.275c-0.084-0.021-0.199-0.042-0.325-0.042
			c-0.693,0-1.239,0.683-1.239,1.491c0,0.398,0.178,0.65,0.525,0.65c0.389,0,0.798-0.493,0.893-1.103L31.488,39.275z"/>
		<path fill="#3B93D9" d="M34.885,35.444h1.596v2.939h0.021c0.168-0.231,0.378-0.41,0.63-0.536c0.241-0.126,0.535-0.199,0.829-0.199
			c1.019,0,1.795,0.703,1.795,2.257v2.992H38.16v-2.824c0-0.672-0.23-1.134-0.829-1.134c-0.42,0-0.683,0.273-0.798,0.567
			c-0.042,0.094-0.053,0.23-0.053,0.346v3.045h-1.596V35.444z"/>
		<path fill="#3B93D9" d="M45.579,40.272c0,1.88-1.333,2.74-2.708,2.74c-1.501,0-2.656-0.986-2.656-2.646
			c0-1.669,1.092-2.729,2.751-2.729C44.529,37.638,45.579,38.72,45.579,40.272z M41.862,40.325c0,0.882,0.367,1.543,1.05,1.543
			c0.63,0,1.019-0.619,1.019-1.553c0-0.756-0.294-1.533-1.019-1.533C42.156,38.782,41.862,39.569,41.862,40.325z"/>
		<path fill="#3B93D9" d="M47.821,36.378v1.386h1.145v1.176h-1.145v1.858c0,0.619,0.158,0.902,0.63,0.902
			c0.221,0,0.326-0.01,0.473-0.041l0.011,1.207c-0.2,0.073-0.588,0.137-1.029,0.137c-0.514,0-0.944-0.179-1.207-0.441
			c-0.294-0.305-0.441-0.798-0.441-1.522v-2.1h-0.682v-1.176h0.682v-0.955L47.821,36.378z"/>
		<path fill="#3B93D9" d="M49.362,39.401c0-0.641-0.021-1.176-0.042-1.638h1.354l0.063,0.693h0.031
			c0.221-0.336,0.682-0.819,1.553-0.819c0.672,0,1.188,0.347,1.406,0.882h0.021c0.199-0.272,0.42-0.482,0.672-0.63
			c0.283-0.157,0.6-0.252,0.977-0.252c0.986,0,1.732,0.693,1.732,2.236v3.023h-1.555v-2.793c0-0.745-0.24-1.176-0.756-1.176
			c-0.377,0-0.629,0.252-0.744,0.557c-0.031,0.115-0.053,0.273-0.053,0.41v3.002h-1.555v-2.887c0-0.641-0.23-1.082-0.744-1.082
			c-0.41,0-0.65,0.315-0.746,0.567c-0.053,0.126-0.063,0.272-0.063,0.409v2.992h-1.554V39.401z"/>
		<path fill="#3B93D9" d="M62.133,41.659c0,0.482,0.021,0.955,0.084,1.238h-1.439l-0.094-0.515h-0.031
			c-0.336,0.409-0.861,0.63-1.471,0.63c-1.039,0-1.658-0.756-1.658-1.574c0-1.334,1.197-1.963,3.014-1.963v-0.063
			c0-0.283-0.146-0.672-0.936-0.672c-0.523,0-1.08,0.179-1.416,0.389L57.891,38.1c0.357-0.199,1.061-0.462,1.996-0.462
			c1.711,0,2.246,1.008,2.246,2.226V41.659z M60.59,40.473c-0.84,0-1.492,0.199-1.492,0.808c0,0.41,0.273,0.609,0.631,0.609
			c0.389,0,0.725-0.263,0.83-0.588c0.02-0.084,0.031-0.179,0.031-0.273V40.473z"/>
		<path fill="#3B93D9" d="M64.523,36.336c0,0.441-0.326,0.798-0.861,0.798c-0.504,0-0.83-0.356-0.83-0.798
			c0-0.451,0.336-0.798,0.852-0.798C64.197,35.538,64.512,35.885,64.523,36.336z M62.875,42.897v-5.134h1.596v5.134H62.875z"/>
		<path fill="#3B93D9" d="M65.225,35.444h1.596v7.453h-1.596V35.444z"/>
		<path fill="#3B93D9" d="M67.375,42.047c0-0.577,0.389-0.976,0.945-0.976c0.545,0,0.924,0.388,0.934,0.976
			c0,0.557-0.379,0.966-0.955,0.966C67.764,43.013,67.375,42.604,67.375,42.047z"/>
		<path fill="#3B93D9" d="M73.547,42.761c-0.285,0.137-0.82,0.242-1.428,0.242c-1.66,0-2.721-1.019-2.721-2.625
			c0-1.501,1.029-2.729,2.939-2.729c0.42,0,0.883,0.073,1.219,0.199l-0.252,1.187c-0.189-0.084-0.473-0.157-0.893-0.157
			c-0.84,0-1.385,0.599-1.375,1.438c0,0.934,0.629,1.438,1.406,1.438c0.379,0,0.672-0.063,0.914-0.168L73.547,42.761z"/>
		<path fill="#3B93D9" d="M78.855,40.272c0,1.88-1.334,2.74-2.709,2.74c-1.5,0-2.656-0.986-2.656-2.646
			c0-1.669,1.092-2.729,2.752-2.729C77.807,37.638,78.855,38.72,78.855,40.272z M75.139,40.325c0,0.882,0.367,1.543,1.051,1.543
			c0.629,0,1.018-0.619,1.018-1.553c0-0.756-0.293-1.533-1.018-1.533C75.434,38.782,75.139,39.569,75.139,40.325z"/>
		<path fill="#3B93D9" d="M79.314,39.401c0-0.641-0.021-1.176-0.043-1.638h1.355l0.063,0.693h0.031
			c0.221-0.336,0.682-0.819,1.553-0.819c0.672,0,1.188,0.347,1.408,0.882h0.02c0.201-0.272,0.42-0.482,0.672-0.63
			c0.285-0.157,0.6-0.252,0.977-0.252c0.988,0,1.732,0.693,1.732,2.236v3.023h-1.553v-2.793c0-0.745-0.242-1.176-0.756-1.176
			c-0.379,0-0.631,0.252-0.746,0.557c-0.031,0.115-0.053,0.273-0.053,0.41v3.002h-1.553v-2.887c0-0.641-0.232-1.082-0.746-1.082
			c-0.41,0-0.65,0.315-0.746,0.567c-0.051,0.126-0.063,0.272-0.063,0.409v2.992h-1.553V39.401z"/>
	</g>
	<rect x="8.5" y="28.5" fill="#FED300" width="15" height="9"/>
	<g>
		<polygon fill="#FFFFFF" points="23.891,28.5 16.167,33.882 8.442,28.5 		"/>
		<path fill="#4CB847" d="M9.422,28.5l6.745,4.7l6.745-4.7H9.422z"/>
	</g>
</g>
</svg>
