<?xml version="1.0" encoding="utf-8"?>
<!-- Generator: Adobe Illustrator 15.0.0, SVG Export Plug-In . SVG Version: 6.00 Build 0)  -->
<!DOCTYPE svg PUBLIC "-//W3C//DTD SVG 1.1//EN" "http://www.w3.org/Graphics/SVG/1.1/DTD/svg11.dtd">
<svg version="1.1" id="圖層_1" xmlns="http://www.w3.org/2000/svg" xmlns:xlink="http://www.w3.org/1999/xlink" x="0px" y="0px"
	 width="70px" height="146px" viewBox="0 0 70 146" enable-background="new 0 0 70 146" xml:space="preserve">
<g id="圖層_1_2_">
	<g id="圖層_2">
	</g>
	<g id="圖層_1_1_">
		<g>
			<g>
				
					<linearGradient id="SVGID_1_" gradientUnits="userSpaceOnUse" x1="-1181.9609" y1="1467.7246" x2="-1174.48" y2="1467.7246" gradientTransform="matrix(-0.9787 -0.2051 -0.2051 0.9787 -787.736 -1628.0317)">
					<stop  offset="0" style="stop-color:#FFEFCC"/>
					<stop  offset="1" style="stop-color:#FFEFCC"/>
				</linearGradient>
				<path fill="url(#SVGID_1_)" stroke="#000000" stroke-width="2" stroke-miterlimit="10" d="M59.186,56.525
					c0.037,0.008,0.069,0.02,0.106,0.027c3.981,0.835,7.892-1.718,8.726-5.702c0.836-3.984-1.719-7.891-5.701-8.726
					c-0.037-0.008-0.07-0.012-0.105-0.019L59.186,56.525z"/>
				<path fill="#C7B299" d="M61.063,52.944c0.02,0.004,0.033,0.008,0.049,0.012c1.883,0.394,3.727-0.81,4.119-2.69
					c0.396-1.88-0.812-3.724-2.689-4.118c-0.02-0.003-0.033-0.004-0.052-0.008L61.063,52.944z"/>
			</g>
			<g>
				
					<linearGradient id="SVGID_2_" gradientUnits="userSpaceOnUse" x1="779.6113" y1="1831.125" x2="787.0908" y2="1831.125" gradientTransform="matrix(0.9856 -0.1691 0.1691 0.9856 -1076.1152 -1622.2076)">
					<stop  offset="0" style="stop-color:#FFEFCC"/>
					<stop  offset="1" style="stop-color:#FFEFCC"/>
				</linearGradient>
				<path fill="url(#SVGID_2_)" stroke="#000000" stroke-width="2" stroke-miterlimit="10" d="M10.55,56.71
					c-0.036,0.006-0.07,0.017-0.107,0.022c-4.012,0.689-7.823-2.005-8.511-6.018c-0.688-4.012,2.006-7.822,6.018-8.511
					c0.036-0.006,0.073-0.009,0.108-0.015L10.55,56.71z"/>
				<path fill="#C7B299" d="M8.807,53.063c-0.018,0.003-0.034,0.007-0.051,0.01c-1.894,0.324-3.692-0.946-4.017-2.84
					c-0.325-1.893,0.947-3.691,2.841-4.017c0.017-0.003,0.034-0.003,0.051-0.006L8.807,53.063z"/>
			</g>
			<g>
				<g opacity="0.48">
					
						<linearGradient id="SVGID_3_" gradientUnits="userSpaceOnUse" x1="725.8916" y1="-1035.125" x2="784.1758" y2="-1035.125" gradientTransform="matrix(1 0 0 -1 -720.9805 -896.8799)">
						<stop  offset="0" style="stop-color:#999999"/>
						<stop  offset="1" style="stop-color:#808080"/>
					</linearGradient>
					<ellipse fill="url(#SVGID_3_)" cx="34.053" cy="138.245" rx="29.142" ry="3.172"/>
					
						<linearGradient id="SVGID_4_" gradientUnits="userSpaceOnUse" x1="726.2666" y1="-1035.125" x2="783.8008" y2="-1035.125" gradientTransform="matrix(1 0 0 -1 -720.9805 -896.8799)">
						<stop  offset="0" style="stop-color:#999999"/>
						<stop  offset="1" style="stop-color:#808080"/>
					</linearGradient>
					<ellipse fill="url(#SVGID_4_)" cx="34.053" cy="138.245" rx="28.767" ry="3.146"/>
					
						<linearGradient id="SVGID_5_" gradientUnits="userSpaceOnUse" x1="726.6396" y1="-1035.125" x2="783.4277" y2="-1035.125" gradientTransform="matrix(1 0 0 -1 -720.9805 -896.8799)">
						<stop  offset="0" style="stop-color:#999999"/>
						<stop  offset="1" style="stop-color:#808080"/>
					</linearGradient>
					<ellipse fill="url(#SVGID_5_)" cx="34.053" cy="138.245" rx="28.394" ry="3.119"/>
					
						<linearGradient id="SVGID_6_" gradientUnits="userSpaceOnUse" x1="727.0137" y1="-1035.125" x2="783.0537" y2="-1035.125" gradientTransform="matrix(1 0 0 -1 -720.9805 -896.8799)">
						<stop  offset="0" style="stop-color:#999999"/>
						<stop  offset="1" style="stop-color:#808080"/>
					</linearGradient>
					<ellipse fill="url(#SVGID_6_)" cx="34.053" cy="138.245" rx="28.02" ry="3.093"/>
					
						<linearGradient id="SVGID_7_" gradientUnits="userSpaceOnUse" x1="727.3877" y1="-1035.125" x2="782.6797" y2="-1035.125" gradientTransform="matrix(1 0 0 -1 -720.9805 -896.8799)">
						<stop  offset="0" style="stop-color:#999999"/>
						<stop  offset="1" style="stop-color:#808080"/>
					</linearGradient>
					<ellipse fill="url(#SVGID_7_)" cx="34.053" cy="138.245" rx="27.646" ry="3.065"/>
					
						<linearGradient id="SVGID_8_" gradientUnits="userSpaceOnUse" x1="727.7617" y1="-1035.125" x2="782.3057" y2="-1035.125" gradientTransform="matrix(1 0 0 -1 -720.9805 -896.8799)">
						<stop  offset="0" style="stop-color:#999999"/>
						<stop  offset="1" style="stop-color:#808080"/>
					</linearGradient>
					<ellipse fill="url(#SVGID_8_)" cx="34.053" cy="138.245" rx="27.272" ry="3.04"/>
					
						<linearGradient id="SVGID_9_" gradientUnits="userSpaceOnUse" x1="728.1348" y1="-1035.1245" x2="781.9326" y2="-1035.1245" gradientTransform="matrix(1 0 0 -1 -720.9805 -896.8799)">
						<stop  offset="0" style="stop-color:#999999"/>
						<stop  offset="1" style="stop-color:#808080"/>
					</linearGradient>
					<ellipse fill="url(#SVGID_9_)" cx="34.053" cy="138.245" rx="26.899" ry="3.014"/>
					
						<linearGradient id="SVGID_10_" gradientUnits="userSpaceOnUse" x1="728.5078" y1="-1035.125" x2="781.5586" y2="-1035.125" gradientTransform="matrix(1 0 0 -1 -720.9805 -896.8799)">
						<stop  offset="0" style="stop-color:#999999"/>
						<stop  offset="1" style="stop-color:#808080"/>
					</linearGradient>
					<ellipse fill="url(#SVGID_10_)" cx="34.053" cy="138.245" rx="26.525" ry="2.987"/>
					
						<linearGradient id="SVGID_11_" gradientUnits="userSpaceOnUse" x1="728.8828" y1="-1035.125" x2="781.1846" y2="-1035.125" gradientTransform="matrix(1 0 0 -1 -720.9805 -896.8799)">
						<stop  offset="0" style="stop-color:#999999"/>
						<stop  offset="1" style="stop-color:#808080"/>
					</linearGradient>
					<ellipse fill="url(#SVGID_11_)" cx="34.053" cy="138.245" rx="26.151" ry="2.961"/>
					
						<linearGradient id="SVGID_12_" gradientUnits="userSpaceOnUse" x1="729.2559" y1="-1035.125" x2="780.8105" y2="-1035.125" gradientTransform="matrix(1 0 0 -1 -720.9805 -896.8799)">
						<stop  offset="0" style="stop-color:#999999"/>
						<stop  offset="1" style="stop-color:#808080"/>
					</linearGradient>
					<ellipse fill="url(#SVGID_12_)" cx="34.053" cy="138.245" rx="25.777" ry="2.935"/>
					
						<linearGradient id="SVGID_13_" gradientUnits="userSpaceOnUse" x1="729.6309" y1="-1035.1245" x2="780.4365" y2="-1035.1245" gradientTransform="matrix(1 0 0 -1 -720.9805 -896.8799)">
						<stop  offset="0" style="stop-color:#999999"/>
						<stop  offset="1" style="stop-color:#808080"/>
					</linearGradient>
					<ellipse fill="url(#SVGID_13_)" cx="34.053" cy="138.245" rx="25.403" ry="2.908"/>
					
						<linearGradient id="SVGID_14_" gradientUnits="userSpaceOnUse" x1="730.0039" y1="-1035.125" x2="780.0625" y2="-1035.125" gradientTransform="matrix(1 0 0 -1 -720.9805 -896.8799)">
						<stop  offset="0" style="stop-color:#999999"/>
						<stop  offset="1" style="stop-color:#808080"/>
					</linearGradient>
					<ellipse fill="url(#SVGID_14_)" cx="34.053" cy="138.245" rx="25.029" ry="2.882"/>
					
						<linearGradient id="SVGID_15_" gradientUnits="userSpaceOnUse" x1="730.3789" y1="-1035.125" x2="779.6885" y2="-1035.125" gradientTransform="matrix(1 0 0 -1 -720.9805 -896.8799)">
						<stop  offset="0" style="stop-color:#999999"/>
						<stop  offset="1" style="stop-color:#808080"/>
					</linearGradient>
					<ellipse fill="url(#SVGID_15_)" cx="34.053" cy="138.245" rx="24.655" ry="2.854"/>
					
						<linearGradient id="SVGID_16_" gradientUnits="userSpaceOnUse" x1="730.752" y1="-1035.125" x2="779.3145" y2="-1035.125" gradientTransform="matrix(1 0 0 -1 -720.9805 -896.8799)">
						<stop  offset="0" style="stop-color:#999999"/>
						<stop  offset="1" style="stop-color:#808080"/>
					</linearGradient>
					<ellipse fill="url(#SVGID_16_)" cx="34.053" cy="138.245" rx="24.281" ry="2.828"/>
					
						<linearGradient id="SVGID_17_" gradientUnits="userSpaceOnUse" x1="731.127" y1="-1035.125" x2="778.9404" y2="-1035.125" gradientTransform="matrix(1 0 0 -1 -720.9805 -896.8799)">
						<stop  offset="0" style="stop-color:#999999"/>
						<stop  offset="1" style="stop-color:#808080"/>
					</linearGradient>
					<ellipse fill="url(#SVGID_17_)" cx="34.053" cy="138.245" rx="23.907" ry="2.802"/>
					
						<linearGradient id="SVGID_18_" gradientUnits="userSpaceOnUse" x1="731.5" y1="-1035.125" x2="778.5664" y2="-1035.125" gradientTransform="matrix(1 0 0 -1 -720.9805 -896.8799)">
						<stop  offset="0" style="stop-color:#999999"/>
						<stop  offset="1" style="stop-color:#808080"/>
					</linearGradient>
					<ellipse fill="url(#SVGID_18_)" cx="34.053" cy="138.245" rx="23.533" ry="2.774"/>
					
						<linearGradient id="SVGID_19_" gradientUnits="userSpaceOnUse" x1="731.875" y1="-1035.125" x2="778.1924" y2="-1035.125" gradientTransform="matrix(1 0 0 -1 -720.9805 -896.8799)">
						<stop  offset="0" style="stop-color:#999999"/>
						<stop  offset="1" style="stop-color:#808080"/>
					</linearGradient>
					<ellipse fill="url(#SVGID_19_)" cx="34.053" cy="138.245" rx="23.159" ry="2.749"/>
					
						<linearGradient id="SVGID_20_" gradientUnits="userSpaceOnUse" x1="732.248" y1="-1035.1245" x2="777.8184" y2="-1035.1245" gradientTransform="matrix(1 0 0 -1 -720.9805 -896.8799)">
						<stop  offset="0" style="stop-color:#999999"/>
						<stop  offset="1" style="stop-color:#808080"/>
					</linearGradient>
					<ellipse fill="url(#SVGID_20_)" cx="34.053" cy="138.245" rx="22.785" ry="2.723"/>
					
						<linearGradient id="SVGID_21_" gradientUnits="userSpaceOnUse" x1="732.623" y1="-1035.125" x2="777.4443" y2="-1035.125" gradientTransform="matrix(1 0 0 -1 -720.9805 -896.8799)">
						<stop  offset="0" style="stop-color:#999999"/>
						<stop  offset="1" style="stop-color:#808080"/>
					</linearGradient>
					<ellipse fill="url(#SVGID_21_)" cx="34.053" cy="138.245" rx="22.411" ry="2.696"/>
					
						<linearGradient id="SVGID_22_" gradientUnits="userSpaceOnUse" x1="732.9961" y1="-1035.125" x2="777.0703" y2="-1035.125" gradientTransform="matrix(1 0 0 -1 -720.9805 -896.8799)">
						<stop  offset="0" style="stop-color:#999999"/>
						<stop  offset="1" style="stop-color:#808080"/>
					</linearGradient>
					<ellipse fill="url(#SVGID_22_)" cx="34.053" cy="138.245" rx="22.037" ry="2.67"/>
					
						<linearGradient id="SVGID_23_" gradientUnits="userSpaceOnUse" x1="733.3691" y1="-1035.125" x2="776.6973" y2="-1035.125" gradientTransform="matrix(1 0 0 -1 -720.9805 -896.8799)">
						<stop  offset="0" style="stop-color:#999999"/>
						<stop  offset="1" style="stop-color:#808080"/>
					</linearGradient>
					<ellipse fill="url(#SVGID_23_)" cx="34.053" cy="138.245" rx="21.664" ry="2.644"/>
					
						<linearGradient id="SVGID_24_" gradientUnits="userSpaceOnUse" x1="733.7441" y1="-1035.1245" x2="776.3232" y2="-1035.1245" gradientTransform="matrix(1 0 0 -1 -720.9805 -896.8799)">
						<stop  offset="0" style="stop-color:#999999"/>
						<stop  offset="1" style="stop-color:#808080"/>
					</linearGradient>
					<ellipse fill="url(#SVGID_24_)" cx="34.053" cy="138.245" rx="21.29" ry="2.617"/>
					
						<linearGradient id="SVGID_25_" gradientUnits="userSpaceOnUse" x1="734.1172" y1="-1035.125" x2="775.9492" y2="-1035.125" gradientTransform="matrix(1 0 0 -1 -720.9805 -896.8799)">
						<stop  offset="0" style="stop-color:#999999"/>
						<stop  offset="1" style="stop-color:#808080"/>
					</linearGradient>
					<ellipse fill="url(#SVGID_25_)" cx="34.053" cy="138.245" rx="20.916" ry="2.591"/>
					
						<linearGradient id="SVGID_26_" gradientUnits="userSpaceOnUse" x1="734.4922" y1="-1035.125" x2="775.5762" y2="-1035.125" gradientTransform="matrix(1 0 0 -1 -720.9805 -896.8799)">
						<stop  offset="0" style="stop-color:#999999"/>
						<stop  offset="1" style="stop-color:#808080"/>
					</linearGradient>
					<ellipse fill="url(#SVGID_26_)" cx="34.053" cy="138.245" rx="20.542" ry="2.563"/>
					
						<linearGradient id="SVGID_27_" gradientUnits="userSpaceOnUse" x1="735.123" y1="-1035.125" x2="774.9434" y2="-1035.125" gradientTransform="matrix(1 0 0 -1 -720.9805 -896.8799)">
						<stop  offset="0" style="stop-color:#999999"/>
						<stop  offset="1" style="stop-color:#808080"/>
					</linearGradient>
					<ellipse fill="url(#SVGID_27_)" cx="34.053" cy="138.245" rx="19.91" ry="2.491"/>
					
						<linearGradient id="SVGID_28_" gradientUnits="userSpaceOnUse" x1="735.7559" y1="-1035.125" x2="774.3115" y2="-1035.125" gradientTransform="matrix(1 0 0 -1 -720.9805 -896.8799)">
						<stop  offset="0" style="stop-color:#999999"/>
						<stop  offset="1" style="stop-color:#808080"/>
					</linearGradient>
					<ellipse fill="url(#SVGID_28_)" cx="34.053" cy="138.245" rx="19.278" ry="2.417"/>
					
						<linearGradient id="SVGID_29_" gradientUnits="userSpaceOnUse" x1="736.3867" y1="-1035.1245" x2="773.6807" y2="-1035.1245" gradientTransform="matrix(1 0 0 -1 -720.9805 -896.8799)">
						<stop  offset="0" style="stop-color:#999999"/>
						<stop  offset="1" style="stop-color:#808080"/>
					</linearGradient>
					<ellipse fill="url(#SVGID_29_)" cx="34.053" cy="138.245" rx="18.647" ry="2.344"/>
					
						<linearGradient id="SVGID_30_" gradientUnits="userSpaceOnUse" x1="737.0186" y1="-1035.125" x2="773.0488" y2="-1035.125" gradientTransform="matrix(1 0 0 -1 -720.9805 -896.8799)">
						<stop  offset="0" style="stop-color:#999999"/>
						<stop  offset="1" style="stop-color:#808080"/>
					</linearGradient>
					<ellipse fill="url(#SVGID_30_)" cx="34.053" cy="138.245" rx="18.015" ry="2.271"/>
					
						<linearGradient id="SVGID_31_" gradientUnits="userSpaceOnUse" x1="737.6514" y1="-1035.125" x2="772.416" y2="-1035.125" gradientTransform="matrix(1 0 0 -1 -720.9805 -896.8799)">
						<stop  offset="0" style="stop-color:#999999"/>
						<stop  offset="1" style="stop-color:#808080"/>
					</linearGradient>
					<ellipse fill="url(#SVGID_31_)" cx="34.053" cy="138.245" rx="17.382" ry="2.196"/>
					
						<linearGradient id="SVGID_32_" gradientUnits="userSpaceOnUse" x1="738.2822" y1="-1035.125" x2="771.7852" y2="-1035.125" gradientTransform="matrix(1 0 0 -1 -720.9805 -896.8799)">
						<stop  offset="0" style="stop-color:#999999"/>
						<stop  offset="1" style="stop-color:#808080"/>
					</linearGradient>
					<ellipse fill="url(#SVGID_32_)" cx="34.053" cy="138.245" rx="16.751" ry="2.122"/>
					
						<linearGradient id="SVGID_33_" gradientUnits="userSpaceOnUse" x1="738.9141" y1="-1035.1245" x2="771.1533" y2="-1035.1245" gradientTransform="matrix(1 0 0 -1 -720.9805 -896.8799)">
						<stop  offset="0" style="stop-color:#999999"/>
						<stop  offset="1" style="stop-color:#808080"/>
					</linearGradient>
					<ellipse fill="url(#SVGID_33_)" cx="34.053" cy="138.245" rx="16.12" ry="2.049"/>
					
						<linearGradient id="SVGID_34_" gradientUnits="userSpaceOnUse" x1="739.5449" y1="-1035.125" x2="770.5215" y2="-1035.125" gradientTransform="matrix(1 0 0 -1 -720.9805 -896.8799)">
						<stop  offset="0" style="stop-color:#999999"/>
						<stop  offset="1" style="stop-color:#808080"/>
					</linearGradient>
					<ellipse fill="url(#SVGID_34_)" cx="34.053" cy="138.245" rx="15.488" ry="1.976"/>
					
						<linearGradient id="SVGID_35_" gradientUnits="userSpaceOnUse" x1="740.1758" y1="-1035.125" x2="769.8906" y2="-1035.125" gradientTransform="matrix(1 0 0 -1 -720.9805 -896.8799)">
						<stop  offset="0" style="stop-color:#999999"/>
						<stop  offset="1" style="stop-color:#808080"/>
					</linearGradient>
					<ellipse fill="url(#SVGID_35_)" cx="34.053" cy="138.245" rx="14.857" ry="1.901"/>
					
						<linearGradient id="SVGID_36_" gradientUnits="userSpaceOnUse" x1="740.8096" y1="-1035.125" x2="769.2578" y2="-1035.125" gradientTransform="matrix(1 0 0 -1 -720.9805 -896.8799)">
						<stop  offset="0" style="stop-color:#999999"/>
						<stop  offset="1" style="stop-color:#808080"/>
					</linearGradient>
					<ellipse fill="url(#SVGID_36_)" cx="34.053" cy="138.245" rx="14.224" ry="1.827"/>
					
						<linearGradient id="SVGID_37_" gradientUnits="userSpaceOnUse" x1="741.4404" y1="-1035.125" x2="768.627" y2="-1035.125" gradientTransform="matrix(1 0 0 -1 -720.9805 -896.8799)">
						<stop  offset="0" style="stop-color:#999999"/>
						<stop  offset="1" style="stop-color:#808080"/>
					</linearGradient>
					<ellipse fill="url(#SVGID_37_)" cx="34.053" cy="138.245" rx="13.593" ry="1.754"/>
					
						<linearGradient id="SVGID_38_" gradientUnits="userSpaceOnUse" x1="742.0732" y1="-1035.1245" x2="767.9941" y2="-1035.1245" gradientTransform="matrix(1 0 0 -1 -720.9805 -896.8799)">
						<stop  offset="0" style="stop-color:#999999"/>
						<stop  offset="1" style="stop-color:#808080"/>
					</linearGradient>
					<ellipse fill="url(#SVGID_38_)" cx="34.053" cy="138.245" rx="12.96" ry="1.68"/>
					
						<linearGradient id="SVGID_39_" gradientUnits="userSpaceOnUse" x1="742.7031" y1="-1035.125" x2="767.3633" y2="-1035.125" gradientTransform="matrix(1 0 0 -1 -720.9805 -896.8799)">
						<stop  offset="0" style="stop-color:#999999"/>
						<stop  offset="1" style="stop-color:#808080"/>
					</linearGradient>
					<ellipse fill="url(#SVGID_39_)" cx="34.053" cy="138.245" rx="12.33" ry="1.606"/>
					
						<linearGradient id="SVGID_40_" gradientUnits="userSpaceOnUse" x1="743.3359" y1="-1035.125" x2="766.7314" y2="-1035.125" gradientTransform="matrix(1 0 0 -1 -720.9805 -896.8799)">
						<stop  offset="0" style="stop-color:#999999"/>
						<stop  offset="1" style="stop-color:#808080"/>
					</linearGradient>
					<ellipse fill="url(#SVGID_40_)" cx="34.053" cy="138.245" rx="11.698" ry="1.532"/>
					
						<linearGradient id="SVGID_41_" gradientUnits="userSpaceOnUse" x1="743.9668" y1="-1035.125" x2="766.1006" y2="-1035.125" gradientTransform="matrix(1 0 0 -1 -720.9805 -896.8799)">
						<stop  offset="0" style="stop-color:#999999"/>
						<stop  offset="1" style="stop-color:#808080"/>
					</linearGradient>
					<ellipse fill="url(#SVGID_41_)" cx="34.053" cy="138.245" rx="11.067" ry="1.459"/>
					
						<linearGradient id="SVGID_42_" gradientUnits="userSpaceOnUse" x1="744.5986" y1="-1035.1245" x2="765.4688" y2="-1035.1245" gradientTransform="matrix(1 0 0 -1 -720.9805 -896.8799)">
						<stop  offset="0" style="stop-color:#999999"/>
						<stop  offset="1" style="stop-color:#808080"/>
					</linearGradient>
					<ellipse fill="url(#SVGID_42_)" cx="34.053" cy="138.245" rx="10.435" ry="1.385"/>
					
						<linearGradient id="SVGID_43_" gradientUnits="userSpaceOnUse" x1="745.2314" y1="-1035.125" x2="764.8359" y2="-1035.125" gradientTransform="matrix(1 0 0 -1 -720.9805 -896.8799)">
						<stop  offset="0" style="stop-color:#999999"/>
						<stop  offset="1" style="stop-color:#808080"/>
					</linearGradient>
					<ellipse fill="url(#SVGID_43_)" cx="34.053" cy="138.245" rx="9.802" ry="1.312"/>
					
						<linearGradient id="SVGID_44_" gradientUnits="userSpaceOnUse" x1="745.8623" y1="-1035.125" x2="764.2051" y2="-1035.125" gradientTransform="matrix(1 0 0 -1 -720.9805 -896.8799)">
						<stop  offset="0" style="stop-color:#999999"/>
						<stop  offset="1" style="stop-color:#808080"/>
					</linearGradient>
					<ellipse fill="url(#SVGID_44_)" cx="34.053" cy="138.245" rx="9.171" ry="1.237"/>
					
						<linearGradient id="SVGID_45_" gradientUnits="userSpaceOnUse" x1="746.4941" y1="-1035.125" x2="763.5732" y2="-1035.125" gradientTransform="matrix(1 0 0 -1 -720.9805 -896.8799)">
						<stop  offset="0" style="stop-color:#999999"/>
						<stop  offset="1" style="stop-color:#808080"/>
					</linearGradient>
					<ellipse fill="url(#SVGID_45_)" cx="34.053" cy="138.245" rx="8.54" ry="1.164"/>
					
						<linearGradient id="SVGID_46_" gradientUnits="userSpaceOnUse" x1="747.125" y1="-1035.1245" x2="762.9414" y2="-1035.1245" gradientTransform="matrix(1 0 0 -1 -720.9805 -896.8799)">
						<stop  offset="0" style="stop-color:#999999"/>
						<stop  offset="1" style="stop-color:#808080"/>
					</linearGradient>
					<ellipse fill="url(#SVGID_46_)" cx="34.053" cy="138.245" rx="7.908" ry="1.09"/>
					
						<linearGradient id="SVGID_47_" gradientUnits="userSpaceOnUse" x1="747.7559" y1="-1035.125" x2="762.3105" y2="-1035.125" gradientTransform="matrix(1 0 0 -1 -720.9805 -896.8799)">
						<stop  offset="0" style="stop-color:#999999"/>
						<stop  offset="1" style="stop-color:#808080"/>
					</linearGradient>
					<ellipse fill="url(#SVGID_47_)" cx="34.053" cy="138.245" rx="7.277" ry="1.017"/>
					
						<linearGradient id="SVGID_48_" gradientUnits="userSpaceOnUse" x1="748.3887" y1="-1035.125" x2="761.6787" y2="-1035.125" gradientTransform="matrix(1 0 0 -1 -720.9805 -896.8799)">
						<stop  offset="0" style="stop-color:#999999"/>
						<stop  offset="1" style="stop-color:#808080"/>
					</linearGradient>
					<ellipse fill="url(#SVGID_48_)" cx="34.053" cy="138.245" rx="6.645" ry="0.942"/>
					
						<linearGradient id="SVGID_49_" gradientUnits="userSpaceOnUse" x1="749.0205" y1="-1035.125" x2="761.0469" y2="-1035.125" gradientTransform="matrix(1 0 0 -1 -720.9805 -896.8799)">
						<stop  offset="0" style="stop-color:#999999"/>
						<stop  offset="1" style="stop-color:#808080"/>
					</linearGradient>
					<ellipse fill="url(#SVGID_49_)" cx="34.053" cy="138.245" rx="6.013" ry="0.869"/>
				</g>
				<g>
					<g>
						<g>
							<path fill="#FFEFCC" stroke="#000000" stroke-width="2" stroke-miterlimit="10" d="M19.121,105.589l2.495-16.174l-8.489-1.31
								l-2.618,16.965c-2.583,1.396-4.339,4.146-4.339,7.302c0,4.578,3.685,8.289,8.232,8.289c4.547,0,8.23-3.711,8.23-8.289
								C22.632,109.564,21.243,107.089,19.121,105.589z"/>
							<path fill="#FFEFCC" stroke="#000000" stroke-width="2" stroke-miterlimit="10" d="M49.23,105.589l-2.496-16.174l8.488-1.31
								l2.617,16.965c2.58,1.396,4.342,4.146,4.342,7.302c0,4.578-3.688,8.289-8.231,8.289c-4.55,0-8.233-3.711-8.233-8.289
								C45.717,109.564,47.107,107.089,49.23,105.589z"/>
							<path fill="#FFFFFF" stroke="#000000" stroke-width="2" stroke-miterlimit="10" d="M19.047,124.141
								c0,0-6.96,3.309-8.352,7.832c-0.692,2.248-0.698,4.237-0.526,5.672c0.173,1.451,0.526,2.33,0.526,2.33
								s8.7,6.786,22.445-2.783V123.62L19.047,124.141z"/>
							<path fill="#FFFFFF" stroke="#000000" stroke-width="2" stroke-miterlimit="10" d="M49.322,124.141
								c0,0,6.96,3.309,8.353,7.832c1.394,4.522,0,8.002,0,8.002s-8.7,6.786-22.445-2.783V123.62L49.322,124.141z"/>
							<path fill="#003B69" stroke="#000000" stroke-width="2" stroke-miterlimit="10" d="M49.527,119.684
								c0,4.409-3.51,7.983-7.836,7.983l0,0c-4.325,0-7.834-3.574-7.834-7.983V100.58c0-4.41,3.509-7.982,7.834-7.982l0,0
								c4.326,0,7.836,3.572,7.836,7.982V119.684z"/>
							<path fill="#003B69" stroke="#000000" stroke-width="2" stroke-miterlimit="10" d="M33.857,119.684
								c0,4.409-3.507,7.983-7.833,7.983l0,0c-4.326,0-7.836-3.574-7.836-7.983V100.58c0-4.41,3.51-7.982,7.836-7.982l0,0
								c4.326,0,7.833,3.572,7.833,7.982V119.684z"/>
							<path fill="#FFFFFF" stroke="#000000" stroke-width="2" stroke-miterlimit="10" d="M57.809,86.77
								c-1.975-9.894-8.228-16.983-13.963-15.838c-1.791,0.357-4.107,2.461-6.144,5.178h-6.95c-2.037-2.717-4.353-4.821-6.143-5.178
								c-5.738-1.145-11.99,5.948-13.963,15.838c0,0,0.682,1.744,7.541,2.985v26.111h31.34V89.884
								C57.079,88.639,57.809,86.77,57.809,86.77z"/>
							<path fill="#FFEFCC" stroke="#000000" stroke-miterlimit="10" d="M15.698,108.991c0,2.504-1.027,4.534-2.296,4.534
								s-2.296-2.03-2.296-4.534"/>
							<path fill="none" stroke="#000000" stroke-miterlimit="10" d="M10.607,135.538c0,0,4.697,7.308,22.446-2.09"/>
							<path fill="none" stroke="#000000" stroke-miterlimit="10" d="M58.109,135.538c0,0-4.698,7.308-22.446-2.09"/>
							
								<line fill="none" stroke="#000000" stroke-width="2" stroke-miterlimit="10" x1="25.311" y1="66.023" x2="40.971" y2="66.023"/>
						</g>
						<path fill="#FFEFCC" stroke="#000000" stroke-miterlimit="10" d="M57.081,107.557c0.929,2.325,0.728,4.594-0.452,5.063
							c-1.177,0.469-2.882-1.037-3.813-3.363"/>
						<circle fill="#FCDADA" cx="50.673" cy="56.452" r="2.617"/>
						<circle fill="#FCDADA" cx="17.781" cy="56.452" r="2.617"/>
					</g>
					<g>
						<path fill="#29ABE2" stroke="#000000" stroke-width="2" stroke-miterlimit="10" d="M32.539,73.975L32.45,110.13
							c0,0-12.976,3.582-14.865,0v-3.907c0,0-8.927,0.957-9.329-2.324c-0.402-3.279,0.437-23.289,10.473-33.088L32.539,73.975z"/>
						
							<line fill="none" stroke="#000000" stroke-width="2" stroke-miterlimit="10" x1="17.585" y1="106.223" x2="17.585" y2="86.744"/>
					</g>
					<g>
						<path fill="#29ABE2" stroke="#000000" stroke-width="2" stroke-miterlimit="10" d="M35.826,73.975l0.087,36.155
							c0,0,12.976,3.582,14.866,0v-3.907c0,0,8.926,0.957,9.328-2.324c0.398-3.279-0.438-23.289-10.476-33.088L35.826,73.975z"/>
						
							<line fill="none" stroke="#000000" stroke-width="2" stroke-miterlimit="10" x1="50.777" y1="106.223" x2="50.777" y2="86.744"/>
					</g>
					<polygon fill="#0071BC" stroke="#000000" points="28.837,83.84 21.607,73.129 31.674,78.85 					"/>
					<polygon fill="#0071BC" stroke="#000000" points="39.496,83.84 46.727,73.129 36.659,78.85 					"/>
					<g>
						
							<linearGradient id="SVGID_50_" gradientUnits="userSpaceOnUse" x1="728.4766" y1="-953.3301" x2="783.127" y2="-953.3301" gradientTransform="matrix(1 0 0 -1 -720.9805 -896.8799)">
							<stop  offset="0" style="stop-color:#FFEFCC"/>
							<stop  offset="1" style="stop-color:#FFEFCC"/>
						</linearGradient>
						<path fill="url(#SVGID_50_)" stroke="#000000" stroke-width="2" stroke-miterlimit="10" d="M7.522,34.715
							c-0.014,0.525-0.026,1.051-0.026,1.578c0,23.139,12.234,41.893,27.325,41.893c15.092,0,27.326-18.751,27.326-41.893
							c0-0.527-0.012-1.053-0.021-1.578H7.522z"/>
						<path fill="#1A1A1A" d="M6.371,35.812c0-12.17,12.74-22.036,28.455-22.036c15.714,0,28.455,9.866,28.455,22.036"/>
					</g>
				</g>
			</g>
			<polygon fill="#808080" points="6.492,35.812 6.492,43.533 8.358,52.549 14.766,43.533 14.766,35.812 			"/>
			<rect x="6.492" y="37.023" fill="#666666" width="8.274" height="0.988"/>
			<rect x="6.492" y="39" fill="#666666" width="8.274" height="0.988"/>
			<rect x="6.492" y="40.976" fill="#666666" width="8.274" height="0.988"/>
			<rect x="6.492" y="42.953" fill="#666666" width="8.274" height="0.988"/>
			<g>
				<polygon fill="#808080" points="63.184,35.812 63.184,43.533 61.316,52.549 54.909,43.533 54.909,35.812 				"/>
				<rect x="54.909" y="37.023" fill="#666666" width="8.274" height="0.988"/>
				<rect x="54.909" y="39" fill="#666666" width="8.274" height="0.988"/>
				<rect x="54.909" y="40.976" fill="#666666" width="8.274" height="0.988"/>
				<rect x="54.909" y="42.953" fill="#666666" width="8.274" height="0.988"/>
			</g>
			
				<line fill="none" stroke="#000000" stroke-width="1.6058" stroke-miterlimit="10" x1="28.417" y1="68.083" x2="40.459" y2="68.083"/>
		</g>
	</g>
</g>
<g id="圖層_5" display="none">
	<polygon display="inline" stroke="#000000" stroke-miterlimit="10" points="10.154,29.176 19.088,12.186 28.024,29.176 	"/>
	<polygon display="inline" stroke="#000000" stroke-miterlimit="10" points="16.67,25.886 25.604,8.896 34.539,25.886 	"/>
	<polygon display="inline" stroke="#000000" stroke-miterlimit="10" points="25.886,20.682 34.821,3.692 43.759,20.682 	"/>
	<polygon display="inline" stroke="#000000" stroke-miterlimit="10" points="25.886,20.682 34.821,3.692 43.759,20.682 	"/>
	<polygon display="inline" stroke="#000000" stroke-miterlimit="10" points="34.539,25.23 43.477,8.241 52.413,25.23 	"/>
	<polygon display="inline" stroke="#000000" stroke-miterlimit="10" points="41.177,30.321 50.113,13.33 59.047,30.321 	"/>
</g>
<g id="圖層_4" display="none">
	
		<linearGradient id="SVGID_51_" gradientUnits="userSpaceOnUse" x1="988.3965" y1="-551.1172" x2="983.7163" y2="-552.6995" gradientTransform="matrix(0.9473 0.3203 0.3203 -0.9473 -725.2466 -827.6506)">
		<stop  offset="0" style="stop-color:#333333"/>
		<stop  offset="0.2908" style="stop-color:#454545"/>
		<stop  offset="0.503" style="stop-color:#4C4C4C"/>
		<stop  offset="0.6319" style="stop-color:#474747"/>
		<stop  offset="0.794" style="stop-color:#373737"/>
		<stop  offset="0.9733" style="stop-color:#1D1D1D"/>
		<stop  offset="1" style="stop-color:#191919"/>
	</linearGradient>
	<polygon display="inline" fill="url(#SVGID_51_)" points="29.598,16.112 34.539,5.151 31.815,16.862 	"/>
	
		<linearGradient id="SVGID_52_" gradientUnits="userSpaceOnUse" x1="981.7783" y1="-559.4375" x2="977.0991" y2="-561.0197" gradientTransform="matrix(0.9473 0.3203 0.3203 -0.9473 -725.2466 -827.6506)">
		<stop  offset="0" style="stop-color:#333333"/>
		<stop  offset="0.2908" style="stop-color:#454545"/>
		<stop  offset="0.503" style="stop-color:#4C4C4C"/>
		<stop  offset="0.6319" style="stop-color:#474747"/>
		<stop  offset="0.794" style="stop-color:#373737"/>
		<stop  offset="0.9733" style="stop-color:#1D1D1D"/>
		<stop  offset="1" style="stop-color:#191919"/>
	</linearGradient>
	<polygon display="inline" fill="url(#SVGID_52_)" points="20.664,21.862 25.604,10.901 22.88,22.612 	"/>
	
		<linearGradient id="SVGID_53_" gradientUnits="userSpaceOnUse" x1="997.2051" y1="-552.0215" x2="994.6795" y2="-552.8754" gradientTransform="matrix(0.9473 0.3203 0.3203 -0.9473 -725.2466 -827.6506)">
		<stop  offset="0" style="stop-color:#333333"/>
		<stop  offset="0.2908" style="stop-color:#454545"/>
		<stop  offset="0.503" style="stop-color:#4C4C4C"/>
		<stop  offset="0.6319" style="stop-color:#474747"/>
		<stop  offset="0.794" style="stop-color:#373737"/>
		<stop  offset="0.9733" style="stop-color:#1D1D1D"/>
		<stop  offset="1" style="stop-color:#191919"/>
	</linearGradient>
	<polygon display="inline" fill="url(#SVGID_53_)" points="39.927,17.476 42.593,11.563 41.123,17.88 	"/>
</g>
<g id="圖層_2_1_">
	<circle fill="#1A1A1A" cx="54.909" cy="26.105" r="8.819"/>
	<circle fill="#1A1A1A" cx="48.057" cy="19.391" r="8.819"/>
	<circle fill="#1A1A1A" cx="36.788" cy="14.286" r="8.819"/>
	<circle fill="#1A1A1A" cx="24.699" cy="13.722" r="8.819"/>
	<circle fill="#1A1A1A" cx="15.314" cy="19.361" r="8.819"/>
	<circle fill="#1A1A1A" cx="9.398" cy="25.451" r="8.819"/>
</g>
<g id="圖層_3">
	
		<linearGradient id="SVGID_54_" gradientUnits="userSpaceOnUse" x1="486.5488" y1="745.293" x2="495.7949" y2="745.293" gradientTransform="matrix(1 0 0 1 -473.3203 -716.9199)">
		<stop  offset="0" style="stop-color:#333333"/>
		<stop  offset="0.2908" style="stop-color:#454545"/>
		<stop  offset="0.503" style="stop-color:#4C4C4C"/>
		<stop  offset="0.6319" style="stop-color:#474747"/>
		<stop  offset="0.794" style="stop-color:#373737"/>
		<stop  offset="0.9733" style="stop-color:#1D1D1D"/>
		<stop  offset="1" style="stop-color:#191919"/>
	</linearGradient>
	<path fill="url(#SVGID_54_)" d="M13.229,23.451c0,0,7.543,1.88,9.246,9.844"/>
	
		<linearGradient id="SVGID_55_" gradientUnits="userSpaceOnUse" x1="814.5879" y1="-226.3096" x2="823.834" y2="-226.3096" gradientTransform="matrix(0.3179 0.9481 -0.9481 0.3179 -432.4052 -677.5706)">
		<stop  offset="0" style="stop-color:#333333"/>
		<stop  offset="0.2908" style="stop-color:#454545"/>
		<stop  offset="0.503" style="stop-color:#4C4C4C"/>
		<stop  offset="0.6319" style="stop-color:#474747"/>
		<stop  offset="0.794" style="stop-color:#373737"/>
		<stop  offset="0.9733" style="stop-color:#1D1D1D"/>
		<stop  offset="1" style="stop-color:#191919"/>
	</linearGradient>
	<path fill="url(#SVGID_55_)" d="M45.783,21.231c0,0,0.615,7.75-6.395,11.896"/>
	
		<linearGradient id="SVGID_56_" gradientUnits="userSpaceOnUse" x1="587.1182" y1="656.5293" x2="598.166" y2="656.5293" gradientTransform="matrix(0.989 0.1482 -0.1482 0.989 -466.4758 -712.343)">
		<stop  offset="0" style="stop-color:#333333"/>
		<stop  offset="0.2908" style="stop-color:#454545"/>
		<stop  offset="0.503" style="stop-color:#4C4C4C"/>
		<stop  offset="0.6319" style="stop-color:#474747"/>
		<stop  offset="0.794" style="stop-color:#373737"/>
		<stop  offset="0.9733" style="stop-color:#1D1D1D"/>
		<stop  offset="1" style="stop-color:#191919"/>
	</linearGradient>
	<path fill="url(#SVGID_56_)" d="M17.934,16.978c0,0,10.542,5.859,8.826,15.633"/>
	
		<linearGradient id="SVGID_57_" gradientUnits="userSpaceOnUse" x1="508.1836" y1="739.5313" x2="512.0342" y2="739.5313" gradientTransform="matrix(1 0 0 1 -473.3203 -716.9199)">
		<stop  offset="0" style="stop-color:#333333"/>
		<stop  offset="0.2908" style="stop-color:#454545"/>
		<stop  offset="0.503" style="stop-color:#4C4C4C"/>
		<stop  offset="0.6319" style="stop-color:#474747"/>
		<stop  offset="0.794" style="stop-color:#373737"/>
		<stop  offset="0.9733" style="stop-color:#1D1D1D"/>
		<stop  offset="1" style="stop-color:#191919"/>
	</linearGradient>
	<path fill="url(#SVGID_57_)" d="M34.863,13.681c0,0,7.299,9.601,1.8,17.861"/>
	
		<linearGradient id="SVGID_58_" gradientUnits="userSpaceOnUse" x1="494.3955" y1="739.0322" x2="506.124" y2="739.0322" gradientTransform="matrix(1 0 0 1 -473.3203 -716.9199)">
		<stop  offset="0" style="stop-color:#333333"/>
		<stop  offset="0.2908" style="stop-color:#454545"/>
		<stop  offset="0.503" style="stop-color:#4C4C4C"/>
		<stop  offset="0.6319" style="stop-color:#474747"/>
		<stop  offset="0.794" style="stop-color:#373737"/>
		<stop  offset="0.9733" style="stop-color:#1D1D1D"/>
		<stop  offset="1" style="stop-color:#191919"/>
	</linearGradient>
	<path fill="url(#SVGID_58_)" d="M21.075,11.006c0,0,13.583,8.774,11.514,22.213"/>
</g>
<path d="M50.869,51.788H38.041c-0.443,0-0.805-0.36-0.805-0.804l0,0c0-0.444,0.359-0.804,0.805-0.804l12.828-1
	C51.313,49.18,51.314,51.788,50.869,51.788z"/>
<path d="M18.188,49.18l12.828,1c0.445,0,0.805,0.36,0.805,0.804l0,0c0,0.444-0.361,0.804-0.805,0.804H18.188
	C17.743,51.788,17.745,49.18,18.188,49.18z"/>
<rect x="38.282" y="52.549" width="8.576" height="2.533"/>
<rect x="38.282" y="55.018" fill="#C7B299" width="8.576" height="0.669"/>
<rect x="22.672" y="55.018" fill="#C7B299" width="8.576" height="0.669"/>
<rect x="22.672" y="52.549" width="8.576" height="2.533"/>
<circle fill="#FCDADA" cx="47.43" cy="61.986" r="4.204"/>
<circle fill="#FCDADA" cx="21.568" cy="61.986" r="4.202"/>
</svg>
