<?xml version="1.0" encoding="utf-8"?>
<!-- Generator: Adobe Illustrator 15.0.0, SVG Export Plug-In . SVG Version: 6.00 Build 0)  -->
<!DOCTYPE svg PUBLIC "-//W3C//DTD SVG 1.1//EN" "http://www.w3.org/Graphics/SVG/1.1/DTD/svg11.dtd">
<svg version="1.1" id="圖層_1" xmlns="http://www.w3.org/2000/svg" xmlns:xlink="http://www.w3.org/1999/xlink" x="0px" y="0px"
	 width="70px" height="146px" viewBox="0 0 70 146" enable-background="new 0 0 70 146" xml:space="preserve">
<g id="圖層_1_3_">
	<g id="圖層_1_2_">
		<g id="圖層_2">
		</g>
		<g id="圖層_1_1_">
			<g>
				<g>
					
						<linearGradient id="SVGID_1_" gradientUnits="userSpaceOnUse" x1="-2754.4395" y1="-1907.1309" x2="-2746.9585" y2="-1907.1309" gradientTransform="matrix(-0.9787 -0.2051 0.2051 -0.9787 -2236.5996 -2380.5942)">
						<stop  offset="0" style="stop-color:#FFEFCC"/>
						<stop  offset="1" style="stop-color:#FFEFCC"/>
					</linearGradient>
					<path fill="url(#SVGID_1_)" stroke="#000000" stroke-width="2" stroke-miterlimit="10" d="M59.186,56.525
						c0.037,0.008,0.069,0.02,0.106,0.027c3.981,0.835,7.892-1.718,8.726-5.702c0.836-3.984-1.719-7.891-5.701-8.726
						c-0.037-0.008-0.067-0.012-0.104-0.019L59.186,56.525z"/>
					<path fill="#C7B299" d="M61.063,52.944c0.021,0.004,0.033,0.008,0.049,0.012c1.886,0.394,3.729-0.81,4.119-2.69
						c0.396-1.88-0.812-3.724-2.688-4.118c-0.021-0.003-0.033-0.004-0.052-0.008L61.063,52.944z"/>
				</g>
				<g>
					
						<linearGradient id="SVGID_2_" gradientUnits="userSpaceOnUse" x1="1027.3848" y1="-2617.2529" x2="1034.8643" y2="-2617.2529" gradientTransform="matrix(0.9856 -0.1691 -0.1691 -0.9856 -1453.2529 -2355.1165)">
						<stop  offset="0" style="stop-color:#FFEFCC"/>
						<stop  offset="1" style="stop-color:#FFEFCC"/>
					</linearGradient>
					<path fill="url(#SVGID_2_)" stroke="#000000" stroke-width="2" stroke-miterlimit="10" d="M10.55,56.71
						c-0.036,0.006-0.07,0.017-0.107,0.022c-4.012,0.689-7.823-2.005-8.511-6.018c-0.688-4.012,2.006-7.822,6.018-8.511
						c0.036-0.006,0.073-0.009,0.108-0.015L10.55,56.71z"/>
					<path fill="#C7B299" d="M8.807,53.063c-0.018,0.003-0.034,0.007-0.051,0.01c-1.894,0.324-3.692-0.946-4.017-2.84
						c-0.325-1.893,0.947-3.691,2.841-4.017c0.017-0.003,0.034-0.003,0.051-0.006L8.807,53.063z"/>
				</g>
				<g>
					<g opacity="0.48">
						
							<linearGradient id="SVGID_3_" gradientUnits="userSpaceOnUse" x1="1142.1719" y1="2227.6445" x2="1200.4561" y2="2227.6445" gradientTransform="matrix(1 0 0 1 -1137.2607 -2089.4004)">
							<stop  offset="0" style="stop-color:#999999"/>
							<stop  offset="1" style="stop-color:#808080"/>
						</linearGradient>
						<ellipse fill="url(#SVGID_3_)" cx="34.053" cy="138.245" rx="29.142" ry="3.172"/>
						
							<linearGradient id="SVGID_4_" gradientUnits="userSpaceOnUse" x1="1142.5469" y1="2227.6455" x2="1200.0811" y2="2227.6455" gradientTransform="matrix(1 0 0 1 -1137.2607 -2089.4004)">
							<stop  offset="0" style="stop-color:#999999"/>
							<stop  offset="1" style="stop-color:#808080"/>
						</linearGradient>
						<ellipse fill="url(#SVGID_4_)" cx="34.053" cy="138.245" rx="28.767" ry="3.146"/>
						
							<linearGradient id="SVGID_5_" gradientUnits="userSpaceOnUse" x1="1142.9199" y1="2227.6445" x2="1199.708" y2="2227.6445" gradientTransform="matrix(1 0 0 1 -1137.2607 -2089.4004)">
							<stop  offset="0" style="stop-color:#999999"/>
							<stop  offset="1" style="stop-color:#808080"/>
						</linearGradient>
						<ellipse fill="url(#SVGID_5_)" cx="34.053" cy="138.245" rx="28.394" ry="3.119"/>
						
							<linearGradient id="SVGID_6_" gradientUnits="userSpaceOnUse" x1="1143.2939" y1="2227.6455" x2="1199.334" y2="2227.6455" gradientTransform="matrix(1 0 0 1 -1137.2607 -2089.4004)">
							<stop  offset="0" style="stop-color:#999999"/>
							<stop  offset="1" style="stop-color:#808080"/>
						</linearGradient>
						<ellipse fill="url(#SVGID_6_)" cx="34.053" cy="138.245" rx="28.02" ry="3.093"/>
						
							<linearGradient id="SVGID_7_" gradientUnits="userSpaceOnUse" x1="1143.668" y1="2227.6455" x2="1198.96" y2="2227.6455" gradientTransform="matrix(1 0 0 1 -1137.2607 -2089.4004)">
							<stop  offset="0" style="stop-color:#999999"/>
							<stop  offset="1" style="stop-color:#808080"/>
						</linearGradient>
						<ellipse fill="url(#SVGID_7_)" cx="34.053" cy="138.245" rx="27.646" ry="3.065"/>
						
							<linearGradient id="SVGID_8_" gradientUnits="userSpaceOnUse" x1="1144.041" y1="2227.6455" x2="1198.5859" y2="2227.6455" gradientTransform="matrix(1 0 0 1 -1137.2607 -2089.4004)">
							<stop  offset="0" style="stop-color:#999999"/>
							<stop  offset="1" style="stop-color:#808080"/>
						</linearGradient>
						<ellipse fill="url(#SVGID_8_)" cx="34.053" cy="138.245" rx="27.272" ry="3.04"/>
						
							<linearGradient id="SVGID_9_" gradientUnits="userSpaceOnUse" x1="1144.4141" y1="2227.6445" x2="1198.2129" y2="2227.6445" gradientTransform="matrix(1 0 0 1 -1137.2607 -2089.4004)">
							<stop  offset="0" style="stop-color:#999999"/>
							<stop  offset="1" style="stop-color:#808080"/>
						</linearGradient>
						<ellipse fill="url(#SVGID_9_)" cx="34.053" cy="138.245" rx="26.899" ry="3.014"/>
						
							<linearGradient id="SVGID_10_" gradientUnits="userSpaceOnUse" x1="1144.7891" y1="2227.6455" x2="1197.8389" y2="2227.6455" gradientTransform="matrix(1 0 0 1 -1137.2607 -2089.4004)">
							<stop  offset="0" style="stop-color:#999999"/>
							<stop  offset="1" style="stop-color:#808080"/>
						</linearGradient>
						<ellipse fill="url(#SVGID_10_)" cx="34.053" cy="138.245" rx="26.525" ry="2.987"/>
						
							<linearGradient id="SVGID_11_" gradientUnits="userSpaceOnUse" x1="1145.1621" y1="2227.6445" x2="1197.4648" y2="2227.6445" gradientTransform="matrix(1 0 0 1 -1137.2607 -2089.4004)">
							<stop  offset="0" style="stop-color:#999999"/>
							<stop  offset="1" style="stop-color:#808080"/>
						</linearGradient>
						<ellipse fill="url(#SVGID_11_)" cx="34.053" cy="138.245" rx="26.151" ry="2.961"/>
						
							<linearGradient id="SVGID_12_" gradientUnits="userSpaceOnUse" x1="1145.5371" y1="2227.6455" x2="1197.0908" y2="2227.6455" gradientTransform="matrix(1 0 0 1 -1137.2607 -2089.4004)">
							<stop  offset="0" style="stop-color:#999999"/>
							<stop  offset="1" style="stop-color:#808080"/>
						</linearGradient>
						<ellipse fill="url(#SVGID_12_)" cx="34.053" cy="138.245" rx="25.777" ry="2.935"/>
						
							<linearGradient id="SVGID_13_" gradientUnits="userSpaceOnUse" x1="1145.9102" y1="2227.6445" x2="1196.7168" y2="2227.6445" gradientTransform="matrix(1 0 0 1 -1137.2607 -2089.4004)">
							<stop  offset="0" style="stop-color:#999999"/>
							<stop  offset="1" style="stop-color:#808080"/>
						</linearGradient>
						<ellipse fill="url(#SVGID_13_)" cx="34.053" cy="138.245" rx="25.403" ry="2.908"/>
						
							<linearGradient id="SVGID_14_" gradientUnits="userSpaceOnUse" x1="1146.2852" y1="2227.6455" x2="1196.3428" y2="2227.6455" gradientTransform="matrix(1 0 0 1 -1137.2607 -2089.4004)">
							<stop  offset="0" style="stop-color:#999999"/>
							<stop  offset="1" style="stop-color:#808080"/>
						</linearGradient>
						<ellipse fill="url(#SVGID_14_)" cx="34.053" cy="138.245" rx="25.029" ry="2.882"/>
						
							<linearGradient id="SVGID_15_" gradientUnits="userSpaceOnUse" x1="1146.6582" y1="2227.6455" x2="1195.9688" y2="2227.6455" gradientTransform="matrix(1 0 0 1 -1137.2607 -2089.4004)">
							<stop  offset="0" style="stop-color:#999999"/>
							<stop  offset="1" style="stop-color:#808080"/>
						</linearGradient>
						<ellipse fill="url(#SVGID_15_)" cx="34.053" cy="138.245" rx="24.655" ry="2.854"/>
						
							<linearGradient id="SVGID_16_" gradientUnits="userSpaceOnUse" x1="1147.0332" y1="2227.6445" x2="1195.5947" y2="2227.6445" gradientTransform="matrix(1 0 0 1 -1137.2607 -2089.4004)">
							<stop  offset="0" style="stop-color:#999999"/>
							<stop  offset="1" style="stop-color:#808080"/>
						</linearGradient>
						<ellipse fill="url(#SVGID_16_)" cx="34.053" cy="138.245" rx="24.281" ry="2.828"/>
						
							<linearGradient id="SVGID_17_" gradientUnits="userSpaceOnUse" x1="1147.4063" y1="2227.6455" x2="1195.2207" y2="2227.6455" gradientTransform="matrix(1 0 0 1 -1137.2607 -2089.4004)">
							<stop  offset="0" style="stop-color:#999999"/>
							<stop  offset="1" style="stop-color:#808080"/>
						</linearGradient>
						<ellipse fill="url(#SVGID_17_)" cx="34.053" cy="138.245" rx="23.907" ry="2.802"/>
						
							<linearGradient id="SVGID_18_" gradientUnits="userSpaceOnUse" x1="1147.7813" y1="2227.6455" x2="1194.8467" y2="2227.6455" gradientTransform="matrix(1 0 0 1 -1137.2607 -2089.4004)">
							<stop  offset="0" style="stop-color:#999999"/>
							<stop  offset="1" style="stop-color:#808080"/>
						</linearGradient>
						<ellipse fill="url(#SVGID_18_)" cx="34.053" cy="138.245" rx="23.533" ry="2.774"/>
						
							<linearGradient id="SVGID_19_" gradientUnits="userSpaceOnUse" x1="1148.1543" y1="2227.6455" x2="1194.4727" y2="2227.6455" gradientTransform="matrix(1 0 0 1 -1137.2607 -2089.4004)">
							<stop  offset="0" style="stop-color:#999999"/>
							<stop  offset="1" style="stop-color:#808080"/>
						</linearGradient>
						<ellipse fill="url(#SVGID_19_)" cx="34.053" cy="138.245" rx="23.159" ry="2.749"/>
						
							<linearGradient id="SVGID_20_" gradientUnits="userSpaceOnUse" x1="1148.5293" y1="2227.6455" x2="1194.0986" y2="2227.6455" gradientTransform="matrix(1 0 0 1 -1137.2607 -2089.4004)">
							<stop  offset="0" style="stop-color:#999999"/>
							<stop  offset="1" style="stop-color:#808080"/>
						</linearGradient>
						<ellipse fill="url(#SVGID_20_)" cx="34.053" cy="138.245" rx="22.785" ry="2.724"/>
						
							<linearGradient id="SVGID_21_" gradientUnits="userSpaceOnUse" x1="1148.9023" y1="2227.6455" x2="1193.7246" y2="2227.6455" gradientTransform="matrix(1 0 0 1 -1137.2607 -2089.4004)">
							<stop  offset="0" style="stop-color:#999999"/>
							<stop  offset="1" style="stop-color:#808080"/>
						</linearGradient>
						<ellipse fill="url(#SVGID_21_)" cx="34.053" cy="138.245" rx="22.411" ry="2.696"/>
						
							<linearGradient id="SVGID_22_" gradientUnits="userSpaceOnUse" x1="1149.2773" y1="2227.6445" x2="1193.3506" y2="2227.6445" gradientTransform="matrix(1 0 0 1 -1137.2607 -2089.4004)">
							<stop  offset="0" style="stop-color:#999999"/>
							<stop  offset="1" style="stop-color:#808080"/>
						</linearGradient>
						<ellipse fill="url(#SVGID_22_)" cx="34.053" cy="138.245" rx="22.037" ry="2.67"/>
						
							<linearGradient id="SVGID_23_" gradientUnits="userSpaceOnUse" x1="1149.6504" y1="2227.6455" x2="1192.9775" y2="2227.6455" gradientTransform="matrix(1 0 0 1 -1137.2607 -2089.4004)">
							<stop  offset="0" style="stop-color:#999999"/>
							<stop  offset="1" style="stop-color:#808080"/>
						</linearGradient>
						<ellipse fill="url(#SVGID_23_)" cx="34.053" cy="138.245" rx="21.664" ry="2.644"/>
						
							<linearGradient id="SVGID_24_" gradientUnits="userSpaceOnUse" x1="1150.0234" y1="2227.6445" x2="1192.6035" y2="2227.6445" gradientTransform="matrix(1 0 0 1 -1137.2607 -2089.4004)">
							<stop  offset="0" style="stop-color:#999999"/>
							<stop  offset="1" style="stop-color:#808080"/>
						</linearGradient>
						<ellipse fill="url(#SVGID_24_)" cx="34.053" cy="138.245" rx="21.29" ry="2.617"/>
						
							<linearGradient id="SVGID_25_" gradientUnits="userSpaceOnUse" x1="1150.3984" y1="2227.6455" x2="1192.2295" y2="2227.6455" gradientTransform="matrix(1 0 0 1 -1137.2607 -2089.4004)">
							<stop  offset="0" style="stop-color:#999999"/>
							<stop  offset="1" style="stop-color:#808080"/>
						</linearGradient>
						<ellipse fill="url(#SVGID_25_)" cx="34.053" cy="138.245" rx="20.916" ry="2.591"/>
						
							<linearGradient id="SVGID_26_" gradientUnits="userSpaceOnUse" x1="1150.7715" y1="2227.6455" x2="1191.8564" y2="2227.6455" gradientTransform="matrix(1 0 0 1 -1137.2607 -2089.4004)">
							<stop  offset="0" style="stop-color:#999999"/>
							<stop  offset="1" style="stop-color:#808080"/>
						</linearGradient>
						<ellipse fill="url(#SVGID_26_)" cx="34.053" cy="138.245" rx="20.542" ry="2.563"/>
						
							<linearGradient id="SVGID_27_" gradientUnits="userSpaceOnUse" x1="1151.4043" y1="2227.6455" x2="1191.2236" y2="2227.6455" gradientTransform="matrix(1 0 0 1 -1137.2607 -2089.4004)">
							<stop  offset="0" style="stop-color:#999999"/>
							<stop  offset="1" style="stop-color:#808080"/>
						</linearGradient>
						<ellipse fill="url(#SVGID_27_)" cx="34.053" cy="138.245" rx="19.91" ry="2.491"/>
						
							<linearGradient id="SVGID_28_" gradientUnits="userSpaceOnUse" x1="1152.0352" y1="2227.6455" x2="1190.5918" y2="2227.6455" gradientTransform="matrix(1 0 0 1 -1137.2607 -2089.4004)">
							<stop  offset="0" style="stop-color:#999999"/>
							<stop  offset="1" style="stop-color:#808080"/>
						</linearGradient>
						<ellipse fill="url(#SVGID_28_)" cx="34.053" cy="138.245" rx="19.278" ry="2.417"/>
						
							<linearGradient id="SVGID_29_" gradientUnits="userSpaceOnUse" x1="1152.666" y1="2227.6445" x2="1189.9609" y2="2227.6445" gradientTransform="matrix(1 0 0 1 -1137.2607 -2089.4004)">
							<stop  offset="0" style="stop-color:#999999"/>
							<stop  offset="1" style="stop-color:#808080"/>
						</linearGradient>
						<ellipse fill="url(#SVGID_29_)" cx="34.053" cy="138.245" rx="18.647" ry="2.344"/>
						
							<linearGradient id="SVGID_30_" gradientUnits="userSpaceOnUse" x1="1153.2988" y1="2227.6455" x2="1189.3291" y2="2227.6455" gradientTransform="matrix(1 0 0 1 -1137.2607 -2089.4004)">
							<stop  offset="0" style="stop-color:#999999"/>
							<stop  offset="1" style="stop-color:#808080"/>
						</linearGradient>
						<ellipse fill="url(#SVGID_30_)" cx="34.053" cy="138.245" rx="18.015" ry="2.271"/>
						
							<linearGradient id="SVGID_31_" gradientUnits="userSpaceOnUse" x1="1153.9316" y1="2227.6455" x2="1188.6963" y2="2227.6455" gradientTransform="matrix(1 0 0 1 -1137.2607 -2089.4004)">
							<stop  offset="0" style="stop-color:#999999"/>
							<stop  offset="1" style="stop-color:#808080"/>
						</linearGradient>
						<ellipse fill="url(#SVGID_31_)" cx="34.053" cy="138.245" rx="17.382" ry="2.196"/>
						
							<linearGradient id="SVGID_32_" gradientUnits="userSpaceOnUse" x1="1154.5625" y1="2227.6455" x2="1188.0654" y2="2227.6455" gradientTransform="matrix(1 0 0 1 -1137.2607 -2089.4004)">
							<stop  offset="0" style="stop-color:#999999"/>
							<stop  offset="1" style="stop-color:#808080"/>
						</linearGradient>
						<ellipse fill="url(#SVGID_32_)" cx="34.053" cy="138.245" rx="16.751" ry="2.122"/>
						
							<linearGradient id="SVGID_33_" gradientUnits="userSpaceOnUse" x1="1155.1934" y1="2227.6445" x2="1187.4336" y2="2227.6445" gradientTransform="matrix(1 0 0 1 -1137.2607 -2089.4004)">
							<stop  offset="0" style="stop-color:#999999"/>
							<stop  offset="1" style="stop-color:#808080"/>
						</linearGradient>
						<ellipse fill="url(#SVGID_33_)" cx="34.053" cy="138.245" rx="16.12" ry="2.049"/>
						
							<linearGradient id="SVGID_34_" gradientUnits="userSpaceOnUse" x1="1155.8262" y1="2227.6455" x2="1186.8018" y2="2227.6455" gradientTransform="matrix(1 0 0 1 -1137.2607 -2089.4004)">
							<stop  offset="0" style="stop-color:#999999"/>
							<stop  offset="1" style="stop-color:#808080"/>
						</linearGradient>
						<ellipse fill="url(#SVGID_34_)" cx="34.053" cy="138.245" rx="15.488" ry="1.976"/>
						
							<linearGradient id="SVGID_35_" gradientUnits="userSpaceOnUse" x1="1156.457" y1="2227.6455" x2="1186.1709" y2="2227.6455" gradientTransform="matrix(1 0 0 1 -1137.2607 -2089.4004)">
							<stop  offset="0" style="stop-color:#999999"/>
							<stop  offset="1" style="stop-color:#808080"/>
						</linearGradient>
						<ellipse fill="url(#SVGID_35_)" cx="34.053" cy="138.245" rx="14.857" ry="1.901"/>
						
							<linearGradient id="SVGID_36_" gradientUnits="userSpaceOnUse" x1="1157.0898" y1="2227.6455" x2="1185.5381" y2="2227.6455" gradientTransform="matrix(1 0 0 1 -1137.2607 -2089.4004)">
							<stop  offset="0" style="stop-color:#999999"/>
							<stop  offset="1" style="stop-color:#808080"/>
						</linearGradient>
						<ellipse fill="url(#SVGID_36_)" cx="34.053" cy="138.245" rx="14.224" ry="1.827"/>
						
							<linearGradient id="SVGID_37_" gradientUnits="userSpaceOnUse" x1="1157.7207" y1="2227.6445" x2="1184.9072" y2="2227.6445" gradientTransform="matrix(1 0 0 1 -1137.2607 -2089.4004)">
							<stop  offset="0" style="stop-color:#999999"/>
							<stop  offset="1" style="stop-color:#808080"/>
						</linearGradient>
						<ellipse fill="url(#SVGID_37_)" cx="34.053" cy="138.245" rx="13.593" ry="1.754"/>
						
							<linearGradient id="SVGID_38_" gradientUnits="userSpaceOnUse" x1="1158.3535" y1="2227.6445" x2="1184.2744" y2="2227.6445" gradientTransform="matrix(1 0 0 1 -1137.2607 -2089.4004)">
							<stop  offset="0" style="stop-color:#999999"/>
							<stop  offset="1" style="stop-color:#808080"/>
						</linearGradient>
						<ellipse fill="url(#SVGID_38_)" cx="34.053" cy="138.245" rx="12.96" ry="1.68"/>
						
							<linearGradient id="SVGID_39_" gradientUnits="userSpaceOnUse" x1="1158.9844" y1="2227.6455" x2="1183.6436" y2="2227.6455" gradientTransform="matrix(1 0 0 1 -1137.2607 -2089.4004)">
							<stop  offset="0" style="stop-color:#999999"/>
							<stop  offset="1" style="stop-color:#808080"/>
						</linearGradient>
						<ellipse fill="url(#SVGID_39_)" cx="34.053" cy="138.245" rx="12.33" ry="1.606"/>
						
							<linearGradient id="SVGID_40_" gradientUnits="userSpaceOnUse" x1="1159.6152" y1="2227.6455" x2="1183.0117" y2="2227.6455" gradientTransform="matrix(1 0 0 1 -1137.2607 -2089.4004)">
							<stop  offset="0" style="stop-color:#999999"/>
							<stop  offset="1" style="stop-color:#808080"/>
						</linearGradient>
						<ellipse fill="url(#SVGID_40_)" cx="34.053" cy="138.245" rx="11.698" ry="1.532"/>
						
							<linearGradient id="SVGID_41_" gradientUnits="userSpaceOnUse" x1="1160.2461" y1="2227.6445" x2="1182.3809" y2="2227.6445" gradientTransform="matrix(1 0 0 1 -1137.2607 -2089.4004)">
							<stop  offset="0" style="stop-color:#999999"/>
							<stop  offset="1" style="stop-color:#808080"/>
						</linearGradient>
						<ellipse fill="url(#SVGID_41_)" cx="34.053" cy="138.245" rx="11.067" ry="1.459"/>
						
							<linearGradient id="SVGID_42_" gradientUnits="userSpaceOnUse" x1="1160.8789" y1="2227.6445" x2="1181.749" y2="2227.6445" gradientTransform="matrix(1 0 0 1 -1137.2607 -2089.4004)">
							<stop  offset="0" style="stop-color:#999999"/>
							<stop  offset="1" style="stop-color:#808080"/>
						</linearGradient>
						<ellipse fill="url(#SVGID_42_)" cx="34.053" cy="138.245" rx="10.435" ry="1.385"/>
						
							<linearGradient id="SVGID_43_" gradientUnits="userSpaceOnUse" x1="1161.5117" y1="2227.6455" x2="1181.1162" y2="2227.6455" gradientTransform="matrix(1 0 0 1 -1137.2607 -2089.4004)">
							<stop  offset="0" style="stop-color:#999999"/>
							<stop  offset="1" style="stop-color:#808080"/>
						</linearGradient>
						<ellipse fill="url(#SVGID_43_)" cx="34.053" cy="138.245" rx="9.802" ry="1.312"/>
						
							<linearGradient id="SVGID_44_" gradientUnits="userSpaceOnUse" x1="1162.1426" y1="2227.6455" x2="1180.4854" y2="2227.6455" gradientTransform="matrix(1 0 0 1 -1137.2607 -2089.4004)">
							<stop  offset="0" style="stop-color:#999999"/>
							<stop  offset="1" style="stop-color:#808080"/>
						</linearGradient>
						<ellipse fill="url(#SVGID_44_)" cx="34.053" cy="138.245" rx="9.171" ry="1.237"/>
						
							<linearGradient id="SVGID_45_" gradientUnits="userSpaceOnUse" x1="1162.7734" y1="2227.6445" x2="1179.8535" y2="2227.6445" gradientTransform="matrix(1 0 0 1 -1137.2607 -2089.4004)">
							<stop  offset="0" style="stop-color:#999999"/>
							<stop  offset="1" style="stop-color:#808080"/>
						</linearGradient>
						<ellipse fill="url(#SVGID_45_)" cx="34.053" cy="138.245" rx="8.54" ry="1.164"/>
						
							<linearGradient id="SVGID_46_" gradientUnits="userSpaceOnUse" x1="1163.4063" y1="2227.6445" x2="1179.2217" y2="2227.6445" gradientTransform="matrix(1 0 0 1 -1137.2607 -2089.4004)">
							<stop  offset="0" style="stop-color:#999999"/>
							<stop  offset="1" style="stop-color:#808080"/>
						</linearGradient>
						<ellipse fill="url(#SVGID_46_)" cx="34.053" cy="138.245" rx="7.908" ry="1.09"/>
						
							<linearGradient id="SVGID_47_" gradientUnits="userSpaceOnUse" x1="1164.0371" y1="2227.6455" x2="1178.5908" y2="2227.6455" gradientTransform="matrix(1 0 0 1 -1137.2607 -2089.4004)">
							<stop  offset="0" style="stop-color:#999999"/>
							<stop  offset="1" style="stop-color:#808080"/>
						</linearGradient>
						<ellipse fill="url(#SVGID_47_)" cx="34.053" cy="138.245" rx="7.277" ry="1.017"/>
						
							<linearGradient id="SVGID_48_" gradientUnits="userSpaceOnUse" x1="1164.6689" y1="2227.6455" x2="1177.959" y2="2227.6455" gradientTransform="matrix(1 0 0 1 -1137.2607 -2089.4004)">
							<stop  offset="0" style="stop-color:#999999"/>
							<stop  offset="1" style="stop-color:#808080"/>
						</linearGradient>
						<ellipse fill="url(#SVGID_48_)" cx="34.053" cy="138.245" rx="6.645" ry="0.942"/>
						
							<linearGradient id="SVGID_49_" gradientUnits="userSpaceOnUse" x1="1165.3008" y1="2227.6445" x2="1177.3271" y2="2227.6445" gradientTransform="matrix(1 0 0 1 -1137.2607 -2089.4004)">
							<stop  offset="0" style="stop-color:#999999"/>
							<stop  offset="1" style="stop-color:#808080"/>
						</linearGradient>
						<ellipse fill="url(#SVGID_49_)" cx="34.053" cy="138.245" rx="6.013" ry="0.869"/>
					</g>
					<g>
						<g>
							<g>
								<path fill="#FFEFCC" stroke="#000000" stroke-width="2" stroke-miterlimit="10" d="M19.121,105.589l2.495-16.174
									l-8.489-1.31l-2.618,16.965c-2.583,1.396-4.339,4.146-4.339,7.302c0,4.578,3.685,8.289,8.232,8.289
									c4.547,0,8.23-3.711,8.23-8.289C22.632,109.564,21.243,107.089,19.121,105.589z"/>
								<path fill="#FFEFCC" stroke="#000000" stroke-width="2" stroke-miterlimit="10" d="M49.23,105.589l-2.496-16.174l8.488-1.31
									l2.614,16.965c2.58,1.396,4.345,4.146,4.345,7.302c0,4.578-3.688,8.289-8.231,8.289c-4.55,0-8.233-3.711-8.233-8.289
									C45.717,109.564,47.107,107.089,49.23,105.589z"/>
								<path fill="#8E8E8E" stroke="#000000" stroke-width="2" stroke-miterlimit="10" d="M19.047,124.141
									c0,0-6.96,3.312-8.352,7.832c-0.692,2.248-0.698,4.237-0.526,5.672c0.173,1.451,0.526,2.33,0.526,2.33
									s8.7,6.787,22.445-2.783V123.62L19.047,124.141z"/>
								<path fill="#8E8E8E" stroke="#000000" stroke-width="2" stroke-miterlimit="10" d="M49.322,124.141
									c0,0,6.96,3.312,8.353,7.832c1.394,4.522,0,8.002,0,8.002s-8.7,6.787-22.445-2.783V123.62L49.322,124.141z"/>
								<path fill="#003B69" stroke="#000000" stroke-width="2" stroke-miterlimit="10" d="M49.527,119.684
									c0,4.409-3.51,7.983-7.836,7.983l0,0c-4.325,0-7.834-3.573-7.834-7.983V100.58c0-4.41,3.509-7.982,7.834-7.982l0,0
									c4.326,0,7.836,3.572,7.836,7.982V119.684z"/>
								
									<ellipse transform="matrix(0.2947 0.9556 -0.9556 0.2947 140.2951 15.3534)" fill="#3D3D3D" stroke="#070707" stroke-miterlimit="10" cx="59.747" cy="102.713" rx="3.702" ry="1.804"/>
								
									<rect x="49.338" y="103.477" transform="matrix(0.978 -0.2084 0.2084 0.978 -20.6129 13.3643)" fill="#3D3D3D" stroke="#070707" stroke-miterlimit="10" width="7.534" height="2.021"/>
								<path fill="#003B69" stroke="#000000" stroke-width="2" stroke-miterlimit="10" d="M33.857,119.684
									c0,4.409-3.507,7.983-7.833,7.983l0,0c-4.326,0-7.836-3.573-7.836-7.983V100.58c0-4.41,3.51-7.982,7.836-7.982l0,0
									c4.326,0,7.833,3.572,7.833,7.982V119.684z"/>
								<path fill="#FFFFFF" stroke="#000000" stroke-width="2" stroke-miterlimit="10" d="M57.809,86.77
									c-1.975-9.894-8.228-16.98-13.963-15.835c-1.791,0.357-4.107,2.461-6.144,5.175h-6.95c-2.037-2.714-4.353-4.818-6.143-5.175
									c-5.738-1.145-11.99,5.948-13.963,15.835c0,0,0.682,1.744,7.541,2.985v26.111h31.34V89.884
									C57.079,88.639,57.809,86.77,57.809,86.77z"/>
								<path fill="#FFEFCC" stroke="#000000" stroke-miterlimit="10" d="M15.698,108.991c0,2.504-1.027,4.534-2.296,4.534
									s-2.296-2.03-2.296-4.534"/>
								<path fill="#FFEFCC" stroke="#000000" stroke-miterlimit="10" d="M57.174,108.991c0,2.504-1.027,4.534-2.297,4.534
									c-1.269,0-2.295-2.03-2.295-4.534"/>
								<path fill="none" stroke="#000000" stroke-width="0.5" stroke-miterlimit="10" d="M10.607,135.538
									c0,0,4.697,7.308,22.446-2.091"/>
								<path fill="none" stroke="#000000" stroke-width="0.5" stroke-miterlimit="10" d="M58.109,135.538
									c0,0-4.698,7.308-22.446-2.091"/>
								<path fill="none" stroke="#000000" stroke-width="0.5" stroke-miterlimit="10" d="M10.607,137.321
									c0,0,4.697,7.308,22.446-2.091"/>
								<path fill="none" stroke="#000000" stroke-width="0.5" stroke-miterlimit="10" d="M58.109,137.321
									c0,0-4.698,7.308-22.446-2.091"/>
								
									<line fill="none" stroke="#000000" stroke-width="2" stroke-miterlimit="10" x1="25.311" y1="66.023" x2="40.971" y2="66.023"/>
								<g>
									<rect x="19.166" y="89.646" fill="#E52A79" width="29.376" height="0.842"/>
									<rect x="19.166" y="92.875" fill="#E52A79" width="29.376" height="0.842"/>
									<rect x="19.166" y="96.104" fill="#E52A79" width="29.376" height="0.842"/>
									<rect x="19.166" y="99.332" fill="#E52A79" width="29.376" height="0.842"/>
									<rect x="19.166" y="102.561" fill="#E52A79" width="29.376" height="0.842"/>
									<rect x="19.166" y="105.789" fill="#E52A79" width="29.376" height="0.842"/>
									<rect x="19.166" y="109.018" fill="#E52A79" width="29.376" height="0.842"/>
									<rect x="19.166" y="112.246" fill="#E52A79" width="29.376" height="0.842"/>
								</g>
							</g>
							<linearGradient id="SVGID_50_" gradientUnits="userSpaceOnUse" x1="72.9121" y1="73.3496" x2="84.0811" y2="73.3496">
								<stop  offset="0" style="stop-color:#FFEFCC"/>
								<stop  offset="1" style="stop-color:#FFEFCC"/>
							</linearGradient>
							<path fill="url(#SVGID_50_)" stroke="#000000" stroke-miterlimit="10" d="M72.912,70.813
								c0.271,2.848,2.666,5.074,5.584,5.074c2.917,0,5.313-2.228,5.585-5.074H72.912z"/>
							<circle fill="#FCDADA" cx="50.673" cy="56.452" r="2.617"/>
							<circle fill="#FCDADA" cx="17.781" cy="56.452" r="2.617"/>
						</g>
						<g>
							<path fill="#1E1E1E" stroke="#000000" stroke-width="2" stroke-miterlimit="10" d="M-4.127,73.975l-0.089,36.155
								c0,0-12.976,3.582-14.865,0v-3.907c0,0-8.927,0.957-9.329-2.324c-0.402-3.276,0.437-23.289,10.473-33.085L-4.127,73.975z"/>
							
								<line fill="#1E1E1E" stroke="#000000" stroke-width="2" stroke-miterlimit="10" x1="-19.082" y1="106.223" x2="-19.082" y2="86.744"/>
						</g>
						<g>
							<path fill="#1E1E1E" stroke="#000000" stroke-width="2" stroke-miterlimit="10" d="M92.354,73.975l0.087,36.155
								c0,0,12.976,3.582,14.866,0v-3.907c0,0,8.926,0.957,9.328-2.324c0.396-3.276-0.438-23.289-10.479-33.085L92.354,73.975z"/>
							
								<line fill="#1E1E1E" stroke="#000000" stroke-width="2" stroke-miterlimit="10" x1="107.305" y1="106.223" x2="107.305" y2="86.744"/>
						</g>
						<polygon fill="#E52A79" stroke="#000000" stroke-miterlimit="10" points="30.321,83.84 23.091,73.129 33.158,78.85 						"/>
						<polygon fill="#E52A79" stroke="#000000" stroke-miterlimit="10" points="37.502,83.84 44.732,73.129 34.665,78.85 						"/>
						<g>
							
								<linearGradient id="SVGID_51_" gradientUnits="userSpaceOnUse" x1="1144.7568" y1="2145.8506" x2="1199.4072" y2="2145.8506" gradientTransform="matrix(1 0 0 1 -1137.2607 -2089.4004)">
								<stop  offset="0" style="stop-color:#FFEFCC"/>
								<stop  offset="1" style="stop-color:#FFEFCC"/>
							</linearGradient>
							<path fill="url(#SVGID_51_)" stroke="#000000" stroke-width="2" stroke-miterlimit="10" d="M7.522,34.715
								c-0.014,0.525-0.026,1.051-0.026,1.578c0,23.139,12.234,41.893,27.325,41.893c15.092,0,27.326-18.75,27.326-41.893
								c0-0.527-0.012-1.053-0.021-1.578H7.522z"/>
							<path fill="#1A1A1A" d="M6.371,35.812c0-12.17,12.74-22.036,28.455-22.036c15.714,0,28.455,9.866,28.455,22.036"/>
						</g>
					</g>
				</g>
				<polygon fill="#808080" points="6.492,35.812 6.492,43.533 8.358,52.549 14.766,43.533 14.766,35.812 				"/>
				<rect x="6.492" y="37.023" fill="#666666" width="8.274" height="0.988"/>
				<rect x="6.492" y="39" fill="#666666" width="8.274" height="0.988"/>
				<rect x="6.492" y="40.976" fill="#666666" width="8.274" height="0.988"/>
				<rect x="6.492" y="42.953" fill="#666666" width="8.274" height="0.988"/>
				<g>
					<polygon fill="#808080" points="63.184,35.812 63.184,43.533 61.316,52.549 54.909,43.533 54.909,35.812 					"/>
					<rect x="54.909" y="37.023" fill="#666666" width="8.274" height="0.988"/>
					<rect x="54.909" y="39" fill="#666666" width="8.274" height="0.988"/>
					<rect x="54.909" y="40.976" fill="#666666" width="8.274" height="0.988"/>
					<rect x="54.909" y="42.953" fill="#666666" width="8.274" height="0.988"/>
				</g>
			</g>
		</g>
	</g>
	<g id="圖層_5" display="none">
		<polygon display="inline" stroke="#000000" stroke-miterlimit="10" points="10.154,29.176 19.088,12.186 28.024,29.176 		"/>
		<polygon display="inline" stroke="#000000" stroke-miterlimit="10" points="16.67,25.886 25.604,8.896 34.539,25.886 		"/>
		<polygon display="inline" stroke="#000000" stroke-miterlimit="10" points="25.886,20.682 34.821,3.692 43.759,20.682 		"/>
		<polygon display="inline" stroke="#000000" stroke-miterlimit="10" points="25.886,20.682 34.821,3.692 43.759,20.682 		"/>
		<polygon display="inline" stroke="#000000" stroke-miterlimit="10" points="34.539,25.23 43.477,8.241 52.413,25.23 		"/>
		<polygon display="inline" stroke="#000000" stroke-miterlimit="10" points="41.177,30.321 50.113,13.33 59.047,30.321 		"/>
	</g>
	<g id="圖層_4" display="none">
		
			<linearGradient id="SVGID_52_" gradientUnits="userSpaceOnUse" x1="1651.1309" y1="1403.8203" x2="1646.4502" y2="1405.4028" gradientTransform="matrix(0.9473 0.3203 -0.3203 0.9473 -1079.9331 -1847.689)">
			<stop  offset="0" style="stop-color:#333333"/>
			<stop  offset="0.2908" style="stop-color:#454545"/>
			<stop  offset="0.503" style="stop-color:#4C4C4C"/>
			<stop  offset="0.6319" style="stop-color:#474747"/>
			<stop  offset="0.794" style="stop-color:#373737"/>
			<stop  offset="0.9733" style="stop-color:#1D1D1D"/>
			<stop  offset="1" style="stop-color:#191919"/>
		</linearGradient>
		<polygon display="inline" fill="url(#SVGID_52_)" points="29.598,16.112 34.539,5.151 31.815,16.862 		"/>
		
			<linearGradient id="SVGID_53_" gradientUnits="userSpaceOnUse" x1="1644.5078" y1="1412.1289" x2="1639.8276" y2="1413.7114" gradientTransform="matrix(0.9473 0.3203 -0.3203 0.9473 -1079.9331 -1847.689)">
			<stop  offset="0" style="stop-color:#333333"/>
			<stop  offset="0.2908" style="stop-color:#454545"/>
			<stop  offset="0.503" style="stop-color:#4C4C4C"/>
			<stop  offset="0.6319" style="stop-color:#474747"/>
			<stop  offset="0.794" style="stop-color:#373737"/>
			<stop  offset="0.9733" style="stop-color:#1D1D1D"/>
			<stop  offset="1" style="stop-color:#191919"/>
		</linearGradient>
		<polygon display="inline" fill="url(#SVGID_53_)" points="20.664,21.862 25.604,10.901 22.88,22.612 		"/>
		
			<linearGradient id="SVGID_54_" gradientUnits="userSpaceOnUse" x1="1659.9512" y1="1404.7607" x2="1657.4252" y2="1405.6149" gradientTransform="matrix(0.9473 0.3203 -0.3203 0.9473 -1079.9331 -1847.689)">
			<stop  offset="0" style="stop-color:#333333"/>
			<stop  offset="0.2908" style="stop-color:#454545"/>
			<stop  offset="0.503" style="stop-color:#4C4C4C"/>
			<stop  offset="0.6319" style="stop-color:#474747"/>
			<stop  offset="0.794" style="stop-color:#373737"/>
			<stop  offset="0.9733" style="stop-color:#1D1D1D"/>
			<stop  offset="1" style="stop-color:#191919"/>
		</linearGradient>
		<polygon display="inline" fill="url(#SVGID_54_)" points="39.927,17.476 42.593,11.563 41.123,17.88 		"/>
	</g>
	<g id="圖層_2_1_">
		<circle fill="#1A1A1A" cx="54.909" cy="26.105" r="8.819"/>
		<circle fill="#1A1A1A" cx="48.057" cy="19.391" r="8.819"/>
		<circle fill="#1A1A1A" cx="36.788" cy="14.286" r="8.819"/>
		<circle fill="#1A1A1A" cx="24.699" cy="13.722" r="8.819"/>
		<circle fill="#1A1A1A" cx="15.314" cy="19.361" r="8.819"/>
		<circle fill="#1A1A1A" cx="12.667" cy="26.179" r="8.819"/>
	</g>
	<g id="圖層_3">
		
			<linearGradient id="SVGID_55_" gradientUnits="userSpaceOnUse" x1="902.8301" y1="-1390.8125" x2="912.0762" y2="-1390.8125" gradientTransform="matrix(1 0 0 -1 -889.6006 -1362.4395)">
			<stop  offset="0" style="stop-color:#333333"/>
			<stop  offset="0.2908" style="stop-color:#454545"/>
			<stop  offset="0.503" style="stop-color:#4C4C4C"/>
			<stop  offset="0.6319" style="stop-color:#474747"/>
			<stop  offset="0.794" style="stop-color:#373737"/>
			<stop  offset="0.9733" style="stop-color:#1D1D1D"/>
			<stop  offset="1" style="stop-color:#191919"/>
		</linearGradient>
		<path fill="url(#SVGID_55_)" d="M13.229,23.451c0,0,7.543,1.88,9.246,9.844"/>
		
			<linearGradient id="SVGID_56_" gradientUnits="userSpaceOnUse" x1="1481.6816" y1="1070.2422" x2="1490.9287" y2="1070.2422" gradientTransform="matrix(0.3179 0.9481 0.9481 -0.3179 -1444.6071 -1041.7572)">
			<stop  offset="0" style="stop-color:#333333"/>
			<stop  offset="0.2908" style="stop-color:#454545"/>
			<stop  offset="0.503" style="stop-color:#4C4C4C"/>
			<stop  offset="0.6319" style="stop-color:#474747"/>
			<stop  offset="0.794" style="stop-color:#373737"/>
			<stop  offset="0.9733" style="stop-color:#1D1D1D"/>
			<stop  offset="1" style="stop-color:#191919"/>
		</linearGradient>
		<path fill="url(#SVGID_56_)" d="M45.783,21.231c0,0,0.615,7.75-6.395,11.896"/>
		
			<linearGradient id="SVGID_57_" gradientUnits="userSpaceOnUse" x1="1129.501" y1="-1157.0469" x2="1140.5498" y2="-1157.0469" gradientTransform="matrix(0.989 0.1482 0.1482 -0.989 -928.7168 -1287.7354)">
			<stop  offset="0" style="stop-color:#333333"/>
			<stop  offset="0.2908" style="stop-color:#454545"/>
			<stop  offset="0.503" style="stop-color:#4C4C4C"/>
			<stop  offset="0.6319" style="stop-color:#474747"/>
			<stop  offset="0.794" style="stop-color:#373737"/>
			<stop  offset="0.9733" style="stop-color:#1D1D1D"/>
			<stop  offset="1" style="stop-color:#191919"/>
		</linearGradient>
		<path fill="url(#SVGID_57_)" d="M17.934,16.978c0,0,10.542,5.859,8.826,15.633"/>
		
			<linearGradient id="SVGID_58_" gradientUnits="userSpaceOnUse" x1="924.4629" y1="-1385.0508" x2="928.3145" y2="-1385.0508" gradientTransform="matrix(1 0 0 -1 -889.6006 -1362.4395)">
			<stop  offset="0" style="stop-color:#333333"/>
			<stop  offset="0.2908" style="stop-color:#454545"/>
			<stop  offset="0.503" style="stop-color:#4C4C4C"/>
			<stop  offset="0.6319" style="stop-color:#474747"/>
			<stop  offset="0.794" style="stop-color:#373737"/>
			<stop  offset="0.9733" style="stop-color:#1D1D1D"/>
			<stop  offset="1" style="stop-color:#191919"/>
		</linearGradient>
		<path fill="url(#SVGID_58_)" d="M34.863,13.681c0,0,7.299,9.601,1.8,17.861"/>
		
			<linearGradient id="SVGID_59_" gradientUnits="userSpaceOnUse" x1="910.6758" y1="-1384.5518" x2="922.4043" y2="-1384.5518" gradientTransform="matrix(1 0 0 -1 -889.6006 -1362.4395)">
			<stop  offset="0" style="stop-color:#333333"/>
			<stop  offset="0.2908" style="stop-color:#454545"/>
			<stop  offset="0.503" style="stop-color:#4C4C4C"/>
			<stop  offset="0.6319" style="stop-color:#474747"/>
			<stop  offset="0.794" style="stop-color:#373737"/>
			<stop  offset="0.9733" style="stop-color:#1D1D1D"/>
			<stop  offset="1" style="stop-color:#191919"/>
		</linearGradient>
		<path fill="url(#SVGID_59_)" d="M21.075,11.006c0,0,13.583,8.774,11.514,22.213"/>
	</g>
	<path d="M50.869,48.788H38.041c-0.443,0-0.805-0.36-0.805-0.804l0,0c0-0.444,0.359-0.804,0.805-0.804l12.828-1
		C51.313,46.18,51.314,48.788,50.869,48.788z"/>
	<path d="M18.188,46.18l12.828,1c0.445,0,0.805,0.36,0.805,0.804l0,0c0,0.444-0.361,0.804-0.805,0.804H18.188
		C17.743,48.788,17.745,46.18,18.188,46.18z"/>
	<circle fill="#FCDADA" cx="48.143" cy="64.841" r="3.061"/>
	<circle fill="#FCDADA" cx="21.068" cy="64.841" r="3.059"/>
	
		<ellipse transform="matrix(-0.966 -0.2587 0.2587 -0.966 155.6918 127.7354)" fill="#C7B299" cx="86.25" cy="53.624" rx="3.817" ry="3.016"/>
	<ellipse transform="matrix(-0.9659 -0.2588 0.2588 -0.9659 155.946 125.7733)" cx="86.25" cy="52.624" rx="3.818" ry="3.016"/>
	
		<ellipse transform="matrix(0.966 -0.2587 0.2587 0.966 -10.3131 28.8702)" fill="#C7B299" cx="104.532" cy="53.618" rx="3.818" ry="3.016"/>
	<ellipse transform="matrix(0.966 -0.2587 0.2587 0.966 -10.0543 28.8361)" cx="104.532" cy="52.618" rx="3.818" ry="3.016"/>
	<path fill="#C1272D" d="M75.086,83.031c0.271,2.848,2.666,5.074,5.584,5.074c2.917,0,5.313-2.228,5.585-5.074H75.086z"/>
	
		<rect x="26.142" y="53.271" transform="matrix(-0.3417 -0.9398 0.9398 -0.3417 -17.3049 100.7815)" fill="#C7B299" width="1" height="6.36"/>
	
		<rect x="39.415" y="56.199" transform="matrix(-0.9397 -0.342 0.342 -0.9397 63.2286 124.5459)" fill="#C7B299" width="6.36" height="1"/>
	<ellipse transform="matrix(-0.866 -0.5 0.5 -0.866 19.6839 112.5292)" cx="24.918" cy="53.627" rx="3.708" ry="2.417"/>
	<ellipse transform="matrix(-0.866 0.5 -0.5 -0.866 108.0444 78.2993)" cx="43.531" cy="53.626" rx="3.708" ry="2.417"/>
</g>
<g id="圖層_2_2_">
	<polygon points="34.329,69.131 29.125,67.237 29.414,66.441 34.329,68.23 39.244,66.441 39.533,67.237 	"/>
</g>
<rect x="16.436" y="128.565" transform="matrix(0.5718 0.8204 -0.8204 0.5718 114.3176 39.2924)" fill="#FFFFFF" width="6.163" height="1.193"/>
<rect x="16.435" y="128.565" transform="matrix(0.9745 0.2242 -0.2242 0.9745 29.4601 -1.0871)" fill="#FFFFFF" width="6.162" height="1.193"/>
<rect x="14.672" y="130.329" transform="matrix(0.5718 0.8204 -0.8204 0.5718 115.0099 41.4953)" fill="#FFFFFF" width="6.163" height="1.193"/>
<rect x="14.671" y="130.329" transform="matrix(0.9745 0.2242 -0.2242 0.9745 29.8109 -0.6466)" fill="#FFFFFF" width="6.162" height="1.193"/>
<rect x="13.299" y="132.368" transform="matrix(0.5718 0.8204 -0.8204 0.5718 116.095 43.4944)" fill="#FFFFFF" width="6.163" height="1.193"/>
<rect x="13.298" y="132.368" transform="matrix(0.9745 0.2242 -0.2242 0.9745 30.2332 -0.2869)" fill="#FFFFFF" width="6.162" height="1.193"/>
<g>
	
		<rect x="45.523" y="128.427" transform="matrix(-0.5718 0.8204 -0.8204 -0.5718 182.2469 162.9198)" fill="#FFFFFF" width="6.162" height="1.192"/>
	
		<rect x="45.523" y="128.427" transform="matrix(-0.9745 0.2242 -0.2242 -0.9745 124.9014 243.8634)" fill="#FFFFFF" width="6.163" height="1.193"/>
	
		<rect x="47.287" y="130.192" transform="matrix(-0.5719 0.8203 -0.8203 -0.5719 186.4632 164.2637)" fill="#FFFFFF" width="6.163" height="1.192"/>
	
		<rect x="47.287" y="130.191" transform="matrix(-0.9745 0.2242 -0.2242 -0.9745 128.7805 246.9522)" fill="#FFFFFF" width="6.163" height="1.193"/>
	
		<rect x="48.66" y="132.231" transform="matrix(-0.5718 0.8204 -0.8204 -0.5718 190.2978 166.3249)" fill="#FFFFFF" width="6.162" height="1.192"/>
	
		<rect x="48.66" y="132.23" transform="matrix(-0.9745 0.2242 -0.2242 -0.9745 131.9479 250.6707)" fill="#FFFFFF" width="6.163" height="1.193"/>
</g>
<circle fill="#FFFFFF" cx="28.959" cy="131.344" r="2.183"/>
<polygon fill="#A0A0A0" points="28.464,129.487 29.228,130.685 30.603,130.328 29.7,131.426 30.463,132.623 29.141,132.103 
	28.238,133.199 28.325,131.782 27.002,131.261 28.377,130.904 "/>
<circle fill="#FFFFFF" cx="39.509" cy="131.344" r="2.183"/>
<polygon fill="#A0A0A0" points="40.004,129.487 39.24,130.685 37.865,130.328 38.768,131.426 38.004,132.623 39.326,132.103 
	40.229,133.199 40.143,131.782 41.465,131.261 40.09,130.904 "/>
<circle opacity="0.49" fill="#E5E5E5" cx="-36.383" cy="132.364" r="0.621"/>
<g opacity="0.5">
	<circle fill="#E5E5E5" cx="-44.391" cy="130.86" r="1.94"/>
	<circle fill="#E5E5E5" cx="-34.373" cy="142.802" r="2.01"/>
	<circle fill="#E5E5E5" cx="-30.469" cy="135.16" r="2.795"/>
	<circle fill="#E5E5E5" cx="-46.665" cy="138.965" r="1.784"/>
	<circle fill="#E5E5E5" cx="-29.207" cy="128.876" r="1.359"/>
	<circle fill="#E5E5E5" cx="-40.025" cy="147.614" r="1.359"/>
	<circle fill="#E5E5E5" cx="-26.086" cy="139.313" r="0.621"/>
	<circle fill="#E5E5E5" cx="-40.025" cy="137.954" r="1.359"/>
</g>
</svg>
