<?xml version="1.0" encoding="utf-8"?>
<!-- Generator: Adobe Illustrator 15.0.0, SVG Export Plug-In . SVG Version: 6.00 Build 0)  -->
<!DOCTYPE svg PUBLIC "-//W3C//DTD SVG 1.1//EN" "http://www.w3.org/Graphics/SVG/1.1/DTD/svg11.dtd">
<svg version="1.1" id="圖層_1" xmlns="http://www.w3.org/2000/svg" xmlns:xlink="http://www.w3.org/1999/xlink" x="0px" y="0px"
	 width="40px" height="40px" viewBox="0 0 40 40" enable-background="new 0 0 40 40" xml:space="preserve">
<g>
	<rect x="1.59" y="1.758" opacity="0.95" fill="#135BAB" width="36.904" height="35.816"/>
	<g>
		<g opacity="0.1">
			<path d="M10.515,11.52c1.079-0.196,2.576-0.343,4.612-0.343c2.208,0,3.827,0.466,4.881,1.349c0.98,0.809,1.62,2.109,1.62,3.655
				c0,1.57-0.49,2.87-1.423,3.754c-1.203,1.203-3.092,1.766-5.226,1.766c-0.563,0-1.079-0.024-1.472-0.099v6.231h-2.993V11.52z
				 M13.507,19.223c0.369,0.098,0.858,0.122,1.472,0.122c2.258,0,3.631-1.104,3.631-3.042c0-1.84-1.276-2.821-3.361-2.821
				c-0.833,0-1.422,0.073-1.742,0.148V19.223z"/>
		</g>
		<g>
			<path fill="#A6DFF6" d="M10.515,11.185c1.079-0.196,2.576-0.343,4.612-0.343c2.208,0,3.827,0.466,4.881,1.349
				c0.98,0.809,1.62,2.109,1.62,3.655c0,1.57-0.49,2.87-1.423,3.754c-1.203,1.203-3.092,1.766-5.226,1.766
				c-0.563,0-1.079-0.024-1.472-0.099v6.231h-2.993V11.185z M13.507,18.888c0.369,0.098,0.858,0.122,1.472,0.122
				c2.258,0,3.631-1.104,3.631-3.042c0-1.84-1.276-2.821-3.361-2.821c-0.833,0-1.422,0.073-1.742,0.148V18.888z"/>
		</g>
	</g>
	<g>
		<g opacity="0.1">
			<path d="M22.559,25.061c0.686,0.418,1.987,0.858,3.065,0.858c1.325,0,1.914-0.539,1.914-1.323c0-0.811-0.49-1.229-1.962-1.742
				c-2.332-0.811-3.312-2.086-3.288-3.484c0-2.109,1.742-3.754,4.515-3.754c1.324,0,2.479,0.344,3.164,0.712l-0.588,2.134
				c-0.516-0.294-1.473-0.687-2.527-0.687c-1.079,0-1.668,0.515-1.668,1.251c0,0.761,0.563,1.128,2.085,1.668
				c2.16,0.785,3.164,1.889,3.189,3.654c0,2.16-1.692,3.755-4.858,3.755c-1.446,0-2.747-0.368-3.63-0.859L22.559,25.061z"/>
		</g>
		<g>
			<path fill="#A6DFF6" d="M22.559,24.726c0.686,0.418,1.987,0.858,3.065,0.858c1.325,0,1.914-0.539,1.914-1.323
				c0-0.811-0.49-1.229-1.962-1.742c-2.332-0.811-3.312-2.086-3.288-3.484c0-2.109,1.742-3.754,4.515-3.754
				c1.324,0,2.479,0.344,3.164,0.712l-0.588,2.134c-0.516-0.294-1.473-0.687-2.527-0.687c-1.079,0-1.668,0.515-1.668,1.251
				c0,0.761,0.563,1.128,2.085,1.668c2.16,0.785,3.164,1.889,3.189,3.654c0,2.16-1.692,3.755-4.858,3.755
				c-1.446,0-2.747-0.368-3.63-0.859L22.559,24.726z"/>
		</g>
	</g>
	<g>
		<g>
			<path fill="#A4DFF5" d="M0,0v39.079h40V0H0z M36.819,35.983H3.264V3.18h33.556V35.983z"/>
		</g>
	</g>
</g>
</svg>
