<?xml version="1.0" encoding="utf-8"?>
<!-- Generator: Adobe Illustrator 15.0.0, SVG Export Plug-In . SVG Version: 6.00 Build 0)  -->
<!DOCTYPE svg PUBLIC "-//W3C//DTD SVG 1.1//EN" "http://www.w3.org/Graphics/SVG/1.1/DTD/svg11.dtd">
<svg version="1.1" id="圖層_1" xmlns="http://www.w3.org/2000/svg" xmlns:xlink="http://www.w3.org/1999/xlink" x="0px" y="0px"
	 width="40px" height="40px" viewBox="0 0 40 40" enable-background="new 0 0 40 40" xml:space="preserve">
<g>
	<rect x="1.59" y="1.757" fill="#8E4994" width="36.904" height="35.817"/>
	<g enable-background="new    ">
		<path fill="#FE94FC" d="M8.912,19.002c1.225-0.055,1.351-0.702,1.369-1.242c0-0.433-0.054-0.919-0.09-1.404
			c-0.054-0.486-0.108-0.973-0.108-1.423c0-1.692,1.063-2.431,2.737-2.431h0.63v1.53h-0.324c-0.81,0.019-1.098,0.486-1.098,1.278
			c0,0.324,0.036,0.648,0.09,1.026c0.036,0.36,0.09,0.774,0.09,1.242c0.018,1.351-0.54,1.873-1.548,2.089v0.036
			c1.008,0.198,1.566,0.72,1.548,2.089c0,0.468-0.054,0.882-0.09,1.26c-0.054,0.36-0.09,0.702-0.09,1.009
			c0,0.792,0.27,1.278,1.098,1.296h0.324v1.513h-0.648c-1.603,0-2.719-0.648-2.719-2.448c0-0.45,0.054-0.937,0.108-1.423
			c0.036-0.486,0.09-0.954,0.09-1.404c0-0.504-0.126-1.171-1.369-1.225V19.002z"/>
		<path fill="#FE94FC" d="M17.696,26.996c0.576-1.603,1.062-3.475,1.314-5.113l2.755-0.181c-0.576,1.837-1.405,3.728-2.251,5.132
			L17.696,26.996z M18.668,17.598c0-0.973,0.666-1.657,1.603-1.657c0.954,0,1.585,0.667,1.603,1.657
			c0,0.936-0.631,1.639-1.621,1.639C19.316,19.236,18.668,18.533,18.668,17.598z"/>
		<path fill="#FE94FC" d="M31.088,20.37c-1.225,0.054-1.35,0.721-1.367,1.225c0,0.45,0.053,0.918,0.107,1.404
			c0.035,0.486,0.09,0.973,0.09,1.423c0,1.8-1.117,2.448-2.719,2.448h-0.648v-1.513h0.324c0.828-0.018,1.098-0.504,1.098-1.296
			c0-0.307-0.035-0.648-0.09-1.009c-0.035-0.378-0.09-0.792-0.09-1.26c-0.018-1.369,0.541-1.891,1.549-2.089v-0.036
			c-1.008-0.216-1.566-0.738-1.549-2.089c0-0.468,0.055-0.882,0.09-1.242c0.055-0.378,0.09-0.702,0.09-1.026
			c0-0.792-0.287-1.26-1.098-1.278h-0.324v-1.53h0.631c1.674,0,2.736,0.738,2.736,2.431c0,0.45-0.055,0.937-0.09,1.423
			c-0.055,0.485-0.107,0.972-0.107,1.404c0,0.54,0.125,1.188,1.367,1.242V20.37z"/>
	</g>
	<g>
		<g>
			<path fill="#FE94FC" d="M0,0v39.08h40V0H0z M36.82,35.982H3.263V3.179H36.82V35.982z"/>
		</g>
	</g>
</g>
</svg>
