<?xml version="1.0" encoding="utf-8"?>
<!-- Generator: Adobe Illustrator 15.0.0, SVG Export Plug-In . SVG Version: 6.00 Build 0)  -->
<!DOCTYPE svg PUBLIC "-//W3C//DTD SVG 1.1//EN" "http://www.w3.org/Graphics/SVG/1.1/DTD/svg11.dtd">
<svg version="1.1" id="圖層_1" xmlns="http://www.w3.org/2000/svg" xmlns:xlink="http://www.w3.org/1999/xlink" x="0px" y="0px"
	 width="40px" height="40px" viewBox="0 0 40 40" enable-background="new 0 0 40 40" xml:space="preserve">
<g>
	<rect x="1.59" y="1.757" fill="#1F2888" width="36.904" height="35.817"/>
	<g enable-background="new    ">
		<path fill="#CAC7D1" d="M11.622,26.42v-1.711c-1.207-0.054-2.377-0.396-3.061-0.773l0.54-2.107
			c0.756,0.415,1.819,0.793,2.989,0.793c1.044,0,1.746-0.414,1.746-1.116c0-0.685-0.576-1.116-1.926-1.566
			c-1.927-0.648-3.241-1.549-3.241-3.296c0-1.602,1.117-2.845,3.043-3.204v-1.711h1.765v1.585c1.188,0.035,1.999,0.306,2.629,0.594
			l-0.541,2.034c-0.45-0.216-1.296-0.63-2.593-0.63c-1.17,0-1.548,0.522-1.548,1.026c0,0.576,0.63,0.973,2.179,1.53
			c2.143,0.757,2.989,1.747,2.989,3.385c0,1.603-1.116,2.972-3.187,3.313v1.854H11.622z"/>
		<path fill="#CAC7D1" d="M22.602,12.412c-1.009,1.656-1.818,4.069-1.818,7.292c0,3.169,0.81,5.563,1.818,7.256h-1.909
			c-0.954-1.404-2.052-3.799-2.052-7.256c0.018-3.511,1.098-5.888,2.052-7.292H22.602z"/>
		<path fill="#CAC7D1" d="M27.479,26.96c1.009-1.675,1.818-4.105,1.818-7.292s-0.81-5.582-1.818-7.256h1.908
			c0.954,1.386,2.053,3.745,2.053,7.273c-0.019,3.493-1.099,5.853-2.053,7.274H27.479z"/>
	</g>
	<g>
		<g>
			<path fill="#CAC7D1" d="M0,0v39.08h40V0H0z M36.82,35.982H3.263V3.179H36.82V35.982z"/>
		</g>
	</g>
</g>
</svg>
