<?xml version="1.0" encoding="utf-8"?>
<!-- Generator: Adobe Illustrator 15.0.0, SVG Export Plug-In . SVG Version: 6.00 Build 0)  -->
<!DOCTYPE svg PUBLIC "-//W3C//DTD SVG 1.1//EN" "http://www.w3.org/Graphics/SVG/1.1/DTD/svg11.dtd">
<svg version="1.1" id="圖層_1" xmlns="http://www.w3.org/2000/svg" xmlns:xlink="http://www.w3.org/1999/xlink" x="0px" y="0px"
	 width="40px" height="40px" viewBox="0 0 40 40" enable-background="new 0 0 40 40" xml:space="preserve">
<g>
	<rect x="1.59" y="1.757" opacity="0.95" fill="#D86E27" width="36.904" height="35.817"/>
	<g>
		<g opacity="0.1">
			<path d="M14.575,23.19l-1.423,4.686h-3.115l5.298-16.535h3.853l5.371,16.535h-3.236l-1.497-4.686H14.575z M19.31,20.91
				l-1.301-4.073c-0.318-1.006-0.588-2.134-0.833-3.091h-0.049c-0.245,0.957-0.491,2.11-0.785,3.091l-1.276,4.073H19.31z"/>
		</g>
		<g>
			<path fill="#FFD132" d="M14.575,22.855l-1.423,4.686h-3.115l5.298-16.535h3.853l5.371,16.535h-3.236l-1.497-4.686H14.575z
				 M19.31,20.575l-1.301-4.073c-0.318-1.006-0.588-2.134-0.833-3.091h-0.049c-0.245,0.957-0.491,2.11-0.785,3.091l-1.276,4.073
				H19.31z"/>
		</g>
	</g>
	<g>
		<g opacity="0.1">
			<path d="M28.95,12.593c0,0.908-0.663,1.619-1.719,1.619c-1.004,0-1.667-0.711-1.667-1.619c0-0.932,0.686-1.644,1.691-1.644
				C28.287,10.949,28.926,11.661,28.95,12.593z M25.734,27.876V15.929h3.044v11.947H25.734z"/>
		</g>
		<g>
			<path fill="#FFD132" d="M28.95,12.258c0,0.908-0.663,1.619-1.719,1.619c-1.004,0-1.667-0.711-1.667-1.619
				c0-0.932,0.686-1.644,1.691-1.644C28.287,10.614,28.926,11.326,28.95,12.258z M25.734,27.541V15.594h3.044v11.947H25.734z"/>
		</g>
	</g>
	<g>
		<g>
			<path fill="#FFD132" d="M0,0v39.08h40V0H0z M36.82,35.982H3.263V3.179H36.82V35.982z"/>
		</g>
	</g>
</g>
</svg>
