<?xml version="1.0" encoding="utf-8"?>
<!-- Generator: Adobe Illustrator 15.0.0, SVG Export Plug-In . SVG Version: 6.00 Build 0)  -->
<!DOCTYPE svg PUBLIC "-//W3C//DTD SVG 1.1//EN" "http://www.w3.org/Graphics/SVG/1.1/DTD/svg11.dtd">
<svg version="1.1" id="圖層_1" xmlns="http://www.w3.org/2000/svg" xmlns:xlink="http://www.w3.org/1999/xlink" x="0px" y="0px"
	 width="100px" height="100px" viewBox="0 0 100 100" enable-background="new 0 0 100 100" xml:space="preserve">
<path fill="#666666" d="M76.5,73.895c0,1.438-1.167,2.605-2.605,2.605H29.105c-1.439,0-2.605-1.167-2.605-2.605V30.105
	c0-1.439,1.167-2.605,2.605-2.605h44.789c1.438,0,2.605,1.167,2.605,2.605V73.895z"/>
<path fill="#E6E6E6" d="M76.5,71.895c0,1.438-1.167,2.605-2.605,2.605H29.105c-1.439,0-2.605-1.167-2.605-2.605V28.105
	c0-1.439,1.167-2.605,2.605-2.605h44.789c1.438,0,2.605,1.167,2.605,2.605V71.895z"/>
<path fill="#3DA5D3" d="M69.5,35.5c0,0.552-0.447,1-1,1h-36c-0.552,0-1-0.448-1-1l0,0c0-0.552,0.448-1,1-1h36
	C69.053,34.5,69.5,34.948,69.5,35.5L69.5,35.5z"/>
<path fill="#3DA5D3" d="M69.5,50.5c0,0.553-0.447,1-1,1h-36c-0.552,0-1-0.447-1-1l0,0c0-0.552,0.448-1,1-1h36
	C69.053,49.5,69.5,49.948,69.5,50.5L69.5,50.5z"/>
<path fill="#3DA5D3" d="M69.5,65.5c0,0.553-0.447,1-1,1h-36c-0.552,0-1-0.447-1-1l0,0c0-0.553,0.448-1,1-1h36
	C69.053,64.5,69.5,64.947,69.5,65.5L69.5,65.5z"/>
<path fill="#808080" d="M68.5,49.5h-22v2h22c0.553,0,1-0.447,1-1S69.053,49.5,68.5,49.5z"/>
<path fill="#808080" d="M68.5,34.5h-13v2h13c0.553,0,1-0.448,1-1S69.053,34.5,68.5,34.5z"/>
<g>
	<circle fill="#CCCCCC" cx="53.667" cy="35.667" r="5.167"/>
</g>
<g>
	<circle fill="#FDFDFD" cx="53.667" cy="34.667" r="5.167"/>
</g>
<g>
	<circle fill="#CCCCCC" cx="45.667" cy="50.666" r="5.167"/>
</g>
<g>
	<circle fill="#FDFDFD" cx="45.667" cy="49.667" r="5.167"/>
</g>
<g>
	<circle fill="#CCCCCC" cx="65.667" cy="65.666" r="5.167"/>
</g>
<g>
	<circle fill="#FDFDFD" cx="65.667" cy="64.666" r="5.167"/>
</g>
<path fill="#E6E6E6" d="M55.5,33c0,0.276-0.224,0.5-0.5,0.5h-3c-0.276,0-0.5-0.224-0.5-0.5l0,0c0-0.276,0.224-0.5,0.5-0.5h3
	C55.276,32.5,55.5,32.724,55.5,33L55.5,33z"/>
<path fill="#E6E6E6" d="M55.5,35c0,0.276-0.224,0.5-0.5,0.5h-3c-0.276,0-0.5-0.224-0.5-0.5l0,0c0-0.276,0.224-0.5,0.5-0.5h3
	C55.276,34.5,55.5,34.724,55.5,35L55.5,35z"/>
<path fill="#E6E6E6" d="M55.5,37c0,0.276-0.224,0.5-0.5,0.5h-3c-0.276,0-0.5-0.224-0.5-0.5l0,0c0-0.276,0.224-0.5,0.5-0.5h3
	C55.276,36.5,55.5,36.724,55.5,37L55.5,37z"/>
<path fill="#E6E6E6" d="M47.5,48c0,0.276-0.224,0.5-0.5,0.5h-3c-0.276,0-0.5-0.224-0.5-0.5l0,0c0-0.276,0.224-0.5,0.5-0.5h3
	C47.276,47.5,47.5,47.724,47.5,48L47.5,48z"/>
<path fill="#E6E6E6" d="M47.5,50c0,0.276-0.224,0.5-0.5,0.5h-3c-0.276,0-0.5-0.224-0.5-0.5l0,0c0-0.276,0.224-0.5,0.5-0.5h3
	C47.276,49.5,47.5,49.724,47.5,50L47.5,50z"/>
<path fill="#E6E6E6" d="M47.5,52c0,0.276-0.224,0.5-0.5,0.5h-3c-0.276,0-0.5-0.224-0.5-0.5l0,0c0-0.276,0.224-0.5,0.5-0.5h3
	C47.276,51.5,47.5,51.724,47.5,52L47.5,52z"/>
<path fill="#E6E6E6" d="M67.5,63c0,0.276-0.224,0.5-0.5,0.5h-3c-0.276,0-0.5-0.224-0.5-0.5l0,0c0-0.276,0.224-0.5,0.5-0.5h3
	C67.276,62.5,67.5,62.724,67.5,63L67.5,63z"/>
<path fill="#E6E6E6" d="M67.5,65c0,0.276-0.224,0.5-0.5,0.5h-3c-0.276,0-0.5-0.224-0.5-0.5l0,0c0-0.276,0.224-0.5,0.5-0.5h3
	C67.276,64.5,67.5,64.724,67.5,65L67.5,65z"/>
<path fill="#E6E6E6" d="M67.5,67c0,0.276-0.224,0.5-0.5,0.5h-3c-0.276,0-0.5-0.224-0.5-0.5l0,0c0-0.276,0.224-0.5,0.5-0.5h3
	C67.276,66.5,67.5,66.724,67.5,67L67.5,67z"/>
</svg>
