<?xml version="1.0" encoding="utf-8"?>
<!-- Generator: Adobe Illustrator 16.0.0, SVG Export Plug-In . SVG Version: 6.00 Build 0)  -->
<!DOCTYPE svg PUBLIC "-//W3C//DTD SVG 1.1//EN" "http://www.w3.org/Graphics/SVG/1.1/DTD/svg11.dtd">
<svg version="1.1" id="圖層_1" xmlns="http://www.w3.org/2000/svg" xmlns:xlink="http://www.w3.org/1999/xlink" x="0px" y="0px"
	 width="306px" height="204px" viewBox="0 0 306 204" enable-background="new 0 0 306 204" xml:space="preserve">
<g id="圖層_2">
	<g id="圖層_2_1_">
		<rect x="-8" y="-5" fill="#FFFF00" width="321" height="214"/>
	</g>
</g>
<g id="圖層_1_2_">
	<g id="圖層_1_1_" display="none">
	</g>
	<g id="圖層_3">
	</g>
	<g id="圖層_4">
		<path id="path29" fill="#22B573" d="M153.333,140.443c-2.216,0-30.995,0-33.415,0c-3.594,0-2.813-3.445-1.151-4
			c0.776-0.244,2.741-0.922,3.393-1.047c3.6-0.861,5.083-1.045,6.734-1.414c1.97-0.434,4.063-0.738,5.171-0.985
			c4.741-0.924,8.064-1.663,9.05-3.386c0.922-1.661,0.306-2.771-0.555-3.818c-0.185-0.309-1.662-1.046-2.155-1.105
			c-1.478-0.248-1.23,0.862-2.647,0.922c-1.539,0.123-1.354-0.06-1.969-0.922c-0.679-0.983-0.247-1.105-1.541-1.172
			c-2.092-0.184-0.985,1.354-2.647,1.231c-1.458-0.122-0.184,0.737-1.698,0.678c-0.616-0.061-0.566-0.985-1.681-0.985
			c-0.817,0-0.861-0.924-1.698-1.045c-0.443-0.062-0.782,0.676-1.497,0.924c-0.757,0.311-1.25-0.248-1.89-0.187
			c-1.187,0.125-1.421,1.046-2.917,0.863c-1.539-0.125-1.054-1.046-2.075-1.11c-2.031-0.184-1.084,0.555-2.813,0.064
			c-0.597-0.247-0.58-0.125-0.936-0.434c-0.461-0.434-0.671-1.168-1.072-1.848c-0.43-0.736-1.23-0.613-1.618-0.803
			c-1.662-0.68-0.271-1.6-1.324-1.662c-0.88,0-0.911-0.432-1.39-0.921c-0.943-0.984-0.42-1.231-0.751-2.03
			c-0.247-0.616-1.103-0.616-1.324-1.666c-0.296-1.29,0.369-1.656,0.018-2.214c-0.479-0.804,0.444-1.479,0.401-2.156
			c-0.068-0.921-0.468-1.168-0.683-1.534c-0.321-0.494-0.585-0.558-0.646-1.662c-0.074-1.232,0.936-1.416,0.972-1.973
			c0.05-0.924-0.308-1.046-0.326-1.604c-0.057-1.475-0.228-1.782,0.436-2.523c0.814-0.799-0.135-0.985,0.396-2.031
			c0.56-1.229,0.868,0.125,1.04-1.354c0.129-1.107,0.966-0.491,1.255-0.985c0.32-0.491-0.357-1.167,0.253-1.662
			c0.782-0.616-0.007-0.924,0.597-1.724c0.622-0.863,1.169-0.677,1.225-0.799c1.225-2.647,1.699-0.677,2.604-2.095
			c1.139-1.784-0.345-2.031,0.536-3.077c0.806-1.046-0.112-1.476,0.43-2.339c0.69-1.045,1.546-0.186,2.154-1.354
			c0.209-0.43,0.61-0.862,0.58-1.354c-0.063-1.107-0.08-2.157,0.898-2.77c0.542-0.308,1.128-1.049,1.841-1.418
			c1.957-0.921,1.373-0.061,2.278,0.061c1.594,0.125,0.542-0.677,1.563-1.415c0.837-0.616,1.742-0.122,1.786-0.985
			c0.105-2.4,1.164-2.522,1.927-3.632c1.342-1.907,3.768,0.185,4.568-0.184c0.738-0.308,0.246-1.293,1.169-1.663
			c1.539-0.677,1.293,0.924,1.97,0c0.493-0.677,0.493-1.292,0.677-2.156c0.184-0.677,0.369-1.537,0.8-1.845
			c0.738-0.616,1.23-0.434,1.662-0.434c0.246,0,0.493-0.183,0.861-0.43c0.554-0.308,1.109,0.247,1.786,0
			c0.799-0.247,0.738-1.168,1.723-0.86c1.417,0.491,1.663,1.354,2.893,1.477c1.108,0.186,1.169-1.293,1.97-1.416
			c1.417-0.186,1.108,0.86,2.278,0.616c0.678-0.125,1.046-1.54,2.032-1.54c1.478-0.062,1.169,1.17,2.339,1.723
			c0.555,0.308,1.047,0.186,1.541,0.062c0.367-0.062,0.613-0.613,1.229-0.431c0.86,0.247,0.737,1.784,1.538,1.784
			c0.615-0.061,1.107-0.122,1.662-0.677c0.492-0.43,1.048-1.107,1.847-1.107c0.678,0,0.862,0.616,1.231,0.738
			c0.494,0.125,0.924-0.369,1.229-0.244c0.492,0.122,0.74,0.738,1.17,0.738c0.492,0,1.051-0.434,1.661-0.186
			c0.737,0.369,0.312,0.985,0.678,1.415c0.37,0.494,0.804,0,1.296,0.802c0.307,0.49-0.123,1.292,0.244,1.784
			c0.555,0.677,1.662-0.061,2.342,0.308c0.799,0.369,0.307,1.479,0.982,1.787c0.734,0.305,1.292-0.616,2.092-0.433
			c1.539,0.307,1.17,1.354,1.85,1.848c0.858,0.616,0.982,0,1.971,0.86c0.861,0.74,0.184,1.417,0.492,2.034
			c0.246,0.552,0.8,0.305,1.354,0.983c0.369,0.433-0.184,0.984,0.616,1.231c0.985,0.247,1.108-0.369,2.153-0.308
			c0.679,0,0.555,0.43,1.354,0.924c0.369,0.186,1.107,0.061,1.662,0.863c0.738,0.985-0.062,1.537,0.801,3.386
			c0.369,0.799,1.108,0.552,1.907,0.984c0.616,0.369,0.124,1.107,0.616,1.663c0.49,0.552,0.984,1.168,0.738,1.97
			c-0.123,0.308-0.492,1.107-0.063,1.784c0.492,0.738,0.983-0.186,1.479,0.738c0.367,0.617-0.369,1.788,0.367,2.339
			c0.984,0.802,0.926-0.061,2.032,0.863c1.046,0.86-0.124,1.602,0.491,2.955c0.49,1.168,1.171,0.183,2.093,2.031
			c0.927,1.724,0.247,1.477,0.617,2.708c0.31,0.985,1.045,0.677,1.229,1.91c0.366,2.031-0.803,1.354-0.557,2.646
			c0.124,0.554,0.68,1.416,0.861,2.341c0.062,0.184-0.553,1.414-0.309,2.151c0.555,1.725-0.123,2.709-1.171,3.633
			c-0.737,0.678,0.615,1.662-0.123,3.017c-0.491,0.863-1.047,0.804-1.413,1.354c-0.557,0.861,0.184,1.91-0.863,2.834
			c-1.17,1.047-1.17-0.248-2.217,1.047c-1.045,1.353-1.414,0.06-2.154,0.43c-0.924,0.493-0.555,1.109-1.291,1.54
			c-1.108,0.614-1.661-0.122-2.4-0.617c-0.554-0.308-1.17-0.246-1.725-0.062c-1.416,0.369-0.368,1.478-2.094,1.603
			c-1.726,0.122-0.679-1.231-2.399-1.11c-0.983,0.064-0.558,1.172-1.603,1.172c-0.802,0.063-0.369-1.354-1.848-0.924
			c-1.047,0.311-0.432,1.231-1.479,1.354c-0.615,0.126-0.432-0.243-1.479-0.368c-0.309,0-0.801,0.432-1.416,0.247
			c-1.105-0.187,0.37-0.983-2.217-1.171c-2.771-0.186-0.062,1.171-2.584,1.292c-0.188,0-1.417,0.126-1.604,0.063
			c-2.275-0.244-2.275-1.293-3.385-0.859c-0.926,0.308-1.727,1.845-1.232,4.184c0.31,1.54,1.662,2.713,5.604,3.571
			c2.522,0.556,6.401,1.293,8.74,1.662c1.416,0.187,7.265,1.415,9.356,1.849c2.707,0.553,2.707,4.184-0.187,4.184
			C183.866,140.443,155.486,140.443,153.333,140.443z"/>
	</g>
</g>
</svg>
