<?xml version="1.0" encoding="utf-8"?>
<!-- Generator: Adobe Illustrator 15.0.0, SVG Export Plug-In . SVG Version: 6.00 Build 0)  -->
<!DOCTYPE svg PUBLIC "-//W3C//DTD SVG 1.1//EN" "http://www.w3.org/Graphics/SVG/1.1/DTD/svg11.dtd">
<svg version="1.1" id="Layer_1" xmlns="http://www.w3.org/2000/svg" xmlns:xlink="http://www.w3.org/1999/xlink" x="0px" y="0px"
	 width="306px" height="204px" viewBox="0 0 306 204" enable-background="new 0 0 306 204" xml:space="preserve">
<g id="圖層_2">
	<g id="圖層_2_1_">
		<rect x="-6" y="-4.667" fill="#48AB35" width="321" height="214"/>
	</g>
</g>
<g id="圖層_1">
	<g id="圖層_4">
		<g>
			<g>
				<path fill="#FFFFFF" d="M100.652,132.316l3.385-5.566h1.268l3.563,5.566h-1.333l-1.015-1.697h-3.693l-0.958,1.697H100.652z
					 M103.163,130.023h2.999l-0.915-1.537c-0.283-0.473-0.491-0.857-0.622-1.154c-0.114,0.357-0.274,0.711-0.482,1.063
					L103.163,130.023z"/>
				<path fill="#FFFFFF" d="M113.568,132.316v-4.02h0.981v0.576c0.232-0.225,0.52-0.393,0.857-0.5
					c0.339-0.109,0.726-0.166,1.165-0.166c0.341,0,0.654,0.033,0.945,0.104c0.29,0.067,0.522,0.16,0.699,0.272
					c0.178,0.11,0.313,0.258,0.398,0.437c0.089,0.181,0.132,0.455,0.132,0.824v2.471h-1.071v-2.438c0-0.295-0.051-0.51-0.147-0.646
					c-0.097-0.135-0.251-0.239-0.46-0.313c-0.208-0.076-0.448-0.11-0.723-0.11c-0.521,0-0.934,0.098-1.243,0.297
					s-0.463,0.541-0.463,1.022v2.19H113.568L113.568,132.316z"/>
				<path fill="#FFFFFF" d="M124.288,127.523v-0.773h1.072v0.773H124.288z M124.288,132.316v-4.02h1.072v4.02H124.288z"/>
				<path fill="#FFFFFF" d="M130.9,132.316v-4.02h0.981v0.568c0.213-0.213,0.487-0.373,0.82-0.488c0.333-0.111,0.7-0.17,1.096-0.17
					c0.446,0,0.822,0.063,1.13,0.182c0.306,0.119,0.525,0.299,0.656,0.527c0.255-0.238,0.547-0.414,0.878-0.533
					c0.329-0.115,0.695-0.176,1.096-0.176c0.612,0,1.093,0.105,1.445,0.318c0.351,0.217,0.528,0.561,0.528,1.029v2.758h-1.071
					v-2.525c0-0.285-0.041-0.488-0.123-0.607c-0.08-0.119-0.212-0.213-0.392-0.277c-0.182-0.066-0.386-0.098-0.613-0.098
					c-0.465,0-0.845,0.096-1.141,0.283c-0.293,0.188-0.44,0.488-0.44,0.896v2.33h-1.071v-2.604c0-0.334-0.1-0.567-0.298-0.703
					c-0.197-0.135-0.469-0.202-0.814-0.202c-0.495,0-0.882,0.102-1.168,0.309c-0.287,0.205-0.429,0.578-0.429,1.123v2.08H130.9
					L130.9,132.316z"/>
				<path fill="#FFFFFF" d="M149.164,131.787c-0.361,0.203-0.738,0.357-1.129,0.463c-0.391,0.104-0.795,0.154-1.213,0.154
					c-0.666,0-1.193-0.104-1.59-0.305c-0.396-0.205-0.594-0.482-0.594-0.83c0-0.229,0.094-0.434,0.279-0.607
					c0.184-0.18,0.438-0.318,0.76-0.416c0.32-0.1,0.807-0.174,1.461-0.223c0.875-0.074,1.518-0.164,1.928-0.27l0.008-0.17
					c0-0.271-0.094-0.463-0.283-0.57c-0.268-0.16-0.678-0.24-1.23-0.24c-0.504,0-0.877,0.055-1.125,0.162
					c-0.25,0.107-0.432,0.313-0.547,0.611l-1.072-0.09c0.154-0.438,0.459-0.754,0.922-0.953c0.463-0.195,1.125-0.297,1.984-0.297
					c0.67,0,1.199,0.063,1.578,0.191c0.383,0.133,0.623,0.293,0.723,0.484c0.102,0.191,0.15,0.471,0.15,0.838v0.906
					c0,0.637,0.025,1.037,0.074,1.203c0.047,0.166,0.143,0.326,0.285,0.482h-1.131C149.279,132.168,149.201,131.99,149.164,131.787z
					 M149.066,130.291c-0.395,0.105-0.979,0.195-1.752,0.27c-0.453,0.037-0.768,0.084-0.947,0.133
					c-0.182,0.053-0.318,0.123-0.418,0.217c-0.102,0.092-0.148,0.193-0.148,0.314c0,0.188,0.115,0.338,0.342,0.449
					s0.543,0.166,0.945,0.166c0.383,0,0.73-0.051,1.045-0.152c0.313-0.102,0.545-0.236,0.699-0.404
					c0.156-0.174,0.234-0.418,0.234-0.742V130.291z"/>
				<path fill="#FFFFFF" d="M158.127,131.779l0.18,0.596c-0.303,0.021-0.574,0.029-0.818,0.029c-0.383,0-0.689-0.037-0.924-0.115
					c-0.231-0.078-0.393-0.184-0.479-0.318c-0.088-0.135-0.131-0.402-0.131-0.807v-2.33h-0.805v-0.535h0.805v-1.012l1.072-0.418
					v1.43h1.1v0.535h-1.1v2.381c0,0.221,0.031,0.363,0.096,0.426c0.094,0.094,0.268,0.139,0.525,0.139
					C157.771,131.779,157.932,131.779,158.127,131.779z"/>
				<path fill="#FFFFFF" d="M167.422,131.035l1.072,0.092c-0.186,0.422-0.52,0.74-1.006,0.955c-0.484,0.215-1.086,0.322-1.803,0.322
					c-0.9,0-1.631-0.174-2.189-0.529c-0.557-0.355-0.838-0.867-0.838-1.535c0-0.693,0.281-1.223,0.846-1.586
					c0.563-0.363,1.273-0.545,2.137-0.545c0.826,0,1.514,0.176,2.064,0.533c0.551,0.355,0.826,0.873,0.826,1.549l-0.008,0.18h-4.793
					c0.045,0.453,0.252,0.795,0.621,1.025c0.365,0.229,0.816,0.344,1.346,0.344C166.523,131.84,167.098,131.572,167.422,131.035z
					 M163.799,129.936h3.594c-0.051-0.35-0.195-0.609-0.438-0.785c-0.35-0.25-0.797-0.377-1.338-0.377
					c-0.488,0-0.906,0.105-1.25,0.314C164.023,129.295,163.834,129.578,163.799,129.936z"/>
				<path fill="#FFFFFF" d="M184.996,132.316v-2.357l-3.393-3.209h1.453l1.719,1.662c0.34,0.328,0.639,0.639,0.896,0.934
					c0.259-0.289,0.576-0.615,0.959-0.975l1.705-1.621h1.334l-3.513,3.209v2.357H184.996z"/>
				<path fill="#FFFFFF" d="M192.887,130.309c0-0.693,0.283-1.219,0.848-1.568c0.564-0.354,1.279-0.529,2.145-0.529
					c0.854,0,1.563,0.176,2.137,0.529c0.568,0.352,0.855,0.859,0.855,1.525c0,0.721-0.281,1.258-0.844,1.611
					s-1.277,0.527-2.148,0.527c-0.854,0-1.564-0.174-2.137-0.529C193.172,131.52,192.887,130.998,192.887,130.309z M193.988,130.307
					c0,0.518,0.184,0.902,0.551,1.152c0.367,0.254,0.826,0.381,1.369,0.381c0.51,0,0.947-0.127,1.313-0.383
					c0.366-0.256,0.547-0.639,0.547-1.15c0-0.516-0.184-0.898-0.551-1.154c-0.367-0.252-0.824-0.379-1.369-0.379
					c-0.512,0-0.951,0.127-1.314,0.381S193.988,129.793,193.988,130.307z"/>
				<path fill="#FFFFFF" d="M208.252,132.316v-0.604c-0.248,0.229-0.543,0.402-0.877,0.52c-0.338,0.115-0.719,0.172-1.143,0.172
					c-0.502,0-0.932-0.07-1.287-0.209c-0.355-0.141-0.592-0.316-0.711-0.531c-0.121-0.215-0.18-0.508-0.18-0.879v-2.486h1.068v2.221
					c0,0.412,0.041,0.689,0.121,0.828c0.082,0.139,0.23,0.252,0.453,0.336c0.217,0.086,0.469,0.125,0.746,0.125
					c0.521,0,0.951-0.105,1.287-0.328c0.283-0.188,0.43-0.533,0.43-1.037v-2.145h1.041v4.018H208.252L208.252,132.316z"/>
				<path fill="#FFFFFF" d="M214.773,132.316v-4.02h0.982v0.621c0.246-0.287,0.477-0.479,0.682-0.568
					c0.205-0.096,0.436-0.143,0.691-0.143c0.355,0,0.727,0.066,1.098,0.209l-0.355,0.625c-0.27-0.08-0.531-0.121-0.785-0.121
					c-0.23,0-0.439,0.043-0.629,0.127c-0.191,0.082-0.326,0.197-0.404,0.348c-0.137,0.258-0.207,0.531-0.207,0.822v2.1H214.773z"/>
				<path fill="#FFFFFF" d="M231.662,132.316v-5.566h1.16v4.912h4.377v0.654H231.662z"/>
				<path fill="#FFFFFF" d="M242.291,127.523v-0.773h1.072v0.773H242.291z M242.291,132.316v-4.02h1.072v4.02H242.291z"/>
				<path fill="#FFFFFF" d="M249.201,132.316v-3.482h-0.953v-0.535h0.953v-0.432c0-0.32,0.063-0.557,0.189-0.717
					c0.127-0.158,0.318-0.279,0.584-0.363c0.26-0.084,0.588-0.125,0.982-0.125c0.309,0,0.645,0.02,1.01,0.059l-0.156,0.535
					c-0.227,0-0.438,0-0.641,0c-0.32,0-0.553,0.045-0.689,0.137c-0.141,0.09-0.209,0.266-0.209,0.52v0.389h1.252v0.535h-1.252v3.48
					H249.201L249.201,132.316z"/>
				<path fill="#FFFFFF" d="M260.578,131.035l1.07,0.092c-0.188,0.422-0.521,0.74-1.004,0.955c-0.484,0.215-1.086,0.322-1.805,0.322
					c-0.9,0-1.631-0.174-2.188-0.529c-0.559-0.355-0.838-0.867-0.838-1.535c0-0.693,0.283-1.223,0.846-1.586
					s1.277-0.545,2.139-0.545c0.822,0,1.51,0.176,2.061,0.533c0.553,0.355,0.828,0.873,0.828,1.549l-0.008,0.18h-4.793
					c0.045,0.453,0.254,0.795,0.621,1.025c0.369,0.229,0.814,0.344,1.344,0.344C259.68,131.84,260.254,131.572,260.578,131.035z
					 M256.953,129.936h3.596c-0.049-0.35-0.193-0.609-0.436-0.785c-0.35-0.25-0.797-0.377-1.34-0.377
					c-0.486,0-0.904,0.105-1.25,0.314C257.178,129.295,256.986,129.578,256.953,129.936z"/>
			</g>
			<g>
				<g>
					<path fill="#FFFFFF" d="M98.05,101.627h2.977v10.832c0,2.643,0.143,4.461,0.432,5.457c0.434,1.422,1.259,2.545,2.479,3.369
						c1.22,0.824,2.675,1.236,4.364,1.236c1.687,0,3.119-0.402,4.297-1.205c1.178-0.803,1.988-1.857,2.437-3.166
						c0.304-0.896,0.456-2.791,0.456-5.691v-10.832h2.977v11.395c0,3.199-0.375,5.611-1.127,7.232
						c-0.752,1.621-1.879,2.893-3.39,3.809c-1.507,0.916-3.399,1.375-5.672,1.375c-2.273,0-4.173-0.459-5.694-1.375
						c-1.523-0.916-2.66-2.195-3.412-3.84c-0.749-1.643-1.123-4.115-1.123-7.416L98.05,101.627L98.05,101.627z"/>
					<path fill="#FFFFFF" d="M120.759,101.627h2.977v4.166c1.194-1.596,2.52-2.787,3.971-3.578c1.45-0.788,3.028-1.184,4.736-1.184
						c1.737,0,3.275,0.441,4.621,1.322c1.343,0.881,2.336,2.07,2.976,3.564c0.641,1.494,0.96,3.819,0.96,6.978v11.946h-2.977
						v-11.079c0-2.677-0.107-4.464-0.323-5.359c-0.337-1.534-0.997-2.692-1.981-3.469c-0.983-0.774-2.268-1.164-3.851-1.164
						c-1.812,0-3.436,0.6-4.868,1.793c-1.433,1.196-2.377,2.676-2.835,4.441c-0.284,1.152-0.429,3.26-0.429,6.318v8.519h-2.977
						V101.627z"/>
					<path fill="#FFFFFF" d="M166.299,92.638v32.204h-2.977v-3.994c-1.254,1.523-2.66,2.67-4.219,3.438
						c-1.561,0.771-3.266,1.151-5.115,1.151c-3.29,0-6.098-1.188-8.426-3.572c-2.328-2.383-3.49-5.28-3.49-8.694
						c0-3.342,1.172-6.198,3.523-8.575c2.348-2.375,5.174-3.563,8.479-3.563c1.908,0,3.633,0.407,5.178,1.218
						c1.545,0.812,2.902,2.03,4.07,3.653V92.638H166.299z M154.314,103.889c-1.666,0-3.2,0.41-4.605,1.229s-2.523,1.968-3.355,3.448
						c-0.832,1.479-1.246,3.047-1.246,4.697c0,1.637,0.418,3.2,1.258,4.696c0.836,1.494,1.963,2.658,3.377,3.49
						c1.414,0.834,2.93,1.247,4.551,1.247c1.634,0,3.183-0.411,4.646-1.237s2.59-1.94,3.379-3.353
						c0.789-1.407,1.186-2.996,1.186-4.762c0-2.689-0.887-4.938-2.652-6.746C159.076,104.793,156.898,103.889,154.314,103.889z"/>
					<path fill="#FFFFFF" d="M191.852,101.627v23.215h-2.977v-3.994c-1.254,1.523-2.66,2.67-4.219,3.438
						c-1.561,0.771-3.264,1.151-5.115,1.151c-3.287,0-6.098-1.188-8.424-3.572c-2.328-2.383-3.494-5.28-3.494-8.694
						c0-3.342,1.176-6.198,3.525-8.575c2.352-2.375,5.176-3.563,8.479-3.563c1.908,0,3.633,0.405,5.18,1.216
						c1.547,0.812,2.9,2.026,4.068,3.651v-4.272L191.852,101.627L191.852,101.627z M179.867,103.889
						c-1.662,0-3.197,0.41-4.604,1.229c-1.408,0.819-2.523,1.968-3.357,3.448c-0.83,1.479-1.248,3.047-1.248,4.697
						c0,1.637,0.422,3.2,1.258,4.696c0.84,1.494,1.965,2.658,3.379,3.49c1.414,0.834,2.932,1.247,4.553,1.247
						c1.633,0,3.186-0.411,4.646-1.237c1.465-0.826,2.59-1.94,3.379-3.353c0.787-1.407,1.186-2.996,1.186-4.762
						c0-2.689-0.887-4.938-2.654-6.746C184.633,104.793,182.453,103.889,179.867,103.889z"/>
					<path fill="#FFFFFF" d="M194.221,101.627h2.979v4.166c1.191-1.596,2.516-2.787,3.967-3.578
						c1.451-0.788,3.027-1.184,4.736-1.184c1.732,0,3.273,0.441,4.619,1.322c1.348,0.881,2.336,2.07,2.979,3.564
						c0.641,1.494,0.961,3.819,0.961,6.978v11.946h-2.979v-11.079c0-2.677-0.105-4.464-0.32-5.359c-0.338-1.534-1-2.692-1.984-3.469
						c-0.98-0.774-2.268-1.164-3.85-1.164c-1.813,0-3.438,0.6-4.869,1.793c-1.436,1.196-2.379,2.676-2.832,4.441
						c-0.287,1.152-0.428,3.26-0.428,6.318v8.519h-2.979V101.627z"/>
					<path fill="#FFFFFF" d="M239.1,106.402l-2.369,1.475c-2.055-2.738-4.854-4.107-8.402-4.107c-2.842,0-5.193,0.916-7.068,2.742
						c-1.877,1.827-2.813,4.047-2.813,6.658c0,1.699,0.432,3.299,1.295,4.797c0.863,1.5,2.047,2.664,3.551,3.49
						c1.504,0.83,3.191,1.242,5.059,1.242c3.42,0,6.215-1.367,8.383-4.105l2.369,1.559c-1.109,1.678-2.605,2.979-4.48,3.9
						c-1.875,0.924-4.016,1.385-6.41,1.385c-3.682,0-6.732-1.164-9.16-3.498c-2.426-2.332-3.639-5.17-3.639-8.512
						c0-2.248,0.564-4.336,1.699-6.264c1.137-1.928,2.695-3.43,4.68-4.512c1.98-1.082,4.203-1.621,6.654-1.621
						c1.539,0,3.025,0.233,4.465,0.698c1.432,0.465,2.646,1.073,3.646,1.819C237.553,104.297,238.4,105.248,239.1,106.402z"/>
					<path fill="#FFFFFF" d="M260.111,117.164l2.52,1.324c-0.828,1.615-1.787,2.92-2.873,3.912c-1.086,0.99-2.309,1.744-3.664,2.262
						c-1.357,0.518-2.893,0.775-4.607,0.775c-3.801,0-6.771-1.24-8.916-3.723c-2.145-2.48-3.215-5.289-3.215-8.418
						c0-2.941,0.906-5.566,2.723-7.872c2.301-2.93,5.379-4.395,9.236-4.395c3.975,0,7.146,1.501,9.52,4.503
						c1.688,2.119,2.545,4.766,2.57,7.938h-21.014c0.061,2.697,0.924,4.91,2.604,6.637c1.676,1.729,3.746,2.59,6.213,2.59
						c1.188,0,2.349-0.203,3.474-0.613c1.125-0.412,2.082-0.955,2.871-1.635C258.34,119.773,259.191,118.678,260.111,117.164z
						 M260.131,110.914c-0.402-1.6-0.988-2.878-1.754-3.834c-0.771-0.956-1.785-1.727-3.047-2.313
						c-1.264-0.586-2.592-0.879-3.984-0.879c-2.297,0-4.27,0.734-5.92,2.207c-1.207,1.068-2.117,2.676-2.736,4.816L260.131,110.914
						L260.131,110.914z"/>
				</g>
				<g>
					<path fill="#FFFFFF" d="M90.152,124.027c0.819-0.611,1.536-1.313,2.112-2.121c3.478-4.854,3.438-11.309-0.44-15.846
						c-5.326-6.23-13.312-5.745-20.421-7.858c-3.231-0.962-7.681-3.605-7.391-7.089c0.347-4.157,4.589-3.696,6.614-3.021
						c0.008,0.007,0.014,0.013,0.022,0.02l-3.735,2.222l4.666-0.506c0.038,0.077,0.064,0.129,0.064,0.129S71.725,90,71.87,90.07
						l-3.504,3.51l6.665-2.316c1.195,0.329,2.981,0.684,4.001,0.557l1.699,1.708l1.236,2.829l1.885,1.489l1.215-0.014l-0.79-0.786
						l1.453-1.331l-2.363,0.426l-1.313-2.844l-0.984-2.001c0.843-0.187,1.718-0.116,3.173,0.992
						c1.847-0.331,4.694,1.077,6.026,1.816c-0.599,0.447-1.358,1.043-1.358,1.043l2.686-0.325l1.783,0.534
						c0,0,0.859-2.708,0.145-3.488c-1.223-0.224-4.41-1.8-5.177-2.308c-0.551-0.541-1.033-1.325-1.033-1.325
						s-1.06-1.498-1.919-2.022c-2.152-1.151-6.842-4.885-6.842-4.885l-3.398-0.324l-10.25-7.255l-6.816-2.152
						c0,0,8.999,5.874,11.785,9.666c-1.376-0.248-2.884-0.428-3.641-0.764c-6.574-4.125-15.994-4.147-19.998-2.454
						c5.871,0.761,9.655,2.493,12.098,4.599c-4.966,1.151-10.189,4.099-12.227,10.104c3.176-3.062,6.421-3.436,8.067-3.23
						c-3.616,3.813-6.175,8.624-5.467,14.963c0.587-4.924,5.086-9.957,7.615-10.689c1.583,7.253,10.504,10.906,17.127,11.697
						c4.729,0.564,11.547,1.385,14.038,6.514c3.897,8.025-6.971,11.725-13.235,9.75c-2.124-0.67-4.558-1.754-7.102-2.865
						l-0.008-0.146c0,0-5.32-2.125-8.067-9.685c-0.177,3.016,0.584,5.405,1.708,7.266c-2.813-0.965-5.564-1.586-8.003-1.364
						c-5.928,0.539-12.356,6.696-9.469,16.459c0-7.297,4.195-11.58,8.314-12.418c4.121-0.836,9.516,2.039,14.696,4.666
						c-2.036,1.537-3.607,4.44-4.328,8.06c0.216-0.39,0.433-0.785,0.71-1.142c2.692-3.44,5.91-4.515,10.256-4.185
						c4.47,1.082,9.92,0.979,14.137-0.692c0.275,0.694,0.702,1.358,1.331,1.955c2.848,2.696,6.913,3.08,9.648,1.944
						C93.513,129.59,91.302,127.221,90.152,124.027z M85.197,87.995c0.393,0.244,1.663,1.145,1.663,1.145l-1.628-0.056l-2.546-1.718
						C82.686,87.365,84.803,87.749,85.197,87.995z"/>
				</g>
			</g>
		</g>
	</g>
</g>
</svg>
