<?xml version="1.0" encoding="utf-8"?>
<!-- Generator: Adobe Illustrator 15.0.0, SVG Export Plug-In . SVG Version: 6.00 Build 0)  -->
<!DOCTYPE svg PUBLIC "-//W3C//DTD SVG 1.1//EN" "http://www.w3.org/Graphics/SVG/1.1/DTD/svg11.dtd">
<svg version="1.1" xmlns="http://www.w3.org/2000/svg" xmlns:xlink="http://www.w3.org/1999/xlink" x="0px" y="0px" width="306px"
	 height="204px" viewBox="0 0 306 204" enable-background="new 0 0 306 204" xml:space="preserve">
<g id="圖層_2">
	<g id="圖層_2_1_">
		<rect x="-8" y="-5" fill="#F8B315" width="321" height="214"/>
	</g>
</g>
<g id="圖層_5">
	<g>
		<path fill="#1A1A1A" d="M69.553,142.202h3.827c2.47,0,4.141,0.113,5.012,0.34s1.533,0.6,1.986,1.118s0.737,1.096,0.851,1.731
			s0.17,1.885,0.17,3.748v6.889c0,1.766-0.083,2.946-0.249,3.541c-0.166,0.596-0.456,1.062-0.869,1.397s-0.923,0.571-1.531,0.705
			s-1.523,0.2-2.746,0.2h-6.452V142.202z M74.668,145.567v12.939c0.737,0,1.19-0.147,1.36-0.443c0.17-0.296,0.255-1.1,0.255-2.412
			v-7.642c0-0.892-0.028-1.462-0.085-1.714c-0.057-0.251-0.187-0.435-0.389-0.553C75.608,145.626,75.227,145.567,74.668,145.567z"/>
		<path fill="#1A1A1A" d="M93.543,145.75l-0.194,2.12c0.712-1.519,1.745-2.322,3.098-2.412v5.674c-0.899,0-1.56,0.121-1.98,0.364
			c-0.421,0.243-0.68,0.581-0.777,1.015s-0.146,1.432-0.146,2.995v6.366h-4.908V145.75H93.543z"/>
		<path fill="#1A1A1A" d="M107.401,151.994h-4.604v-1.081c0-1.247,0.144-2.209,0.431-2.886c0.288-0.676,0.865-1.273,1.731-1.792
			c0.867-0.518,1.992-0.777,3.377-0.777c1.66,0,2.912,0.294,3.754,0.881c0.843,0.587,1.349,1.309,1.519,2.162
			c0.171,0.855,0.256,2.614,0.256,5.279v8.092h-4.775v-1.437c-0.3,0.576-0.687,1.008-1.161,1.296
			c-0.474,0.288-1.039,0.433-1.695,0.433c-0.858,0-1.646-0.241-2.363-0.724c-0.717-0.481-1.075-1.536-1.075-3.165v-1.324
			c0-1.206,0.19-2.028,0.571-2.466s1.324-0.948,2.831-1.531c1.612-0.632,2.474-1.057,2.588-1.275c0.113-0.219,0.17-0.664,0.17-1.337
			c0-0.842-0.063-1.391-0.188-1.646c-0.125-0.256-0.334-0.383-0.625-0.383c-0.332,0-0.539,0.107-0.62,0.321
			c-0.081,0.215-0.122,0.771-0.122,1.671V151.994z M108.956,154.206c-0.786,0.575-1.241,1.057-1.367,1.445
			c-0.126,0.389-0.188,0.948-0.188,1.677c0,0.834,0.055,1.373,0.164,1.616s0.326,0.364,0.65,0.364c0.308,0,0.508-0.095,0.602-0.285
			c0.093-0.19,0.14-0.69,0.14-1.501V154.206z"/>
		<path fill="#1A1A1A" d="M132.181,145.75v12.416c0,1.677-0.039,2.761-0.115,3.25c-0.077,0.49-0.351,1.009-0.82,1.556
			s-1.124,0.964-1.962,1.251c-0.839,0.288-1.894,0.432-3.165,0.432c-1.563,0-2.819-0.266-3.767-0.796
			c-0.948-0.53-1.438-1.573-1.471-3.128h4.763c0,0.712,0.26,1.068,0.778,1.068c0.372,0,0.619-0.109,0.741-0.328
			c0.121-0.219,0.182-0.677,0.182-1.374v-1.217c-0.421,0.382-0.864,0.671-1.33,0.865c-0.466,0.195-0.954,0.292-1.464,0.292
			c-0.883,0-1.61-0.178-2.181-0.534c-0.571-0.356-0.962-0.824-1.173-1.403s-0.316-1.403-0.316-2.473v-5.855
			c0-1.531,0.275-2.633,0.826-3.305c0.551-0.673,1.39-1.009,2.516-1.009c0.615,0,1.176,0.126,1.683,0.377
			c0.506,0.252,0.958,0.63,1.354,1.133l0.353-1.218H132.181z M127.26,150.026c0-0.737-0.042-1.207-0.128-1.409
			c-0.085-0.203-0.272-0.304-0.564-0.304c-0.283,0-0.484,0.115-0.602,0.346c-0.117,0.231-0.176,0.687-0.176,1.367v5.419
			c0,0.721,0.044,1.188,0.134,1.403c0.089,0.214,0.274,0.321,0.559,0.321c0.323,0,0.534-0.129,0.632-0.389
			c0.097-0.259,0.146-0.846,0.146-1.762V150.026z"/>
		<path fill="#1A1A1A" d="M150.509,151.411v3.949c0,1.449-0.073,2.513-0.219,3.188c-0.146,0.677-0.458,1.309-0.936,1.896
			c-0.478,0.588-1.092,1.021-1.841,1.3c-0.749,0.28-1.609,0.42-2.582,0.42c-1.085,0-2.004-0.12-2.758-0.358
			c-0.753-0.239-1.338-0.6-1.755-1.082c-0.418-0.481-0.715-1.064-0.894-1.749c-0.178-0.685-0.268-1.711-0.268-3.08v-4.131
			c0-1.498,0.162-2.669,0.486-3.512c0.324-0.842,0.907-1.519,1.75-2.028c0.842-0.511,1.919-0.766,3.231-0.766
			c1.102,0,2.047,0.164,2.837,0.492s1.399,0.755,1.828,1.281c0.43,0.527,0.724,1.069,0.881,1.629
			C150.43,149.419,150.509,150.27,150.509,151.411z M145.601,150.196c0-0.826-0.045-1.347-0.134-1.562
			c-0.089-0.214-0.279-0.321-0.571-0.321c-0.291,0-0.485,0.107-0.583,0.321c-0.098,0.215-0.146,0.735-0.146,1.562v7.277
			c0,0.762,0.048,1.258,0.146,1.488c0.098,0.231,0.287,0.347,0.571,0.347c0.291,0,0.483-0.105,0.577-0.316
			c0.093-0.21,0.14-0.664,0.14-1.36V150.196z"/>
		<path fill="#1A1A1A" d="M162.592,145.75l-0.085,1.484c0.356-0.592,0.792-1.036,1.306-1.332c0.515-0.296,1.108-0.444,1.78-0.444
			c0.843,0,1.531,0.198,2.065,0.596c0.534,0.396,0.879,0.896,1.033,1.5c0.153,0.604,0.23,1.61,0.23,3.02v11.299h-4.908v-11.165
			c0-1.11-0.037-1.786-0.109-2.029c-0.073-0.243-0.275-0.364-0.607-0.364c-0.349,0-0.567,0.14-0.656,0.419
			c-0.09,0.279-0.134,1.026-0.134,2.241v10.898h-4.908V145.75H162.592z"/>
		<path fill="#1A1A1A" d="M187.068,148.155h-4.751v-1.458c0-0.681-0.061-1.113-0.183-1.3c-0.121-0.187-0.323-0.279-0.607-0.279
			c-0.308,0-0.54,0.125-0.698,0.377c-0.158,0.251-0.237,0.632-0.237,1.143c0,0.656,0.089,1.151,0.267,1.483
			c0.17,0.332,0.651,0.733,1.445,1.202c2.277,1.352,3.711,2.461,4.303,3.327c0.591,0.867,0.887,2.264,0.887,4.191
			c0,1.401-0.164,2.435-0.492,3.099s-0.962,1.221-1.901,1.671c-0.939,0.449-2.033,0.674-3.28,0.674c-1.369,0-2.537-0.26-3.505-0.777
			c-0.968-0.519-1.603-1.179-1.901-1.98c-0.3-0.802-0.45-1.939-0.45-3.414v-1.288h4.751v2.394c0,0.737,0.066,1.211,0.2,1.422
			c0.134,0.21,0.371,0.315,0.711,0.315s0.593-0.134,0.76-0.4c0.165-0.268,0.249-0.664,0.249-1.191c0-1.158-0.158-1.915-0.475-2.271
			c-0.323-0.356-1.122-0.952-2.394-1.786c-1.271-0.843-2.113-1.454-2.526-1.835c-0.413-0.38-0.756-0.906-1.027-1.579
			c-0.271-0.672-0.406-1.531-0.406-2.576c0-1.506,0.192-2.607,0.577-3.305c0.384-0.696,1.006-1.24,1.864-1.634
			c0.858-0.393,1.896-0.589,3.11-0.589c1.328,0,2.461,0.215,3.396,0.644c0.936,0.43,1.555,0.97,1.858,1.622s0.456,1.76,0.456,3.323
			V148.155z"/>
		<path fill="#1A1A1A" d="M205.53,151.411v3.949c0,1.449-0.073,2.513-0.219,3.188c-0.146,0.677-0.458,1.309-0.936,1.896
			c-0.478,0.588-1.092,1.021-1.841,1.3c-0.749,0.28-1.609,0.42-2.582,0.42c-1.085,0-2.004-0.12-2.758-0.358
			c-0.753-0.239-1.338-0.6-1.755-1.082c-0.418-0.481-0.715-1.064-0.894-1.749c-0.178-0.685-0.268-1.711-0.268-3.08v-4.131
			c0-1.498,0.162-2.669,0.486-3.512c0.324-0.842,0.907-1.519,1.75-2.028c0.842-0.511,1.919-0.766,3.231-0.766
			c1.102,0,2.047,0.164,2.837,0.492s1.399,0.755,1.828,1.281c0.43,0.527,0.724,1.069,0.881,1.629
			C205.451,149.419,205.53,150.27,205.53,151.411z M200.622,150.196c0-0.826-0.045-1.347-0.134-1.562
			c-0.089-0.214-0.279-0.321-0.571-0.321c-0.291,0-0.485,0.107-0.583,0.321c-0.098,0.215-0.146,0.735-0.146,1.562v7.277
			c0,0.762,0.048,1.258,0.146,1.488c0.098,0.231,0.287,0.347,0.571,0.347c0.291,0,0.483-0.105,0.577-0.316
			c0.093-0.21,0.14-0.664,0.14-1.36V150.196z"/>
		<path fill="#1A1A1A" d="M218.877,142.202v2.49c-1.013,0-1.609,0.047-1.792,0.14c-0.183,0.094-0.273,0.358-0.273,0.796v0.511h2.065
			v2.551h-1.166v13.183h-4.909v-13.183h-1.008v-2.551h1.008c0-1.062,0.037-1.77,0.109-2.127c0.073-0.355,0.253-0.674,0.541-0.953
			c0.287-0.279,0.69-0.492,1.209-0.638c0.519-0.146,1.324-0.219,2.418-0.219H218.877z"/>
		<path fill="#1A1A1A" d="M230.463,143.599v2.54h1.324v2.551h-1.324v8.627c0,1.061,0.055,1.652,0.164,1.773s0.564,0.183,1.366,0.183
			v2.6h-1.98c-1.117,0-1.915-0.047-2.394-0.14c-0.478-0.093-0.898-0.308-1.263-0.644c-0.365-0.337-0.592-0.722-0.681-1.154
			c-0.089-0.434-0.134-1.452-0.134-3.056v-8.189h-1.057v-2.551h1.057v-2.54H230.463z"/>
	</g>
</g>
<g id="圖層_4_1_">
	<g>
		<path fill="#1A1A1A" d="M146.62,110.917c-7.41,0-13.417-6.007-13.417-13.417c0-7.41,6.007-13.417,13.417-13.417v-19.25
			c-18.042,0-32.667,14.625-32.667,32.667c0,18.042,14.625,32.667,32.667,32.667c18.041,0,32.667-14.625,32.667-32.667h-19.25
			C160.037,104.91,154.029,110.917,146.62,110.917z"/>
		<circle fill="#1A1A1A" cx="160.875" cy="59.828" r="3.672"/>
		<circle fill="#1A1A1A" cx="176.375" cy="83.828" r="3.672"/>
		<circle fill="#1A1A1A" cx="168.656" cy="91.547" r="3.297"/>
		<circle fill="#1A1A1A" cx="160.667" cy="91.964" r="2.88"/>
		<circle fill="#1A1A1A" cx="153.323" cy="91.964" r="2.88"/>
		<circle fill="#1A1A1A" cx="168.656" cy="75.297" r="3.297"/>
		<circle fill="#1A1A1A" cx="160.667" cy="75.714" r="2.88"/>
		<circle fill="#1A1A1A" cx="168.656" cy="83.828" r="2.88"/>
		<circle fill="#1A1A1A" cx="153.323" cy="75.714" r="2.88"/>
		<circle fill="#1A1A1A" cx="153.323" cy="67.714" r="2.88"/>
	</g>
</g>
</svg>
