<?xml version="1.0" encoding="utf-8"?>
<!-- Generator: Adobe Illustrator 15.0.0, SVG Export Plug-In . SVG Version: 6.00 Build 0)  -->
<!DOCTYPE svg PUBLIC "-//W3C//DTD SVG 1.1//EN" "http://www.w3.org/Graphics/SVG/1.1/DTD/svg11.dtd">
<svg version="1.1" xmlns="http://www.w3.org/2000/svg" xmlns:xlink="http://www.w3.org/1999/xlink" x="0px" y="0px" width="306px"
	 height="204px" viewBox="0 0 306 204" enable-background="new 0 0 306 204" xml:space="preserve">
<g id="圖層_2">
	<rect fill="#FFFFFF" width="306" height="204"/>
</g>
<g id="圖層_1">
	<g id="圖層_4">
		<g>
			<path fill="#D70C18" d="M155.277,65.878c-12.097-0.009-20.298,10.057-20.381,19.562c-0.079,8.071,3.487,15.974,12.311,19.732
				c5.292,2.276,14.645,3.938,14.49,12.325c-0.137,6.666-7.98,11.646-15.362,11.646h-12.684V92.494h-10.502v-17.51h10.502v-9.105
				h-19.566v35.727h10.505v36.516h24.409c11.801,0,22.212-9.478,22.293-21.267c0.063-10.416-8.188-15.78-18.267-19.085
				c-6.492-2.117-9.144-6.89-8.986-12.125c0.162-5.349,5.088-10.674,11.061-10.661h27.908v17.013h8.906V65.878H155.277z"/>
			<path fill="#D70C18" d="M174.752,87.413c-4.076-2.655-9.626-4.985-14.568-5.308l-0.019,0.005
				c-0.172-0.009-0.337-0.032-0.513-0.032c-2.477,0-4.484,2.016-4.484,4.475c0,1.44,0.672,2.708,1.714,3.531
				c0.444,0.403,1.642,1.002,3.466,1.476c10.922,2.87,19.823,13.098,20.439,22.592c1.025,15.916-10.021,23.88-10.021,23.88h11.291
				c4.998-4.854,8.289-13.007,8.082-23.416C189.938,104.189,183.971,93.393,174.752,87.413"/>
		</g>
	</g>
</g>
</svg>
