<?xml version="1.0" encoding="utf-8"?>
<!-- Generator: Adobe Illustrator 15.0.0, SVG Export Plug-In . SVG Version: 6.00 Build 0)  -->
<!DOCTYPE svg PUBLIC "-//W3C//DTD SVG 1.1//EN" "http://www.w3.org/Graphics/SVG/1.1/DTD/svg11.dtd">
<svg version="1.1" xmlns="http://www.w3.org/2000/svg" xmlns:xlink="http://www.w3.org/1999/xlink" x="0px" y="0px" width="306px"
	 height="204px" viewBox="0 0 306 204" enable-background="new 0 0 306 204" xml:space="preserve">
<g id="圖層_2">
	<g id="圖層_2_1_">
		<rect x="-8" y="-5" fill="#FFFFFF" width="321" height="214"/>
	</g>
</g>
<g id="圖層_1">
	<g id="圖層_4">
		<g>
			<g>
				<g>
					<path fill="#282527" d="M101.39,147.712h-1.881c-0.022,0-0.043,0.005-0.063,0.013s-0.046,0.024-0.079,0.051l-0.129,0.089
						l-0.039-0.019l0.419-0.703h4.714l-0.442,0.722h-0.033V147.8c0-0.026-0.009-0.047-0.029-0.063
						c-0.02-0.016-0.046-0.023-0.079-0.023h-1.667v3.426c0,0.027,0.003,0.051,0.008,0.065c0.006,0.017,0.017,0.03,0.031,0.044
						l0.087,0.074v0.042h-0.951v-0.042l0.086-0.074c0.018-0.014,0.03-0.029,0.037-0.047c0.009-0.018,0.012-0.039,0.012-0.063v-3.427
						H101.39z"/>
					<path fill="#282527" d="M105.21,151.363h-1.001l2.961-4.367l2.942,4.367h-1.014v-0.043c0.044,0,0.078-0.006,0.104-0.022
						c0.025-0.016,0.038-0.034,0.038-0.063c0-0.018-0.003-0.033-0.009-0.049c-0.005-0.015-0.011-0.024-0.018-0.033l-0.997-1.473
						h-1.439c-0.068,0-0.113,0-0.135,0.004c-0.022,0.002-0.037,0.008-0.047,0.02l-0.096,0.07l-0.033-0.023l0.42-0.65h0.934
						l-0.65-0.966l-2.076,3.017c-0.009,0.012-0.016,0.025-0.02,0.039c-0.005,0.017-0.007,0.031-0.007,0.047
						c0,0.027,0.013,0.047,0.038,0.063c0.025,0.018,0.06,0.023,0.104,0.023L105.21,151.363L105.21,151.363z"/>
					<path fill="#282527" d="M110.614,151.137v-3.777c0-0.021-0.004-0.039-0.013-0.055c-0.007-0.019-0.02-0.033-0.037-0.047
						l-0.079-0.074v-0.041h0.943v0.041l-0.079,0.074c-0.018,0.016-0.029,0.031-0.036,0.047c-0.007,0.014-0.01,0.032-0.01,0.055
						v3.777c0,0.024,0.004,0.047,0.011,0.063c0.009,0.018,0.02,0.034,0.035,0.047l0.079,0.073v0.043h-0.943v-0.043l0.079-0.073
						c0.018-0.013,0.03-0.029,0.037-0.047C110.61,151.184,110.614,151.161,110.614,151.137z"/>
					<path fill="#282527" d="M114.711,147.712c-0.28,0-0.512,0.022-0.696,0.067c-0.186,0.047-0.342,0.117-0.47,0.213
						c-0.202,0.154-0.355,0.338-0.459,0.55c-0.103,0.214-0.155,0.45-0.155,0.709c0,0.274,0.051,0.519,0.152,0.728
						s0.253,0.385,0.455,0.526c0.144,0.103,0.303,0.173,0.478,0.216c0.175,0.043,0.415,0.063,0.722,0.063h2.033
						c0.028,0,0.054-0.004,0.076-0.013c0.022-0.008,0.046-0.021,0.072-0.041l0.129-0.099h0.056l-0.442,0.729h-1.924
						c-0.444,0-0.79-0.032-1.035-0.102c-0.246-0.068-0.477-0.184-0.691-0.344c-0.265-0.193-0.464-0.427-0.6-0.7
						c-0.135-0.271-0.203-0.575-0.203-0.909c0-0.261,0.039-0.504,0.117-0.73c0.078-0.227,0.194-0.438,0.349-0.628
						c0.107-0.134,0.231-0.251,0.37-0.356c0.138-0.104,0.29-0.195,0.455-0.27c0.146-0.065,0.301-0.111,0.469-0.141
						c0.167-0.027,0.415-0.041,0.743-0.041h2.33l-0.439,0.721h-0.032l0.006-0.053v-0.012c0-0.025-0.011-0.047-0.032-0.063
						c-0.022-0.018-0.05-0.024-0.083-0.024h-1.751V147.712z"/>
					<path fill="#282527" d="M117.823,151.137v-3.777c0-0.021-0.004-0.041-0.01-0.055c-0.007-0.016-0.02-0.031-0.037-0.047
						l-0.086-0.074v-0.041h0.951v0.041l-0.086,0.074c-0.018,0.014-0.03,0.028-0.037,0.047c-0.009,0.016-0.012,0.034-0.012,0.055
						v3.777c0,0.024,0.003,0.047,0.012,0.063c0.007,0.018,0.02,0.034,0.037,0.047l0.086,0.073v0.043h-0.951v-0.043l0.086-0.073
						c0.016-0.013,0.027-0.029,0.035-0.047C117.819,151.182,117.823,151.161,117.823,151.137z M121.111,151.137v-1.835h-2.219
						c-0.026,0-0.05,0.003-0.069,0.011c-0.02,0.008-0.044,0.021-0.072,0.043l-0.129,0.099l-0.04-0.019l0.42-0.713h2.109v-1.363
						c0-0.021-0.004-0.039-0.012-0.055c-0.008-0.019-0.021-0.033-0.038-0.047l-0.086-0.074v-0.041h0.954v0.041l-0.089,0.074
						c-0.016,0.012-0.026,0.025-0.031,0.042c-0.006,0.015-0.009,0.035-0.009,0.06v3.777c0,0.028,0.004,0.053,0.01,0.068
						c0.007,0.018,0.017,0.029,0.03,0.042l0.089,0.073v0.043h-0.954v-0.043l0.086-0.073c0.018-0.013,0.03-0.029,0.038-0.047
						C121.107,151.182,121.111,151.161,121.111,151.137z"/>
					<path fill="#282527" d="M126.298,150.23v-2.873c-0.003-0.021-0.007-0.039-0.014-0.055c-0.006-0.015-0.019-0.029-0.036-0.046
						l-0.079-0.073v-0.043h0.944v0.043l-0.079,0.073c-0.018,0.015-0.03,0.028-0.036,0.044c-0.007,0.016-0.012,0.035-0.014,0.057
						v3.063c0,0.336-0.164,0.591-0.491,0.761c-0.328,0.172-0.82,0.256-1.477,0.256c-0.653,0-1.145-0.084-1.474-0.256
						c-0.329-0.17-0.493-0.425-0.493-0.761v-3.063c0-0.021-0.004-0.039-0.011-0.055c-0.007-0.015-0.019-0.029-0.036-0.046
						l-0.079-0.073v-0.043h0.944v0.043l-0.079,0.073c-0.018,0.015-0.03,0.028-0.038,0.046s-0.012,0.035-0.012,0.055v2.873
						c0,0.238,0.092,0.404,0.273,0.498c0.184,0.095,0.516,0.142,0.998,0.142c0.49,0,0.827-0.046,1.012-0.14
						C126.206,150.639,126.298,150.473,126.298,150.23z"/>
					<path fill="#282527" d="M131.489,150.074v-2.717c-0.002-0.021-0.006-0.039-0.013-0.055c-0.007-0.015-0.019-0.029-0.036-0.046
						l-0.086-0.073v-0.043h0.885v0.043l-0.082,0.073c-0.017,0.015-0.027,0.028-0.035,0.046c-0.008,0.018-0.012,0.035-0.012,0.055
						v4.146l-3.291-3.023v2.656c0,0.024,0.003,0.047,0.012,0.063c0.008,0.018,0.019,0.034,0.034,0.047l0.079,0.073v0.043h-0.884
						v-0.043l0.089-0.073c0.016-0.013,0.026-0.029,0.035-0.047c0.007-0.019,0.011-0.039,0.011-0.063v-4.141L131.489,150.074z"/>
					<path fill="#282527" d="M135.404,147.712c-0.279,0-0.512,0.022-0.695,0.067c-0.186,0.047-0.342,0.117-0.47,0.213
						c-0.201,0.154-0.355,0.338-0.459,0.55c-0.104,0.214-0.155,0.45-0.155,0.709c0,0.274,0.052,0.519,0.152,0.728
						c0.102,0.209,0.254,0.385,0.456,0.526c0.143,0.103,0.302,0.173,0.476,0.216c0.177,0.043,0.416,0.063,0.723,0.063h1.108v-1.472
						h-1.481c-0.029,0-0.054,0.004-0.076,0.013c-0.022,0.008-0.046,0.022-0.072,0.042l-0.129,0.098l-0.04-0.023l0.427-0.707h2.059
						v2.402c0,0.024,0.005,0.047,0.014,0.063c0.01,0.018,0.021,0.034,0.037,0.047l0.078,0.074v0.042h-1.924
						c-0.445,0-0.79-0.033-1.035-0.102c-0.245-0.07-0.476-0.185-0.691-0.345c-0.264-0.194-0.464-0.427-0.6-0.7
						c-0.135-0.271-0.203-0.574-0.203-0.91c0-0.26,0.04-0.502,0.117-0.729c0.078-0.228,0.194-0.438,0.348-0.628
						c0.109-0.133,0.232-0.251,0.371-0.356c0.139-0.104,0.29-0.194,0.455-0.27c0.146-0.065,0.302-0.111,0.47-0.14
						c0.167-0.027,0.414-0.043,0.741-0.043h1.764l-0.439,0.723h-0.04l0.007-0.053v-0.013c0-0.026-0.011-0.047-0.032-0.063
						c-0.022-0.017-0.05-0.023-0.083-0.023L135.404,147.712L135.404,147.712z"/>
					<path fill="#282527" d="M142.625,147.712c-0.279,0-0.512,0.022-0.696,0.067c-0.185,0.047-0.341,0.117-0.47,0.213
						c-0.201,0.154-0.355,0.338-0.458,0.55c-0.104,0.214-0.155,0.45-0.155,0.709c0,0.274,0.051,0.519,0.152,0.728
						s0.253,0.385,0.455,0.526c0.144,0.103,0.303,0.173,0.477,0.216c0.176,0.043,0.416,0.063,0.722,0.063h2.033
						c0.029,0,0.055-0.004,0.077-0.013c0.021-0.008,0.046-0.021,0.072-0.041l0.129-0.099h0.056l-0.442,0.729h-1.925
						c-0.444,0-0.789-0.032-1.034-0.102c-0.246-0.068-0.477-0.184-0.691-0.344c-0.265-0.193-0.465-0.427-0.601-0.7
						c-0.134-0.271-0.202-0.575-0.202-0.909c0-0.261,0.039-0.504,0.116-0.73c0.078-0.229,0.194-0.438,0.349-0.628
						c0.108-0.134,0.231-0.251,0.37-0.356c0.139-0.104,0.29-0.195,0.455-0.27c0.146-0.065,0.302-0.111,0.47-0.141
						c0.167-0.027,0.414-0.041,0.742-0.041h2.331l-0.439,0.721h-0.033l0.007-0.053v-0.012c0-0.025-0.011-0.047-0.033-0.063
						c-0.021-0.018-0.05-0.024-0.082-0.024h-1.752V147.712z"/>
					<path fill="#282527" d="M145.768,151.137v-3.777c0-0.021-0.004-0.039-0.013-0.055c-0.007-0.019-0.02-0.033-0.037-0.047
						l-0.079-0.074v-0.041h0.944v0.041l-0.079,0.074c-0.018,0.016-0.03,0.031-0.037,0.047c-0.007,0.014-0.009,0.032-0.009,0.055
						v3.777c0,0.024,0.003,0.047,0.011,0.063c0.008,0.017,0.02,0.034,0.035,0.047l0.079,0.073v0.043h-0.944v-0.043l0.079-0.073
						c0.018-0.013,0.03-0.029,0.037-0.047C145.764,151.184,145.768,151.161,145.768,151.137z"/>
					<path fill="#282527" d="M149.315,147.712h-1.881c-0.022,0-0.043,0.005-0.063,0.013c-0.019,0.008-0.046,0.024-0.078,0.051
						l-0.129,0.089l-0.04-0.019l0.419-0.703h4.714l-0.441,0.722h-0.033V147.8c0-0.026-0.011-0.047-0.03-0.063
						c-0.02-0.016-0.046-0.023-0.079-0.023h-1.666v3.426c0,0.027,0.002,0.051,0.008,0.065c0.005,0.017,0.015,0.03,0.031,0.044
						l0.086,0.074v0.042h-0.951v-0.042l0.086-0.074c0.018-0.014,0.03-0.029,0.038-0.047c0.008-0.018,0.011-0.039,0.011-0.063v-3.427
						H149.315z"/>
					<path fill="#282527" d="M154.176,151.137v-1.617l-2.04-2.377h1.09v0.041l-0.07,0.055c-0.009,0.009-0.016,0.021-0.022,0.033
						c-0.007,0.013-0.01,0.023-0.01,0.035c0,0.03,0.035,0.088,0.109,0.172c0.01,0.012,0.019,0.021,0.025,0.029l1.238,1.452
						l1.168-1.452c0.005-0.007,0.014-0.02,0.025-0.033c0.069-0.076,0.104-0.134,0.104-0.168c0-0.012-0.004-0.022-0.011-0.035
						c-0.008-0.014-0.016-0.024-0.022-0.033l-0.063-0.055v-0.041h1.07l-1.9,2.322v1.672c0,0.024,0.003,0.047,0.011,0.063
						s0.021,0.034,0.038,0.047l0.079,0.073v0.043h-0.947v-0.043l0.083-0.073c0.016-0.013,0.025-0.029,0.033-0.047
						C154.173,151.184,154.176,151.161,154.176,151.137z"/>
					<path fill="#282527" d="M161.441,147.712c-0.279,0-0.512,0.022-0.696,0.067c-0.185,0.047-0.341,0.117-0.47,0.213
						c-0.202,0.154-0.354,0.338-0.459,0.55c-0.103,0.214-0.154,0.45-0.154,0.709c0,0.274,0.05,0.519,0.152,0.728
						c0.101,0.209,0.252,0.385,0.455,0.526c0.143,0.103,0.303,0.173,0.477,0.216c0.176,0.043,0.416,0.063,0.721,0.063h1.11v-1.472
						h-1.481c-0.029,0-0.055,0.004-0.076,0.013c-0.021,0.008-0.047,0.022-0.072,0.042l-0.129,0.098l-0.039-0.023l0.425-0.707h2.062
						v2.402c0,0.024,0.004,0.047,0.012,0.063c0.011,0.018,0.021,0.034,0.037,0.047l0.08,0.074v0.042h-1.927
						c-0.442,0-0.788-0.033-1.032-0.102c-0.246-0.068-0.478-0.185-0.692-0.345c-0.265-0.194-0.464-0.427-0.599-0.7
						c-0.137-0.271-0.205-0.574-0.205-0.91c0-0.26,0.041-0.502,0.119-0.729s0.192-0.438,0.349-0.628
						c0.106-0.133,0.229-0.251,0.37-0.356c0.138-0.104,0.289-0.194,0.455-0.27c0.146-0.065,0.301-0.111,0.468-0.14
						c0.167-0.027,0.416-0.043,0.743-0.043h1.764l-0.439,0.723h-0.039l0.006-0.053v-0.013c0-0.026-0.01-0.047-0.031-0.063
						c-0.023-0.017-0.051-0.023-0.084-0.023L161.441,147.712L161.441,147.712z"/>
					<path fill="#282527" d="M166.703,147.066c0.355,0,0.684,0.045,0.988,0.137c0.307,0.09,0.566,0.219,0.785,0.388
						c0.283,0.218,0.498,0.468,0.642,0.747c0.146,0.28,0.217,0.585,0.217,0.913c0,0.327-0.071,0.63-0.218,0.911
						c-0.145,0.279-0.36,0.527-0.641,0.744c-0.222,0.172-0.483,0.305-0.787,0.396c-0.306,0.091-0.633,0.136-0.986,0.136
						c-0.35,0-0.678-0.045-0.98-0.136c-0.305-0.091-0.568-0.224-0.789-0.396c-0.283-0.215-0.496-0.461-0.642-0.74
						c-0.144-0.279-0.216-0.584-0.216-0.915c0-0.327,0.072-0.631,0.218-0.912c0.146-0.28,0.358-0.53,0.64-0.748
						c0.219-0.169,0.479-0.298,0.784-0.388C166.023,147.111,166.352,147.066,166.703,147.066z M166.703,147.635
						c-0.563,0-1.02,0.151-1.372,0.452c-0.354,0.304-0.532,0.69-0.532,1.164c0,0.476,0.178,0.864,0.532,1.166
						s0.812,0.453,1.372,0.453s1.021-0.151,1.376-0.453s0.532-0.69,0.532-1.166c0-0.474-0.178-0.86-0.532-1.164
						C167.725,147.786,167.266,147.635,166.703,147.635z"/>
					<path fill="#282527" d="M171.938,150.208l1.556-2.704c0.024-0.043,0.043-0.081,0.056-0.111
						c0.014-0.033,0.018-0.058,0.018-0.074c0-0.014-0.002-0.027-0.008-0.041c-0.006-0.012-0.015-0.021-0.024-0.031l-0.066-0.063
						v-0.041h0.972l-2.506,4.361l-2.502-4.361h1.014v0.041l-0.061,0.055c-0.014,0.012-0.023,0.023-0.029,0.037
						c-0.008,0.015-0.014,0.025-0.014,0.037c0,0.018,0.008,0.043,0.021,0.08c0.013,0.034,0.031,0.073,0.056,0.115L171.938,150.208z"
						/>
					<path fill="#282527" d="M177.029,147.712c-0.279,0-0.512,0.022-0.696,0.067c-0.185,0.047-0.34,0.117-0.468,0.213
						c-0.204,0.154-0.355,0.338-0.461,0.55c-0.103,0.214-0.153,0.45-0.153,0.709c0,0.274,0.05,0.519,0.151,0.728
						c0.101,0.209,0.252,0.385,0.455,0.526c0.143,0.103,0.302,0.173,0.478,0.216c0.175,0.043,0.415,0.063,0.722,0.063h2.033
						c0.028,0,0.055-0.004,0.076-0.013c0.021-0.008,0.046-0.021,0.072-0.041l0.128-0.099h0.057l-0.442,0.729h-1.924
						c-0.443,0-0.789-0.032-1.035-0.102c-0.246-0.068-0.476-0.184-0.69-0.344c-0.265-0.193-0.465-0.427-0.601-0.7
						c-0.135-0.271-0.203-0.575-0.203-0.909c0-0.261,0.041-0.504,0.117-0.73c0.078-0.229,0.194-0.438,0.351-0.628
						c0.106-0.134,0.229-0.251,0.368-0.356c0.139-0.104,0.291-0.195,0.455-0.27c0.146-0.065,0.302-0.111,0.47-0.141
						c0.167-0.027,0.416-0.041,0.743-0.041h2.33l-0.438,0.721h-0.032l0.006-0.053v-0.012c0-0.025-0.012-0.047-0.033-0.063
						c-0.021-0.018-0.049-0.024-0.082-0.024h-1.752V147.712z M175.419,149.337l0.283-0.579h3.231l-0.433,0.731h-0.039l0.006-0.06
						v-0.014c0-0.023-0.01-0.042-0.03-0.059c-0.021-0.015-0.049-0.021-0.084-0.021L175.419,149.337L175.419,149.337z"/>
					<path fill="#282527" d="M182.645,147.143c0.316,0,0.588,0.082,0.811,0.246c0.225,0.164,0.363,0.385,0.423,0.659l-1.183,0.784
						c0.57,0.079,1.021,0.324,1.354,0.734c0.337,0.41,0.503,0.926,0.503,1.547v0.25h-0.818v-0.043l0.09-0.073
						c0.015-0.013,0.025-0.029,0.033-0.047c0.01-0.019,0.014-0.039,0.014-0.063v-0.132c0-0.498-0.171-0.909-0.512-1.233
						c-0.34-0.326-0.771-0.486-1.289-0.486c-0.065,0-0.137,0.002-0.211,0.007c-0.073,0.005-0.154,0.012-0.24,0.022l1.251-0.883
						c0.092-0.068,0.155-0.125,0.19-0.174c0.037-0.049,0.054-0.104,0.054-0.162c0-0.119-0.056-0.212-0.169-0.279
						c-0.111-0.069-0.268-0.104-0.469-0.104h-1.644v3.425c0,0.024,0.003,0.047,0.011,0.063s0.021,0.034,0.038,0.047l0.079,0.073
						v0.043h-0.943v-0.043l0.08-0.073c0.016-0.013,0.024-0.029,0.033-0.047c0.008-0.019,0.012-0.039,0.012-0.063v-3.777
						c0-0.021-0.004-0.041-0.01-0.056c-0.007-0.015-0.02-0.03-0.035-0.046l-0.08-0.074v-0.041H182.645L182.645,147.143z"/>
					<path fill="#282527" d="M188.591,150.074v-2.717c-0.002-0.021-0.007-0.039-0.014-0.055c-0.007-0.015-0.021-0.029-0.036-0.046
						l-0.086-0.073v-0.043h0.885v0.043l-0.083,0.073c-0.015,0.015-0.026,0.028-0.034,0.046s-0.012,0.035-0.012,0.055v4.146
						l-3.291-3.023v2.656c0,0.024,0.004,0.047,0.012,0.063s0.02,0.034,0.034,0.047l0.08,0.073v0.043h-0.885v-0.043l0.088-0.073
						c0.017-0.013,0.028-0.029,0.035-0.047c0.008-0.019,0.012-0.039,0.012-0.063v-4.141L188.591,150.074z"/>
					<path fill="#282527" d="M192.869,150.243l1.664-3.247l1.29,4.367h-0.857v-0.043l0.082-0.073
						c0.013-0.009,0.021-0.022,0.028-0.041c0.007-0.019,0.012-0.036,0.012-0.058c0-0.01-0.003-0.023-0.008-0.043
						c-0.003-0.021-0.01-0.043-0.02-0.068l-0.717-2.484l-1.51,2.951l-1.572-2.922l-0.658,2.451c-0.006,0.021-0.012,0.042-0.016,0.06
						c-0.002,0.019-0.004,0.035-0.004,0.052c0,0.021,0.003,0.041,0.009,0.06c0.009,0.019,0.017,0.032,0.03,0.044l0.076,0.074v0.042
						h-0.852l1.311-4.367L192.869,150.243z"/>
					<path fill="#282527" d="M198.673,147.712c-0.28,0-0.512,0.022-0.696,0.067c-0.186,0.047-0.342,0.117-0.469,0.213
						c-0.203,0.154-0.355,0.338-0.46,0.55c-0.103,0.214-0.155,0.45-0.155,0.709c0,0.274,0.051,0.519,0.152,0.728
						s0.253,0.385,0.456,0.526c0.142,0.103,0.302,0.173,0.476,0.216c0.176,0.043,0.416,0.063,0.723,0.063h2.033
						c0.028,0,0.055-0.004,0.076-0.013c0.021-0.008,0.047-0.021,0.072-0.041l0.128-0.099h0.058l-0.442,0.729h-1.925
						c-0.444,0-0.788-0.032-1.034-0.102c-0.246-0.068-0.478-0.184-0.69-0.344c-0.266-0.193-0.465-0.427-0.601-0.7
						c-0.136-0.271-0.203-0.575-0.203-0.909c0-0.261,0.039-0.504,0.117-0.73s0.194-0.438,0.349-0.628
						c0.107-0.134,0.231-0.251,0.369-0.356c0.139-0.104,0.291-0.195,0.456-0.27c0.146-0.065,0.302-0.111,0.47-0.141
						c0.166-0.027,0.414-0.041,0.742-0.041h2.33l-0.438,0.721h-0.033l0.006-0.053v-0.012c0-0.025-0.012-0.047-0.032-0.063
						c-0.022-0.018-0.05-0.024-0.083-0.024h-1.751V147.712z M197.063,149.337l0.283-0.579h3.231l-0.433,0.731h-0.039l0.006-0.06
						v-0.014c0-0.023-0.01-0.042-0.031-0.059c-0.021-0.015-0.049-0.021-0.084-0.021L197.063,149.337L197.063,149.337z"/>
					<path fill="#282527" d="M205.033,150.074v-2.717c-0.002-0.021-0.008-0.039-0.014-0.055c-0.006-0.015-0.02-0.029-0.035-0.046
						l-0.086-0.073v-0.043h0.885v0.043l-0.083,0.073c-0.017,0.015-0.026,0.028-0.036,0.046c-0.006,0.018-0.012,0.035-0.012,0.055
						v4.146l-3.291-3.023v2.656c0,0.024,0.005,0.047,0.013,0.063s0.021,0.034,0.035,0.047l0.077,0.073v0.043h-0.883v-0.043
						l0.088-0.073c0.017-0.013,0.027-0.029,0.035-0.047c0.008-0.019,0.012-0.039,0.012-0.063v-4.141L205.033,150.074z"/>
					<path fill="#282527" d="M208.398,147.712h-1.881c-0.021,0-0.041,0.005-0.063,0.013c-0.02,0.008-0.046,0.024-0.079,0.051
						l-0.129,0.089l-0.039-0.019l0.419-0.703h4.714l-0.442,0.722h-0.032V147.8c0-0.026-0.011-0.047-0.03-0.063
						c-0.02-0.016-0.045-0.023-0.079-0.023h-1.666v3.426c0,0.027,0.002,0.051,0.009,0.065c0.006,0.015,0.016,0.03,0.03,0.044
						l0.087,0.074v0.042h-0.951v-0.042l0.086-0.074c0.018-0.014,0.03-0.029,0.037-0.047c0.008-0.018,0.012-0.039,0.012-0.063v-3.427
						H208.398z"/>
				</g>
			</g>
			<g>
				<path fill="#008CCE" d="M110.964,123.333h19.946c0,0,16.59-16.217,44.551-9.508C175.461,113.825,146.938,98.354,110.964,123.333
					z"/>
				<path fill="#E13B1B" d="M155.143,52.496c0,0,14.539,32.436,66.174,47.348H186.46c0,0-0.002,14.166,29.638,28.895
					c0,0-35.604-6.153-45.482-33.741h16.777C187.391,94.996,158.682,76.354,155.143,52.496z"/>
				<path fill="#EB6615" d="M139.301,71.698c0,0,4.475,4.472,6.337,5.59c0,0,8.016-7.64,9.32-16.028
					C154.958,61.26,147.876,72.816,139.301,71.698z"/>
				<path fill="#F5A708" d="M132.963,68.902c0,0,12.86,18.08,28.333,21.622h-16.218C145.078,90.524,134.64,84.746,132.963,68.902z"
					/>
				<path fill="#9CC53A" d="M130.354,66.478c0,0-9.88,24.979-45.67,38.959l30.385-4.475c0,0-1.864,13.607-22.743,22.37
					c0,0,27.59-2.237,35.418-24.234l30.01-4.101H116C116,94.998,129.235,82.509,130.354,66.478z"/>
			</g>
			<g>
				<path fill="#282527" d="M142.502,131.848c-0.953-0.652-1.525-0.979-1.716-0.979c-0.13,0-0.438,0.222-0.914,0.653
					c-1.166,0.006-2.343,0.066-3.455,0.187v-2.125c0-0.03,0.147-0.128,0.444-0.294c0.084-0.047,0.127-0.115,0.127-0.204
					c0-0.175-0.948-0.354-2.844-0.541c0.074,0.556,0.111,1.351,0.111,2.383v1.099c-1.428,0.279-2.6,0.67-3.272,1.168v-1.508
					c-0.733-0.192-1.485-0.373-2.257-0.539c0.085,0.625,0.127,1.402,0.127,2.34v0.964c0,0.253-0.027,1.306-0.08,3.155v0.017
					c0,0.185,0.26,0.276,0.778,0.276c0.954,0,1.431-0.15,1.431-0.453v-0.717h3.273v2.485c0,0.166-0.022,1.087-0.063,2.763v0.016
					c0,0.185,0.201,0.277,0.604,0.277c1.123,0,1.685-0.142,1.685-0.424c-0.043-1.385-0.063-2.169-0.063-2.354v-2.763h3.415v0.862
					c0,0.195,0.233,0.292,0.699,0.292c1.018,0,1.526-0.154,1.526-0.468c-0.042-1.842-0.064-2.854-0.064-3.04v-1.65
					c0-0.039,0.159-0.201,0.478-0.482c0.095-0.059,0.143-0.126,0.143-0.205C142.613,131.959,142.577,131.896,142.502,131.848z
					 M130.983,136.363v-2.692c0.497-0.465,1.646-0.913,3.272-1.239l0.001,3.933L130.983,136.363L130.983,136.363z M136.415,136.363
					v-4.254h0.002v-0.006c1.035-0.11,2.181-0.179,3.414-0.185v4.442h-3.416V136.363z"/>
				<path fill="#282527" d="M112.196,135.311c0.021,0.107,0.032,0.233,0.032,0.381c0,1.022-0.44,1.535-1.319,1.535
					c-0.636,0-0.953-0.27-0.953-0.805c0-0.361,0.19-0.624,0.572-0.789c0.688-0.313,1.059-0.818,1.112-1.521l0.285-0.014
					c0.116,0.389,0.19,0.678,0.223,0.86h10.074c0.571-0.524,0.932-0.788,1.079-0.788c0.17,0,0.657,0.331,1.463,0.993
					c0.021,0.011,0.037,0.021,0.047,0.03c0.054,0.048,0.08,0.115,0.08,0.203c0,0.138-0.068,0.215-0.207,0.234
					c-0.339,0.029-0.524,0.059-0.555,0.087c-0.488,0.517-1.013,0.96-1.573,1.33l-0.271-0.132c0.031-0.262,0.053-0.53,0.063-0.805
					c0-0.077,0-0.164,0-0.262c0-0.205-0.006-0.387-0.016-0.541h-10.136V135.311z M121.92,141.596
					c0.742-0.856,1.155-1.285,1.24-1.285c0.116,0,0.434,0.224,0.953,0.672c0.519,0.438,0.778,0.701,0.778,0.789
					c0,0.105-0.037,0.16-0.111,0.16h-11.487c-1.229,0-2.125,0.034-2.686,0.104l-0.334-0.602c0.678,0.109,1.764,0.161,3.257,0.161
					h2.797v-1.358h-1.779c-1.229,0-2.124,0.039-2.685,0.117l-0.334-0.601c0.678,0.099,1.764,0.147,3.257,0.147h1.541v-1.039
					c-0.964,0.156-2.002,0.255-3.113,0.293c-0.032,0-0.08,0.099-0.144,0.293c-0.043,0.098-0.106,0.146-0.191,0.146
					c-0.127,0-0.35-0.706-0.667-2.118c0.752,0.135,1.521,0.225,2.305,0.262c0.201-0.271,0.344-0.643,0.428-1.109
					c-1.027,0-1.736,0.03-2.128,0.088l-0.287-0.568c0.636,0.086,1.483,0.131,2.543,0.131h4.306c0.656-0.613,1.018-0.922,1.081-0.922
					c0.116,0,0.408,0.162,0.873,0.482c0.467,0.331,0.699,0.536,0.699,0.613c0,0.107-0.053,0.16-0.158,0.16h-4.465
					c-0.35,0.265-0.8,0.521-1.352,0.774c-0.55,0.244-0.873,0.366-0.969,0.366c0.138,0.027,0.853,0.043,2.146,0.043
					c1.048,0,2.272-0.038,3.67-0.117c-0.424-0.32-0.773-0.539-1.048-0.656l0.079-0.146c0.01,0,0.026,0,0.047,0
					c2.056,0,3.083,0.447,3.083,1.345c0,0.556-0.259,0.832-0.778,0.832c-0.233,0-0.44-0.146-0.62-0.438
					c-0.254-0.448-0.429-0.672-0.523-0.672c-0.806,0.244-1.701,0.473-2.687,0.687v1.242h1.494c0.71-0.779,1.106-1.169,1.192-1.169
					c0.105,0,0.407,0.199,0.905,0.6c0.497,0.399,0.746,0.643,0.746,0.731c0,0.106-0.037,0.159-0.111,0.159h-4.258v1.346
					L121.92,141.596z M114.723,131.773c-1.229,0-2.124,0.033-2.686,0.103l-0.317-0.599c0.667,0.097,1.748,0.146,3.241,0.146h1.335
					v-1.009h-2.733c-1.218,0-2.113,0.035-2.685,0.104l-0.318-0.6c0.667,0.098,1.753,0.146,3.257,0.146h2.479c0-0.02,0-0.054,0-0.103
					c0-0.37-0.027-0.767-0.079-1.185c1.811,0.156,2.716,0.32,2.716,0.496c0,0.078-0.053,0.138-0.158,0.177
					c-0.265,0.088-0.397,0.155-0.397,0.204v0.408h3.289c0.721-0.76,1.112-1.14,1.177-1.14c0.095,0,0.396,0.205,0.905,0.614
					c0.509,0.408,0.763,0.643,0.763,0.701c0,0.117-0.054,0.175-0.159,0.175h-5.975v1.009h2.161c0.71-0.652,1.091-0.979,1.145-0.979
					c0.084,0,0.381,0.181,0.89,0.541c0.497,0.351,0.747,0.561,0.747,0.627c0,0.107-0.06,0.162-0.176,0.162H114.723L114.723,131.773z
					 M122.461,133.279c0,0.214,0.005,0.443,0.016,0.688v0.277c0,0.224-0.487,0.336-1.462,0.336c-0.382,0-0.571-0.078-0.571-0.234
					v-0.219h-5.927v0.219c0,0.195-0.45,0.293-1.351,0.293c-0.477,0-0.715-0.098-0.715-0.293c0.009-0.291,0.015-0.682,0.015-1.169
					c0-0.312-0.025-0.706-0.079-1.184c0.562,0.087,1.287,0.254,2.178,0.497h5.735c0.54-0.43,0.863-0.645,0.969-0.645
					s0.403,0.127,0.891,0.381c0.486,0.244,0.73,0.409,0.73,0.496c0,0.088-0.053,0.166-0.159,0.234
					c-0.19,0.116-0.286,0.182-0.286,0.189L122.461,133.279z M120.443,132.826h-5.927v0.949h5.927V132.826z"/>
				<path fill="#282527" d="M149.324,131.423c-1.271,0-2.135,0.029-2.59,0.088l-0.302-0.629c0.763,0.099,1.901,0.146,3.416,0.146
					h8.294c0.604-0.69,1.002-1.149,1.19-1.373c0.032-0.039,0.086-0.059,0.16-0.059c0.095,0,0.438,0.247,1.032,0.745
					c0.582,0.496,0.873,0.784,0.873,0.861c0,0.138-0.063,0.206-0.19,0.206L149.324,131.423z M159.891,138.32
					c0,0.916-0.736,1.517-2.209,1.8l-0.015,0.014c-0.14,0.021-0.239,0.029-0.302,0.029c-0.182,0-0.275-0.077-0.287-0.233
					c-0.053-0.652-0.189-1.058-0.412-1.214c-0.213-0.146-0.52-0.272-0.922-0.38l0.048-0.292c0.412,0.029,0.862,0.044,1.351,0.044
					c0.086,0,0.174,0,0.271,0c0.224,0,0.334-0.104,0.334-0.309v-3.375h-2.653v4.56c0,0.683,0.01,1.662,0.031,2.938
					c0,0.186-0.396,0.309-1.191,0.365h-0.017c-0.254,0.021-0.439,0.029-0.556,0.029c-0.403,0-0.604-0.093-0.604-0.277
					c0.022-1.48,0.033-2.597,0.033-3.348v-4.268h-2.479v3.521c0,0.244,0.011,1.004,0.032,2.279c0,0.254-0.551,0.38-1.652,0.38
					c-0.393,0-0.589-0.092-0.589-0.276c0.021-1.48,0.032-2.344,0.032-2.586v-1.77c0-1.364-0.027-2.246-0.079-2.646
					c0.509,0.127,0.921,0.243,1.238,0.352c0.393,0.136,0.774,0.263,1.145,0.38h2.353c0-0.028,0-0.077,0-0.146
					c0-0.936-0.043-1.666-0.128-2.192c0.847,0.128,1.563,0.239,2.146,0.336c0.594,0.089,0.892,0.187,0.892,0.293
					c0,0.088-0.069,0.161-0.208,0.219c-0.266,0.138-0.396,0.229-0.396,0.278v1.197h2.43c0.732-0.612,1.146-0.92,1.24-0.92
					s0.42,0.181,0.969,0.541c0.541,0.36,0.813,0.584,0.813,0.672c0,0.068-0.043,0.132-0.128,0.189
					c-0.351,0.234-0.524,0.385-0.524,0.452v3.362H159.891z M151.485,128.764l0.079-0.232c0.181-0.012,0.402-0.016,0.667-0.016
					c2.003,0,3.003,0.485,3.003,1.461c0,0.691-0.375,1.037-1.127,1.037c-0.51,0-0.849-0.214-1.018-0.643
					C152.72,129.521,152.184,128.986,151.485,128.764z"/>
				<path fill="#282527" d="M172.29,134.596h-1.717v4.297c0.721-0.117,1.469-0.287,2.239-0.513l0.098,0.263
					c-2.119,1.434-4.381,2.426-6.785,2.981c-0.021,0.011-0.047,0.142-0.079,0.396c-0.021,0.146-0.085,0.22-0.19,0.22
					c-0.168,0-0.557-0.878-1.16-2.632c0.445,0,0.822-0.02,1.13-0.059v-4.033c0-1.141-0.054-2.056-0.159-2.748
					c1.588,0.226,2.382,0.399,2.382,0.526c0,0.077-0.053,0.136-0.157,0.175c-0.201,0.088-0.303,0.156-0.303,0.205v5.686
					c0.455-0.059,0.805-0.105,1.049-0.146v-8.771h-1.033c-0.297,0-0.607,0.007-0.938,0.016c-0.072,0-0.127,0-0.157,0
					c-0.53,0.012-0.917,0.034-1.161,0.074l-0.316-0.614c0.721,0.099,1.705,0.146,2.955,0.146h1.826
					c0.722-0.916,1.14-1.373,1.256-1.373c0.138,0,0.472,0.238,1,0.717c0.529,0.486,0.796,0.779,0.796,0.877
					c0,0.105-0.05,0.16-0.144,0.16h-2.146v3.785c0.393-0.975,0.631-1.461,0.717-1.461c0.137,0,0.508,0.491,1.111,1.477
					c0.562-1.803,0.843-3.703,0.843-5.701c0.826,0.157,1.509,0.293,2.049,0.41c0.529,0.105,0.794,0.214,0.794,0.32
					c0,0.089-0.068,0.151-0.206,0.19c-0.243,0.087-0.366,0.142-0.366,0.16c-0.211,0.867-0.471,1.666-0.776,2.397h1.651
					c0.646-0.887,1.021-1.33,1.129-1.33c0.115,0,0.455,0.232,1.016,0.701c0.572,0.457,0.859,0.734,0.859,0.832
					c0,0.099-0.055,0.146-0.16,0.146h-0.857c-0.095,1.063-0.35,2.178-0.762,3.348c-0.413,1.178-0.869,2.074-1.367,2.688
					c0,0.077,0.35,0.321,1.049,0.729c0.689,0.409,1.469,0.756,2.334,1.038l-0.029,0.204c-0.412,0.039-0.715,0.514-0.905,1.418
					c-0.074,0.313-0.187,0.469-0.334,0.469c-0.244,0-0.763-0.299-1.558-0.893c-0.795-0.604-1.384-1.18-1.765-1.725
					c-1.365,1.207-3.099,2.069-5.194,2.586l-0.158-0.219c2-0.906,3.543-2.123,4.621-3.654c-0.465-0.904-0.744-2.241-0.842-4.004
					c0,0.039-0.189,0.283-0.57,0.729c-0.381,0.459-0.693,0.785-0.938,0.979l-0.238-0.16
					C171.919,135.529,172.109,135.091,172.29,134.596z M176.229,132.389h-1.636c-0.286,0.594-0.545,1.092-0.778,1.489
					c0,0.021,0.127,0.458,0.381,1.315c0.255,0.856,0.541,1.515,0.859,1.974C175.764,135.852,176.157,134.259,176.229,132.389z"/>
				<path fill="#282527" d="M184.117,132.234c0-0.984-0.049-1.76-0.143-2.324c0.857,0.186,1.651,0.404,2.383,0.658h3.973
					c-0.116-0.068-0.219-0.196-0.303-0.381c-0.243-0.683-0.703-1.141-1.383-1.375l0.08-0.219c0.338-0.039,0.715-0.059,1.129-0.059
					c1.578,0,2.367,0.404,2.367,1.214c0,0.369-0.164,0.644-0.492,0.817h2.779c0.678-0.887,1.098-1.33,1.256-1.33
					c0.104,0,0.435,0.229,0.984,0.688c0.563,0.458,0.842,0.735,0.842,0.833c0,0.118-0.063,0.177-0.189,0.177h-11.17v2.717
					c0,2.662-0.275,4.572-0.826,5.729c-0.563,1.17-1.303,2.081-2.225,2.733l-0.225-0.133c0.775-1.599,1.161-4.34,1.161-8.228
					L184.117,132.234L184.117,132.234z M188.328,131.284c1.779,0.36,2.669,0.624,2.669,0.789c0,0.077-0.063,0.132-0.19,0.161
					c-0.328,0.078-0.498,0.132-0.508,0.16c-0.012,0-0.049,0.099-0.111,0.293c-0.275,0.809-0.566,1.471-0.873,1.986
					c0.392,0.137,0.586,0.249,0.586,0.336c0,0.079-0.041,0.139-0.127,0.178c-0.223,0.097-0.332,0.188-0.332,0.275v4.063
					c0,0.127,0.025,0.916,0.078,2.369c0,0.252-0.545,0.379-1.637,0.379c-0.316,0-0.477-0.098-0.477-0.293
					c0.042-1.276,0.063-2.166,0.063-2.674v-2.44c-0.412,0.38-0.826,0.7-1.238,0.965l-0.16-0.132c0.498-0.73,0.97-1.739,1.414-3.025
					C187.93,133.389,188.211,132.258,188.328,131.284z M192.332,134.5c-0.996,0-1.689,0.029-2.082,0.087l-0.302-0.569
					c0.646,0.088,1.493,0.131,2.543,0.131h1.19v-0.569c0-0.808-0.053-1.524-0.158-2.147c1.801,0.204,2.701,0.37,2.701,0.496
					c0,0.09-0.054,0.151-0.158,0.19c-0.267,0.127-0.397,0.225-0.397,0.293v1.737h0.097c0.401-1.031,0.672-1.549,0.81-1.549
					c0.096,0,0.334,0.269,0.716,0.805c0.38,0.525,0.57,0.839,0.57,0.936c0,0.087-0.036,0.133-0.11,0.133h-2.081v5.934
					c0,0.945-0.646,1.544-1.938,1.798h-0.018c-0.115,0.028-0.218,0.044-0.301,0.044c-0.17,0-0.271-0.073-0.303-0.221
					c-0.074-0.516-0.19-0.861-0.35-1.036c-0.17-0.187-0.631-0.382-1.383-0.585l0.063-0.278c0.553,0.04,1.088,0.06,1.605,0.06
					c0.085,0,0.164,0,0.239,0c0.265,0,0.396-0.111,0.396-0.336V134.5H192.332z M190.234,135.624l0.158-0.16
					c0.711,0.117,1.323,0.371,1.844,0.761c0.519,0.39,0.777,0.822,0.777,1.301c0,0.683-0.386,1.022-1.158,1.022
					c-0.563,0-0.842-0.321-0.842-0.964C191.002,136.707,190.743,136.055,190.234,135.624z"/>
			</g>
		</g>
	</g>
</g>
</svg>
